<?xml version="1.0" encoding="UTF-8"?>
<svg xmlns="http://www.w3.org/2000/svg" xmlns:xlink="http://www.w3.org/1999/xlink" contentScriptType="text/ecmascript" zoomAndPan="magnify" baseProfile="tiny" contentStyleType="text/css" version="1.0" width="70px" preserveAspectRatio="xMidYMid meet" viewBox="0 0 70 70" height="70px" x="0px" y="0px">
    <g>
        <g>
            <g>
                <g>
                    <g>
                        <g>
                            <g>
                                <path fill="#426082" d="M 8.764 11.467 C 4.031 14.369 1.199 19.5 0.973 22.086 L 0.94699997 22.396 L 1.081 22.673 C 2.185 24.963001 12.329 44.947 28.477 41.725 L 28.757 41.669 L 28.978 41.486 C 31.43 39.441 38.896 33.225998 23.990002 11.054001 L 23.797 10.766001 L 23.475 10.637001 C 16.814 7.951 11.798 9.607 8.764 11.467 z "/>
                                <linearGradient x1="577.6855" gradientTransform="matrix(1 0 0 1 -568 -723)" y1="754.6914" x2="596.5877" gradientUnits="userSpaceOnUse" y2="743.9707" xlink:type="simple" xlink:actuate="onLoad" id="SVGID_1_" xlink:show="other">
                                    <stop stop-color="#c4cfe6" offset="0"/>
                                    <stop stop-color="#d8e0f0" offset="0.146"/>
                                    <stop stop-color="#eef3fa" offset="0.3315"/>
                                    <stop stop-color="#dfe6f0" offset="0.4409"/>
                                    <stop stop-color="#b1bfd4" offset="0.7978"/>
                                    <stop stop-color="#a0b0c9" offset="0.9775"/>
                                    <stop stop-color="#a0b0c9" offset="1"/>
                                </linearGradient>
                                <path fill="url(#SVGID_1_)" d="M 23.053 11.684 C 37.277 32.847 30.612 38.656998 28.254 40.620003 C 12.805 43.703 2.843 23.73 2.096 22.185 C 2.406 18.644 9.756 6.32 23.053 11.684 z "/>
                            </g>
                            <g>
                                <g>
                                    <path fill="#45515e" d="M 26.623 26.567 C 26.623 26.567 22.012 17.449 18.015 15.667999 C 13.365999 13.595999 7.2489996 22.157999 7.2489996 22.157999 C 7.2489996 22.157999 14.007 15.559999 17.033 16.429998 L 22.66 25.939 C 23.555 26.983 25.334 27.855 26.623 26.567 z "/>
                                </g>
                            </g>
                            <g>
                                <g>
                                    <path fill="#e1e7ed" d="M 25.749 27.12 C 25.749 27.12 20.703001 18.094002 17.815 16.682001 C 13.191 14.421001 7.2490005 22.158 7.2490005 22.158 C 7.2490005 22.158 12.880001 16.318 17.146 18.939001 C 19.902 20.633001 21.607 26.312 21.607 26.312 C 22.502 27.357 24.08 28.026 25.749 27.12 z "/>
                                </g>
                            </g>
                            <path fill="#45515e" d="M 19.81 33.29 C 19.81 33.29 30.617 39.275 30.171 28.131 C 30.171 28.131 27.763 32.689 19.81 33.29 z "/>
                            <path fill="#45515e" d="M 18.013 21.864 C 15.034 19.808 9.659 18.951 9.966001 27.415 C 9.966 27.415 13.013 21.864 18.013 21.864 z "/>
                            <path fill="#45515e" d="M 27.464 18.579 L 26.335001 16.61 C 26.335001 16.61 23.168001 14.353001 22.097 19.128 C 22.097 19.128 24.973 17.2 27.464 18.579 z "/>
                        </g>
                        <g>
                            <path fill="#70420d" d="M 26.979 4.122 L 27.016 5.181 C 28.346 41.234 32.635002 43.724 36.081 45.725998 L 36.57 46.009 L 36.929 45.98 C 59.738 43.973 58.907 9.457 58.861 7.989 L 58.835 7.1569996 L 53.863 5.8019996 L 53.561 5.89 C 48.814 7.249 35.65 9.6 31.795 4.207 L 31.415 3.6749997 L 26.979 4.122 z "/>
                            <g>
                                <linearGradient x1="598.6309" gradientTransform="matrix(1 0 0 1 -568 -723)" y1="747.9336" x2="623.4589" gradientUnits="userSpaceOnUse" y2="747.9336" xlink:type="simple" xlink:actuate="onLoad" id="SVGID_2_" xlink:show="other">
                                    <stop stop-color="#f7c883" offset="0"/>
                                    <stop stop-color="#f8cd8d" offset="0.0153"/>
                                    <stop stop-color="#fbd8a7" offset="0.0607"/>
                                    <stop stop-color="#fde0b9" offset="0.1078"/>
                                    <stop stop-color="#ffe5c3" offset="0.1574"/>
                                    <stop stop-color="#ffe7c7" offset="0.2135"/>
                                    <stop stop-color="#fcce87" offset="0.5873"/>
                                    <stop stop-color="#f9b03c" offset="1"/>
                                </linearGradient>
                                <path fill="url(#SVGID_2_)" d="M 28.143 5.074 C 30.235 11.613 42.350998 11.613 51.079002 9.816999 L 57.734 7.9609995 C 57.734 7.9609995 58.839 42.851997 36.831 44.793 C 33.77 43.0 29.476 41.218 28.143 5.074 z "/>
                            </g>
                            <path fill="#fff4e5" d="M 51.078 11.087 L 57.732 9.231 L 57.732 7.961 L 51.078 9.816999 C 42.350998 11.612999 30.234 11.612999 28.141998 5.0739994 C 28.160997 5.5539994 28.182 6.003999 28.200998 6.471999 C 30.415 12.875 42.413 12.87 51.078 11.087 z "/>
                            <g>
                                <g>
                                    <path fill="#875010" d="M 50.415 22.62 C 47.572002 20.622002 42.982002 20.622002 39.562 23.089 C 40.301 20.480001 43.212 18.429 45.451 18.378 C 47.686 18.328 49.536 19.95 50.415 22.62 z "/>
                                    <path fill="#ffffff" d="M 33.271 28.861 C 33.613 26.057 34.694 20.486 34.694 20.486 C 35.024002 20.25 36.887 16.466 45.262 15.902 C 42.748 16.595001 39.604 17.343 36.846 20.609001 L 36.415 29.262001 L 35.385002 31.489 C 35.386 31.489 32.846 32.349 33.271 28.861 z "/>
                                    <path fill="#875010" d="M 34.622 29.337 C 34.964 26.43 36.044003 19.663 36.044003 19.663 C 39.664 16.56 46.212 14.323999 52.326004 17.164 C 48.189003 15.872999 41.215004 16.175 38.199005 19.88 L 37.767006 29.752998 L 35.720005 31.592999 C 35.721 31.593 34.197 32.953 34.622 29.337 z "/>
                                    <path fill="#875010" d="M 42.279 34.724 C 38.017 37.646 33.907997 37.282997 30.737 33.078 C 30.993 36.238 32.778 39.55 35.166 39.93 C 38.126 40.398 40.984 37.773 42.279 34.724 z "/>
                                    <path fill="#ffffff" d="M 35.115 38.838 C 33.556 38.617 32.228 37.4 31.332 35.798 C 32.089 37.917 33.476 39.659 35.167 39.928 C 37.826 40.352 40.4 38.272003 41.835 35.632 C 40.162 37.725 37.675 39.2 35.115 38.838 z "/>
                                </g>
                            </g>
                            <linearGradient x1="624.6689" gradientTransform="matrix(1 0 0 1 -568 -723)" y1="733.0146" x2="596.4547" gradientUnits="userSpaceOnUse" y2="730.1933" xlink:type="simple" xlink:actuate="onLoad" id="SVGID_3_" xlink:show="other">
                                <stop stop-color="#eba942" offset="0"/>
                                <stop stop-color="#fddfb3" offset="0.5112"/>
                                <stop stop-color="#eda32d" offset="1"/>
                            </linearGradient>
                            <path fill="url(#SVGID_3_)" d="M 57.732 7.961 L 53.872997 6.908 C 53.872997 6.908 36.046997 12.027 30.876997 4.8 L 28.142998 5.0740004 C 28.732 10.059 41.134 14.406 57.732 7.961 z "/>
                            <path fill="#875010" d="M 33.073 23.093 C 33.073 13.142 29.140001 15.183001 28.965002 18.592001 C 28.965 18.592 31.405 15.957 33.073 23.093 z "/>
                            <path fill="#ffffff" d="M 39.563 23.089 C 39.563 23.089 44.86 20.341002 50.416 22.62 C 50.415 22.62 45.768 18.144 39.563 23.089 z "/>
                            <path fill="#ffffff" d="M 28.965 18.592 C 28.965 18.592 31.165 17.375 33.072998 23.092999 C 33.073 23.093 32.016 15.54 28.965 18.592 z "/>
                        </g>
                    </g>
                </g>
            </g>
        </g>
    </g>
    <ellipse transform="matrix(-0.3159 -0.9488 0.9488 -0.3159 11.9449 108.8607)" fill="#465e7d" rx="16.154" cx="45.218" ry="19.381" cy="50.124"/>
    <g>
        <g>
            <g>
                <g>
                    <g>
                        <g>
                            <linearGradient x1="973.3916" gradientTransform="matrix(0.9998 -0.0217 0.0217 0.9998 -971.2025 -1622.6281)" y1="1679.9463" x2="991.7668" gradientUnits="userSpaceOnUse" y2="1706.0365" xlink:type="simple" xlink:actuate="onLoad" id="SVGID_4_" xlink:show="other">
                                <stop stop-color="#d0d7e0" offset="0"/>
                                <stop stop-color="#d8e2eb" offset="0.1742"/>
                                <stop stop-color="#c8d4e0" offset="0.2515"/>
                                <stop stop-color="#adbcce" offset="0.4096"/>
                                <stop stop-color="#9dadc3" offset="0.55"/>
                                <stop stop-color="#97a8bf" offset="0.6573"/>
                                <stop stop-color="#77869c" offset="1"/>
                            </linearGradient>
                            <path fill="url(#SVGID_4_)" d="M 45.902 34.52 C 43.339 34.768 40.923 35.514 38.931 36.627 L 33.666 39.851997 C 33.666 39.851997 31.391 46.049995 32.102 50.016 C 33.24 57.828 41.206 63.53 49.741 62.786 C 50.88 62.662 51.733 63.653 51.733 63.653 L 56.569 60.677 C 61.406 57.825996 64.251 52.742996 63.54 47.163998 C 62.545 39.479 54.579 33.776 45.902 34.52 z "/>
                            <linearGradient x1="977.4395" gradientTransform="matrix(0.9998 -0.0217 0.0217 0.9998 -971.2025 -1622.6281)" y1="1676.3555" x2="977.4395" gradientUnits="userSpaceOnUse" y2="1712.2429" xlink:type="simple" xlink:actuate="onLoad" id="SVGID_5_" xlink:show="other">
                                <stop stop-color="#d3dee8" offset="0"/>
                                <stop stop-color="#a7b7cc" offset="1"/>
                            </linearGradient>
                            <path fill="url(#SVGID_5_)" d="M 58.563 50.389 C 57.424 42.577 49.601997 36.876 40.924 37.619 C 32.245 38.363 26.129 45.305 27.125 53.239 C 28.263 61.049 36.229 66.751 44.764 66.006996 C 53.441 65.141 59.559 58.197 58.563 50.389 z "/>
                            <path fill="#ffffff" d="M 40.924 37.619 C 38.789 37.743 36.94 38.363 35.233 39.23 C 36.514 38.857 37.793003 38.611 39.216003 38.363 C 48.320004 37.495 56.428 43.322 57.424004 51.132 C 58.278004 56.833 55.006004 62.04 49.742004 64.891 C 55.717003 62.412 59.416004 56.71 58.562004 50.512 C 57.566 42.454 49.602 36.752 40.924 37.619 z "/>
                        </g>
                        <linearGradient x1="976.7168" gradientTransform="matrix(0.9998 -0.0217 0.0217 0.9998 -971.2025 -1622.6281)" y1="1681.5518" x2="976.7168" gradientUnits="userSpaceOnUse" y2="1708.8156" xlink:type="simple" xlink:actuate="onLoad" id="SVGID_6_" xlink:show="other">
                            <stop stop-color="#f3f5f7" offset="0"/>
                            <stop stop-color="#ffffff" offset="0.9494"/>
                            <stop stop-color="#a7b7cc" offset="1"/>
                        </linearGradient>
                        <path fill="url(#SVGID_6_)" d="M 54.152 51.255 C 53.298 45.305 47.325 40.966003 40.638 41.586002 C 33.95 42.206 29.257 47.536003 30.11 53.361 C 30.964 59.312 36.939 63.65 43.624 63.031 C 50.313 62.412 55.006 57.081 54.152 51.255 z "/>
                        <linearGradient x1="978.2168" gradientTransform="matrix(0.9998 -0.0217 0.0217 0.9998 -971.2025 -1622.6281)" y1="1707.915" x2="968.4375" gradientUnits="userSpaceOnUse" y2="1689.0259" xlink:type="simple" xlink:actuate="onLoad" id="SVGID_7_" xlink:show="other">
                            <stop stop-color="#c7d8e0" offset="0"/>
                            <stop stop-color="#8b9db5" offset="1"/>
                        </linearGradient>
                        <path fill="url(#SVGID_7_)" d="M 45.475 61.792 C 38.788998 62.412 33.1 58.197 32.389 52.248 C 31.82 48.404 33.528 44.685 36.658 42.454002 C 32.389 44.312004 29.686 48.652 30.255001 53.239002 C 31.109001 59.189003 37.084 63.527 43.771 62.908 C 46.045 62.784 48.75 61.792 50.599 60.179 C 49.029 61.297 46.896 61.668 45.475 61.792 z "/>
                        <path fill="#f3f5f7" d="M 45.048 62.66 C 38.221 63.279 31.961 58.815998 31.108002 52.619 C 30.681002 49.767 31.677002 46.916 33.384003 44.684998 C 31.108002 46.913998 29.828003 50.015 30.254002 53.239 C 31.108002 59.189 37.083 63.527 43.77 62.907997 C 44.623 62.783997 45.619 62.659996 46.614002 62.288 C 46.044 62.536 45.617 62.536 45.048 62.66 z "/>
                        <polygon fill="#dc143c" points="37.367,47.041 43.77,51.255 41.492,52.991      "/>
                        <ellipse rx="1.707" ry="1.364" fill="#dc143c" cx="42.771" cy="51.999"/>
                        <polygon fill="#dc143c" points="41.492,51.503 42.771,52.991 52.02,46.916      "/>
                        <polygon fill="#ff0000" points="52.02,46.916 42.486,51.875 41.775,51.255      "/>
                        <polygon fill="#ff0000" points="37.367,47.041 43.91,51.255 42.486,52.123      "/>
                        <line y2="61.917" fill="none" x1="34.948" x2="31.961" y1="63.898"/>
                        <ellipse rx="0.854" ry="0.744" fill="#dc143c" cx="43.057" cy="42.702"/>
                        <ellipse rx="0.854" ry="0.744" fill="#dc143c" cx="43.057" cy="60.553"/>
                        <ellipse rx="0.854" ry="0.744" fill="#dc143c" cx="34.521" cy="50.759"/>
                        <ellipse rx="0.853" ry="0.744" fill="#dc143c" cx="52.305" cy="52.495"/>
                    </g>
                </g>
            </g>
        </g>
    </g>
    <g>
        <path d="M 13.695 66.0 L 13.695 57.631 L 6.083 45.0 L 10.423 45.637 L 13.016001 51.719 C 13.946001 53.210003 14.661001 54.411003 15.411001 55.786003 L 15.483001 55.786003 C 16.163 54.498005 16.985 53.210003 17.915 51.719 L 21.674002 46.909 L 24.919003 47.334 L 16.839 57.6 L 16.839 66.0 L 13.695 66.0 z " stroke-width="0.25" stroke="#ffffff"/>
    </g>
</svg>
