<?xml version="1.0" encoding="iso-8859-1"?>
<!-- Generator: Adobe Illustrator 13.0.0, SVG Export Plug-In . SVG Version: 6.00 Build 14948)  -->
<!DOCTYPE svg PUBLIC "-//W3C//DTD SVG 1.0//EN" "http://www.w3.org/TR/2001/REC-SVG-20010904/DTD/svg10.dtd">
<svg version="1.0"
	 id="svg2280" sodipodi:version="0.32" inkscape:version="0.45.1" sodipodi:docname="car_front.svg" sodipodi:docbase="C:\Projekte_M" xmlns:rdf="http://www.w3.org/1999/02/22-rdf-syntax-ns#" xmlns:svg="http://www.w3.org/2000/svg" xmlns:sodipodi="http://sodipodi.sourceforge.net/DTD/sodipodi-0.dtd" xmlns:inkscape="http://www.inkscape.org/namespaces/inkscape" xmlns:dc="http://purl.org/dc/elements/1.1/" xmlns:cc="http://web.resource.org/cc/" inkscape:output_extension="org.inkscape.output.svg.inkscape"
	 xmlns="http://www.w3.org/2000/svg" xmlns:xlink="http://www.w3.org/1999/xlink" x="0px" y="0px" width="300px" height="200px"
	 viewBox="0 0 300 200" enable-background="new 0 0 300 200" xml:space="preserve">
<linearGradient id="path2872_2_" gradientUnits="userSpaceOnUse" x1="523.1309" y1="724.7197" x2="523.1309" y2="650.5439" gradientTransform="matrix(1 0 0 1 -355.3203 -642.9199)">
	<stop  offset="0" style="stop-color:#E6E6E6"/>
	<stop  offset="0" style="stop-color:#1F62FF"/>
	<stop  offset="4.968804e-002" style="stop-color:#1D5BF2"/>
	<stop  offset="0.2957" style="stop-color:#133BB8"/>
	<stop  offset="0.5224" style="stop-color:#0B218A"/>
	<stop  offset="0.7225" style="stop-color:#050F69"/>
	<stop  offset="0.8886" style="stop-color:#010454"/>
	<stop  offset="1" style="stop-color:#00004D"/>
</linearGradient>
<path id="path2872_1_" fill="url(#path2872_2_)" stroke="#000000" stroke-width="2.4016" d="M91.8,11.2c59.4-7.9,169.3-0.6,173.4,3
	c4.1,3.6,3.2,51.3,3.3,56.4C269,91.1,63.1,80.6,67.6,62.2C63.5,58.6,87.7,14.8,91.8,11.2z"/>
<sodipodi:namedview  height="200px" width="300px" id="base" inkscape:pageopacity="0.0" inkscape:window-height="974" inkscape:pageshadow="2" inkscape:window-width="1264" pagecolor="#ffffff" borderopacity="1.0" inkscape:zoom="3.7254687" inkscape:cy="108.98372" bordercolor="#666666" guidetolerance="10.0" gridtolerance="10.0" inkscape:cx="305.6984" objecttolerance="10.0" inkscape:window-x="0" inkscape:window-y="14" inkscape:current-layer="svg2280">
	</sodipodi:namedview>
<linearGradient id="rect2867_1_" gradientUnits="userSpaceOnUse" x1="501.1367" y1="927.2363" x2="565.7236" y2="889.8835" gradientTransform="matrix(0.8012 0 0 0.7999 -345.0982 -672.9236)">
	<stop  offset="0" style="stop-color:#E6E6E6"/>
	<stop  offset="0.2857" style="stop-color:#B7C6DE"/>
	<stop  offset="1" style="stop-color:#213756"/>
</linearGradient>
<path id="rect2867" fill="url(#rect2867_1_)" stroke="#000000" stroke-width="1.6011" d="M88.5,13.2c0.7-3.6,4.2-2.8,4.8,0.8
	c0.7,3.6,2.1,50.1,1.4,53.7C97,55.7,74.6,138,61,64.5C60.3,60.9,87.8,16.8,88.5,13.2z"/>
<path id="path11337" fill="#00005E" d="M23.3,106.5l48.6,3.3l2.8,23.5l2.8,16.8l-54.3-6.8v-15.5V106.5z"/>
<linearGradient id="rect2874_1_" gradientUnits="userSpaceOnUse" x1="224.2266" y1="-126.46" x2="224.2266" y2="-172.8184" gradientTransform="matrix(1 0 0 -1 -177.6602 -61.96)">
	<stop  offset="0" style="stop-color:#1F62FF"/>
	<stop  offset="1" style="stop-color:#00004D"/>
</linearGradient>
<path id="rect2874" fill="url(#rect2874_1_)" d="M61,64.5c0,0-6.8,1.8,12.5,2.7L70,110.9l-45.8-3.3c0,0-20.8-15,25.7-20.5L61,64.5z"
	/>
<radialGradient id="path4407_1_" cx="238.7676" cy="-207.875" r="21.3221" gradientTransform="matrix(0.7143 0 0 -0.8396 -149.7021 -58.0369)" gradientUnits="userSpaceOnUse">
	<stop  offset="0" style="stop-color:#1F62FF"/>
	<stop  offset="1" style="stop-color:#00004D"/>
</radialGradient>
<path id="path4407" fill="url(#path4407_1_)" d="M26,92c0,0-4.6-1.4-7.5,5.4c-2.8,6.8-2.8,16.8-2.8,16.8V131l8.6,10.1v-33.6L26,92z"
	/>
<path id="path8601" fill="#00005E" d="M259.1,106.5l-56.9,4.4l-6.9,23.5v13.4l62.4-6.8v-12L259.1,106.5z"/>
<path id="path4415" fill="#00005E" d="M69.4,110.9l3.5,22.7l2.2,14.3h88.7l2.8-13.4h-0.8l0,0l3.6-23.5L69.4,110.9L69.4,110.9z"/>
<linearGradient id="rect4417_1_" gradientUnits="userSpaceOnUse" x1="316.3203" y1="-129.7803" x2="316.3203" y2="-173.4375" gradientTransform="matrix(1 0 0 -1 -177.6602 -61.96)">
	<stop  offset="0" style="stop-color:#1F62FF"/>
	<stop  offset="0.2174" style="stop-color:#194FDD"/>
	<stop  offset="0.6945" style="stop-color:#0A2087"/>
	<stop  offset="1" style="stop-color:#00004D"/>
</linearGradient>
<path id="rect4417" fill="url(#rect4417_1_)" d="M71.8,67.8h132.1l5.5,43.7H67.8L71.8,67.8z"/>
<linearGradient id="path4420_1_" gradientUnits="userSpaceOnUse" x1="411.9941" y1="-122.5693" x2="411.9941" y2="-173.1113" gradientTransform="matrix(1 0 0 -1 -177.6602 -61.96)">
	<stop  offset="0" style="stop-color:#1F62FF"/>
	<stop  offset="1" style="stop-color:#00004D"/>
</linearGradient>
<path id="path4420" fill="url(#path4420_1_)" d="M268.5,60.6c0,0-45.3,6-68.7,6.9l3.5,43.7l65.2-1.7c0.5-2.1,0.9-16.7-0.4-21.5
	C266.9,61.3,268.5,60.6,268.5,60.6z"/>
<radialGradient id="path9555_1_" cx="376.7881" cy="-244.3706" r="95.0686" gradientTransform="matrix(0.866 0 0 -0.8396 -181.2692 -58.0369)" gradientUnits="userSpaceOnUse">
	<stop  offset="0" style="stop-color:#0070BF"/>
	<stop  offset="1" style="stop-color:#00005E"/>
</radialGradient>
<path id="path9555" sodipodi:nodetypes="ccccc" fill="url(#path9555_1_)" d="M29.2,139.7l-0.3,10.4c0,0,117.7,10.1,232.4,0
	l-0.3-10.4C146.7,149.8,29.2,139.7,29.2,139.7z"/>
<linearGradient id="rect5052_1_" gradientUnits="userSpaceOnUse" x1="450.6895" y1="1028.835" x2="788.2393" y2="1028.835" gradientTransform="matrix(0.8012 0 0 0.7999 -345.0982 -672.9236)">
	<stop  offset="0" style="stop-color:#2C2C2C"/>
	<stop  offset="0.5082" style="stop-color:#808080"/>
	<stop  offset="1" style="stop-color:#343434"/>
</linearGradient>
<path id="rect5052" fill="url(#rect5052_1_)" d="M16,130.9l1.6,23.8c0,0,3.2,5.9,6.3,7.5c3.1,1.7,59.4,6.3,65,6.3
	c0,0,66,1.7,107.6,0c41.6-1.7,76.3-2.5,79.8-4c16.5-9.5,8-18,8-18l-15-15.7l-13.8,5.4l3.3,4.1l-62.1,7l-107.4,0.1l-63-6.5L16,130.9z
	"/>
<path id="path16471" sodipodi:nodetypes="ccccc" fill="#00005E" d="M38.1,108.9l-0.3,10.4c0,0,117.3,10.1,231.5,0l-2.3-11.1
	C151.8,113.3,38.1,108.9,38.1,108.9z"/>
<radialGradient id="path6622_1_" cx="385.2695" cy="-219.1494" r="95.0726" gradientTransform="matrix(0.866 0 0 -0.8396 -181.2692 -58.0369)" gradientUnits="userSpaceOnUse">
	<stop  offset="0" style="stop-color:#0070BF"/>
	<stop  offset="1" style="stop-color:#00005E"/>
</radialGradient>
<path id="path6622" sodipodi:nodetypes="ccccc" fill="url(#path6622_1_)" d="M36.5,118.5l-0.3,10.4c0,0,117.7,10.1,232.4,0
	l-0.3-10.4C154,128.6,36.5,118.5,36.5,118.5z"/>
<radialGradient id="path8573_1_" cx="388.4082" cy="-233.7993" r="98.2274" gradientTransform="matrix(0.866 0 0 -0.8396 -181.2692 -58.0369)" gradientUnits="userSpaceOnUse">
	<stop  offset="0" style="stop-color:#0070BF"/>
	<stop  offset="1" style="stop-color:#00005E"/>
</radialGradient>
<path id="path8573" sodipodi:nodetypes="ccccc" fill="url(#path8573_1_)" d="M35.5,128.8l-0.3,10.4c0,0,128.8,21.4,239.8-2.6
	l-7.8-7.8C153,138.7,35.5,128.8,35.5,128.8z"/>
<linearGradient id="rect5450_1_" gradientUnits="userSpaceOnUse" x1="447" y1="962.8594" x2="447" y2="996.7578" gradientTransform="matrix(0.8012 0 0 0.7999 -345.0982 -672.9236)">
	<stop  offset="0" style="stop-color:#666666"/>
	<stop  offset="1" style="stop-color:#3C3C3C"/>
</linearGradient>
<path id="rect5450" fill="url(#rect5450_1_)" stroke="#4D4D4D" stroke-width="2.4016" d="M10.1,104.1l5.9,0l0,27.1h-2.9L10.1,104.1z
	"/>
<path fill="none" stroke="#000000" stroke-width="2" d="M20.4,152.5c0,2.3-0.2,4.2-0.4,4.2H6.9c-0.2,0-0.4-1.9-0.4-4.2v-16.3
	c0-2.3,0.2-4.2,0.4-4.2H20c0.2,0,0.4,1.9,0.4,4.2V152.5z"/>
<path fill="none" stroke="#000000" stroke-width="2" d="M11.4,126.5c0,2.6,1.8,4.8,0.2,4.8H16c0.1,0,0.2-2.2,0.2-4.8v-18.9
	c0-2.6-0.1-4.8-0.2-4.8H8.4c-0.1,0,0,0,0.6,3.8L11.4,126.5z"/>
<g>
	<path fill="#FFFFFF" d="M194.4,37.9l3.7-0.8c1.3-0.3,2.3,0.1,3.2,1c0.8,0.9,1.6,2.9,2.2,5.7c0.6,2.8,0.8,5,0.4,6.3
		c-0.3,1.3-1.2,2.2-2.5,2.5l-3.7,0.8L194.4,37.9L194.4,37.9z M199.4,50.9l1.3-0.3c0.7-0.2,1-0.6,1.2-1.4c0.2-0.7-0.1-2.4-0.6-4.6
		c-0.5-2.4-1.1-4-1.5-4.6c-0.4-0.6-1-0.8-1.7-0.6l-1.2,0.3l2.4,11.2L199.4,50.9z"/>
	<path fill="#FFFFFF" d="M209.3,40.2c-0.2-0.1-0.4,0-0.6,0c-0.7,0.2-1.1,0.5-1.2,1.1c-0.1,0.6-0.1,1.6,0.2,2.9l1.4,6.7l-2,0.4
		l-2.1-9.9c-0.1-0.5-0.3-1.3-0.5-2.3l1.9-0.4c0.2,0.6,0.4,1.2,0.5,1.7c0-0.6,0.2-1.2,0.3-1.5c0.1-0.3,0.5-0.7,0.9-0.8
		c0.3-0.1,0.5-0.1,0.8,0L209.3,40.2L209.3,40.2z"/>
	<path fill="#FFFFFF" d="M213.2,53.8c-0.3,0.1-0.5,0.1-0.7,0.2c-0.2,0-0.4,0-0.6,0l-0.5-2.1c0.2,0.1,0.3,0.1,0.5,0
		c0.1,0,0.3-0.1,0.5-0.1c0.4-0.1,0.7-0.3,0.8-0.6c0.1-0.3,0.2-0.7,0-1.5l-2.9-13.2l-0.7,0.2l-0.4-2l3.6-0.8l0.4,2l-0.7,0.2l2.9,13.2
		c0.3,1.2,0.3,2.3-0.1,3.1C214.9,53.2,214.3,53.6,213.2,53.8z"/>
	<path fill="#FFFFFF" d="M224.5,47.7l-2,0.4c-0.1-0.3-0.3-0.8-0.4-1.6c-0.1,1.3-0.8,2-1.9,2.2c-1.7,0.4-2.8-0.9-3.4-3.7l-1.8-8.2
		l2-0.4l1.7,7.9c0.4,1.7,1,2.6,1.9,2.4c0.5-0.1,0.8-0.5,0.9-1c0.2-0.6,0.1-1.3,0-2.1l-1.7-7.8l2-0.4l2.3,10.4
		C224.2,46.5,224.4,47.2,224.5,47.7z"/>
	<path fill="#FFFFFF" d="M233.7,45.7l-2.5,0.5l-4.1-6.3l1.5,6.8l-2,0.4L223,30.7l2-0.4l2.1,9.8l1.2-5.9l2.3-0.5l-1.2,5.9L233.7,45.7
		z"/>
	<path fill="#FFFFFF" d="M241.8,44l-2.5,0.5l-4.1-6.3l1.5,6.8l-2,0.4l-3.6-16.6l2-0.4l2.1,9.8l1.2-5.9l2.3-0.5l-1.2,5.9L241.8,44z"
		/>
	<path fill="#FFFFFF" d="M247.2,42.8c-0.1-0.3-0.2-0.5-0.2-0.6c-0.1-0.3-0.1-0.4-0.1-0.7c-0.1,0.6-0.3,1-0.6,1.4
		c-0.3,0.4-0.7,0.6-1.2,0.7c-0.8,0.2-1.6-0.1-2.1-0.7c-0.5-0.6-0.9-1.5-1.2-2.7c-0.3-1.5-0.2-2.6,0.2-3.3c0.5-0.8,1.4-1.3,2.7-1.6
		l0.7-0.2l-0.1-0.4c-0.2-0.9-0.4-1.4-0.8-1.8c-0.4-0.3-0.8-0.4-1.3-0.3c-0.5,0.1-0.9,0.2-1.2,0.4c-0.3,0.2-0.6,0.4-0.9,0.6l-0.4-2
		c0.3-0.4,0.7-0.6,1.1-0.7c0.4-0.2,0.8-0.3,1.2-0.4c1.2-0.3,2.2-0.2,2.8,0.4c0.6,0.6,1.2,1.6,1.5,3.2l1.4,6.3
		c0.1,0.3,0.1,0.7,0.2,0.9c0.1,0.3,0.1,0.7,0.3,0.9L247.2,42.8L247.2,42.8z M245.7,36.9L245,37c-0.6,0.1-1.1,0.4-1.3,0.7
		c-0.2,0.3-0.2,1,0,1.8c0.1,0.7,0.4,1.2,0.6,1.5c0.3,0.2,0.6,0.4,1,0.3c0.4-0.1,0.7-0.4,0.9-0.9c0.1-0.4,0.2-1.2,0-2l-0.4-1.7
		L245.7,36.9z"/>
</g>
<g>
	<path fill="#FFFFFF" d="M253.6,38.6c0.1,0.5,0,1-0.4,1.1c-0.4,0.1-0.7-0.3-0.8-0.8c-0.1-0.5,0-1,0.4-1.1
		C253.1,37.8,253.5,38.1,253.6,38.6L253.6,38.6z"/>
	<path fill="#FFFFFF" d="M252.3,33.3c0,0.1,0.2,0.5,0.3,1c0.3,1.6-0.1,2.7-1.3,2.9c-1.1,0.2-2.1-0.7-2.5-2.4c-0.1-0.4-0.1-0.8-0.1-1
		l0.9,0.1c0,0.1,0,0.4,0,0.7c0.2,0.8,0.7,1.1,1.4,1c0.7-0.2,0.9-0.6,0.7-1.4c-0.1-0.3-0.1-0.4-0.2-0.6L252.3,33.3z"/>
	<path fill="#FFFFFF" d="M249.4,28.6c1.5-0.3,2.2,1.1,2.4,2c0.3,1.5-0.2,2.6-1.3,2.8c-1.3,0.3-2.2-0.8-2.4-2
		C247.8,29.8,248.3,28.9,249.4,28.6z M250.1,31.7c0.6-0.1,1.1-0.4,0.9-1c-0.1-0.5-0.7-0.5-1.2-0.4s-1.1,0.4-1,0.9
		C249,31.8,249.6,31.8,250.1,31.7z"/>
	<path fill="#FFFFFF" d="M248.5,27.8c-0.4,0.1-0.7,0.2-1.1,0.2l-0.3-1.5l0.4-0.2l0,0c-0.4-0.2-0.7-0.7-0.8-1.4s0-1.1,0.2-1.4l0,0
		c-0.1-0.1-0.4-0.3-0.5-0.6c-0.2-0.2-0.2-0.5-0.3-0.8c-0.2-1.1,0.2-1.7,1.1-1.9l2.3-0.5l0.3,1.6l-2.1,0.5c-0.4,0.1-0.7,0.3-0.6,0.7
		c0.1,0.3,0.2,0.5,0.4,0.6c0.1,0,0.2,0,0.2,0l2.3-0.5l0.3,1.6l-2.3,0.5c-0.3,0.1-0.6,0.1-0.5,0.7c0.1,0.3,0.2,0.5,0.4,0.6
		c0.1,0,0.2,0,0.3-0.1l2.3-0.5L251,27l-2.5,0.5L248.5,27.8z"/>
</g>
<path id="path19437" fill="none" stroke="#000000" stroke-width="2.4016" d="M61,64.5L50,87c0,0-28,3.6-31.6,10.4
	c-3.4,6.8-3.4,16.8-3.4,16.8V131l1.3,22.4c0,0,3.8,7.7,6.8,9.3c3.1,1.7,59.3,5.9,64.8,5.9c0,0,66,1.7,107.6,0
	c41.6-1.7,76.1-2.4,79.6-3.9c17-6.7,10.5-16.5,9.3-18.3l-16-15.6l0,0v-16.8l0.4-20l-0.1-33.4l-35.2,0.3c0,0-11.1,5.4-34.5,6.2H85.1
	C61.7,66.3,61,64.5,61,64.5z"/>
<radialGradient id="path14088_1_" cx="570.1035" cy="-1817.584" r="16.5154" gradientTransform="matrix(0.1611 0 0 -0.6144 176.5722 -997.4237)" gradientUnits="userSpaceOnUse">
	<stop  offset="0" style="stop-color:#E6E6E6"/>
	<stop  offset="0.5" style="stop-color:#E65C47"/>
	<stop  offset="1" style="stop-color:#FF3756"/>
</radialGradient>
<path id="path14088_6_" fill="url(#path14088_1_)" stroke="#000000" d="M271,119.3c0,5.4-1.2,9.8-2.6,9.8s-2.6-4.4-2.6-9.8
	c0-5.4,1.2-9.8,2.6-9.8S271,113.9,271,119.3z"/>
<g id="g16443_1_" transform="matrix(-0.8012258,0,0,0.7998615,301.5918,-29.593852)">
	
		<radialGradient id="path16453_2_" cx="-354.9577" cy="1979.7167" r="16.4991" gradientTransform="matrix(-0.2104 0 0 0.844 273.8615 -1501.6921)" gradientUnits="userSpaceOnUse">
		<stop  offset="0" style="stop-color:#E6E6E6"/>
		<stop  offset="0.5" style="stop-color:#B7C6DE"/>
		<stop  offset="1" style="stop-color:#213756"/>
	</radialGradient>
	<path id="path16453_1_" fill="url(#path16453_2_)" stroke="#000000" d="M348.5,148c2.9,0,5.2,9.4,5.2,21.1
		c0,11.6-2.3,21.1-5.2,21.1c-2.9,0-5.2-9.5-5.2-21.1C343.3,157.5,345.6,148,348.5,148z"/>
</g>
<radialGradient id="path14088_4_" cx="-297.5342" cy="1550.25" r="16.5032" gradientTransform="matrix(-0.1569 0 0 0.6014 -28.9921 -809.6793)" gradientUnits="userSpaceOnUse">
	<stop  offset="0" style="stop-color:#E6E6E6"/>
	<stop  offset="0.5" style="stop-color:#B7C6DE"/>
	<stop  offset="1" style="stop-color:#213756"/>
</radialGradient>
<path id="path14088_2_" fill="url(#path14088_4_)" stroke="#000000" d="M17.7,113.1c1.4,0,2.5,4.3,2.5,9.6c0,5.3-1.1,9.6-2.5,9.6
	c-1.4,0-2.5-4.3-2.5-9.6C15.2,117.4,16.3,113.1,17.7,113.1z"/>
<rect x="94.7" y="67.6" fill="none" stroke="#000000" width="98.3" height="79.4"/>
<rect x="167" y="90.5" stroke="#000000" width="20" height="3.5"/>
<linearGradient id="rect2867_4_" gradientUnits="userSpaceOnUse" x1="609.8936" y1="926.0098" x2="609.8936" y2="852.1768" gradientTransform="matrix(0.8012 0 0 0.7999 -345.0982 -672.9236)">
	<stop  offset="0" style="stop-color:#E6E6E6"/>
	<stop  offset="0.6978" style="stop-color:#B7C6DE"/>
	<stop  offset="1" style="stop-color:#213756"/>
</linearGradient>
<path id="rect2867_2_" fill="url(#rect2867_4_)" stroke="#000000" stroke-width="1.6011" d="M94.5,13c0.7-3.6,96.8-6.1,97.5-2.5
	c0.7,3.6,1,57.1,1,57.1c0,0.4-98.3,0-98.3,0C94.1,64,93.8,16.6,94.5,13z"/>
<linearGradient id="rect2867_5_" gradientUnits="userSpaceOnUse" x1="755.6133" y1="915.5928" x2="755.6133" y2="860.9287" gradientTransform="matrix(0.8012 0 0 0.7999 -345.0982 -672.9236)">
	<stop  offset="0" style="stop-color:#E6E6E6"/>
	<stop  offset="0.6978" style="stop-color:#B7C6DE"/>
	<stop  offset="1" style="stop-color:#213756"/>
</linearGradient>
<path id="rect2867_3_" fill="url(#rect2867_5_)" stroke="#000000" stroke-width="1.6011" d="M254.1,18.9c0.1-2.7,12.1-4.5,12.2-1.9
	c0.1,2.7,0.1,42.3,0.1,42.3c0,0.3-12.3,0-12.3,0C254.1,56.7,254.1,21.6,254.1,18.9z"/>
<g id="g4431_1_" transform="matrix(-0.8012258,0,0,0.7998615,310.47435,-22.579483)">
	
		<linearGradient id="path4433_2_" gradientUnits="userSpaceOnUse" x1="430.7257" y1="1303.2653" x2="437.8846" y2="1281.7885" gradientTransform="matrix(-0.6419 0 0 0.6398 540.8413 -745.3485)">
		<stop  offset="0" style="stop-color:#000000"/>
		<stop  offset="1" style="stop-color:#727272"/>
	</linearGradient>
	<path id="path4433_1_" fill="url(#path4433_2_)" stroke="#000000" stroke-width="3" d="M267,65.2c0.3,2.4,1,16.8,1.1,20.3l1.7-2.4
		l-0.4,8.8h-1.5c0,3.4,0,6.5,0,8.9c-0.8,0-2.9,8.9-3.9,0c-1-8.9,0-35.7,0.8-35.7C264.6,65.2,266.2,65.2,267,65.2z"/>
</g>
<path id="rect7400_1_" stroke="#000000" stroke-width="0.701" d="M270.2,21.3h14.5c4.4,0,7.9,3.9,7.9,8.8V92c0,4.9-3.5,8.8-7.9,8.8
	h-14.5c-4.4,0-7.5-4-7.9-8.8c-3.5-53-0.8-57.9,0-61.9C263.2,25.3,265.9,21.3,270.2,21.3z"/>
<radialGradient id="path14088_5_" cx="1028.248" cy="-1935.7852" r="16.4993" gradientTransform="matrix(7.632590e-002 0 0 -0.5362 188.3216 -934.9395)" gradientUnits="userSpaceOnUse">
	<stop  offset="0" style="stop-color:#E6E6E6"/>
	<stop  offset="0.5" style="stop-color:#E69C47"/>
	<stop  offset="1" style="stop-color:#FFB556"/>
</radialGradient>
<path id="path14088_3_" fill="url(#path14088_5_)" stroke="#000000" d="M268,103c0,4.7-0.5,8.6-1.2,8.6s-1.2-3.8-1.2-8.6
	c0-4.7,0.5-8.6,1.2-8.6C267.5,94.5,268,98.3,268,103z"/>
<g>
	<ellipse fill="#9F9F9F" stroke="#000000" stroke-width="25" cx="233.8" cy="160.7" rx="27.4" ry="26.8"/>
	<ellipse cx="234.5" cy="150" rx="2.4" ry="2.3"/>
	<ellipse cx="224.7" cy="157.3" rx="2.4" ry="2.3"/>
	<ellipse cx="227.5" cy="168.5" rx="2.4" ry="2.3"/>
	<ellipse cx="240.2" cy="168.8" rx="2.4" ry="2.3"/>
	<ellipse cx="243.3" cy="159.3" rx="2.4" ry="2.3"/>
	<ellipse cx="233.8" cy="160.7" rx="3.8" ry="3.6"/>
	<g>
		<path fill="#FFFFFF" d="M223,130.8l1.3-0.6c0.5,0.3,0.9,0.6,1.2,1c0.3,0.5,0.4,1,0.3,1.5c-0.1,0.5-0.4,0.8-0.9,1.1
			c-0.6,0.3-1.3,0.3-2.1-0.1c-0.8-0.3-1.4-0.9-1.9-1.7s-0.7-1.5-0.5-2.2c0.1-0.7,0.5-1.2,1.2-1.5c0.3-0.1,0.5-0.2,0.9-0.2l0.9,1.5
			c-0.3,0-0.5,0-0.7,0.1c-0.3,0.2-0.5,0.3-0.6,0.7s0,0.7,0.3,1c0.3,0.3,0.5,0.6,0.9,0.8c0.3,0.2,0.6,0.1,0.9,0
			c0.2-0.1,0.3-0.2,0.2-0.3c-0.1-0.1-0.2-0.1-0.3-0.1l-0.3,0.2L223,130.8z"/>
		<path fill="#FFFFFF" d="M227,128.3l0.8,1.6c-0.1,0-0.3,0-0.3,0c-0.3,0.1-0.3,0.3-0.1,0.8l0.9,1.8l-1.4,0.4l-1-2.1
			c-0.3-0.6-0.3-1.1-0.3-1.5s0.4-0.7,0.9-0.8C226.7,128.3,226.8,128.3,227,128.3z"/>
		<path fill="#FFFFFF" d="M230.9,130.3l0.6,1.5c-0.1,0-0.2,0.1-0.3,0.1c-0.6,0.1-1.1,0-1.6-0.3c-0.5-0.3-0.9-0.8-1.1-1.4
			c-0.3-0.6-0.3-1.1,0-1.6c0.3-0.5,0.6-0.8,1.2-0.8c0.6-0.1,1.2,0,1.6,0.3c0.5,0.3,0.9,0.8,1.1,1.4l0.8,1.9l-1.5,0.3l-0.7-1.8
			c-0.1-0.3-0.2-0.3-0.3-0.5c-0.2-0.1-0.3-0.2-0.4-0.1c-0.2,0-0.3,0.1-0.3,0.3c-0.1,0.2-0.1,0.3,0,0.4s0.2,0.3,0.3,0.4
			c0.2,0.2,0.3,0.1,0.4,0.1C230.7,130.4,230.8,130.3,230.9,130.3z"/>
		<path fill="#FFFFFF" d="M235.7,132.8h-1.5l-0.8-3.4c-0.2-0.6-0.1-1.1,0.2-1.5c0.2-0.3,0.3-0.4,0.6-0.5c0.3-0.2,0.5-0.2,0.9-0.2
			c0.6,0,1.1,0.2,1.6,0.6c0.5,0.4,0.8,0.9,0.9,1.5c0.2,0.6,0,1.1-0.3,1.5c-0.3,0.4-0.8,0.6-1.3,0.6c-0.1,0-0.3,0-0.4,0l-0.3-1.7
			c0.2,0.1,0.3,0.2,0.4,0.2s0.3-0.1,0.3-0.2c0.1-0.1,0.1-0.3,0.1-0.4c0-0.2-0.1-0.3-0.3-0.4c-0.2-0.1-0.3-0.2-0.4-0.2
			c-0.3,0-0.5,0.3-0.4,0.8L235.7,132.8z"/>
		<path fill="#FFFFFF" d="M240,126.2l0.1,1.7c0.3-0.2,0.5-0.2,0.8-0.2c0.4,0.1,0.7,0.3,0.9,0.6s0.4,0.7,0.4,1.2l0.2,2.5l-1.6-0.3
			l-0.2-2.1c0-0.2,0-0.3-0.1-0.3c0-0.1-0.1-0.1-0.3-0.1c-0.2,0-0.3,0.1-0.3,0.3l0.2,2.2l-1.6-0.3l-0.3-5.4L240,126.2z"/>
		<path fill="#FFFFFF" d="M244.4,126.9c0.2,0.1,0.3,0.2,0.5,0.3c0.2,0.2,0.2,0.3,0.2,0.6c0,0.2-0.1,0.3-0.3,0.4
			c-0.2,0.1-0.3,0.1-0.6,0c-0.3-0.1-0.4-0.2-0.5-0.3c-0.2-0.2-0.2-0.3-0.2-0.6c0-0.2,0.1-0.3,0.3-0.4
			C244,126.8,244.2,126.9,244.4,126.9z M245,128.9l-0.3,3.9l-1.6-0.4l0.3-3.9L245,128.9z"/>
		<path fill="#FFFFFF" d="M248.6,132.3l1.5,0.6c-0.2,0.5-0.5,0.8-0.9,1c-0.4,0.2-0.9,0.2-1.6-0.1c-0.6-0.3-1-0.7-1.4-1.2
			c-0.3-0.6-0.4-1.1-0.3-1.6c0.1-0.5,0.4-0.8,0.9-1.1c0.5-0.2,1-0.2,1.6,0.1c0.5,0.3,0.9,0.6,1.2,1c0.3,0.4,0.4,0.9,0.4,1.4
			l-1.6-0.6c-0.1-0.3-0.3-0.3-0.4-0.4c-0.2-0.1-0.3-0.1-0.4,0c-0.2,0.1-0.3,0.2-0.3,0.3c0,0.2,0,0.3,0.1,0.5
			c0.1,0.2,0.3,0.3,0.4,0.3C248.1,132.6,248.4,132.6,248.6,132.3z"/>
		<path fill="#FFFFFF" d="M254.2,133.3l-0.6,1.3c-0.2-0.1-0.3-0.2-0.4-0.2s-0.2,0.1-0.3,0.3c-0.3,0.6-0.9,0.8-1.5,0.8
			c-0.3,0-0.8-0.2-1.2-0.5L250,135l0.6-1.3h0.1c0.3,0.2,0.4,0.2,0.5,0.2c0.2,0,0.3-0.2,0.3-0.3c0.2-0.3,0.3-0.5,0.4-0.7
			c0.1-0.1,0.3-0.2,0.5-0.3c0.4-0.1,0.9,0.1,1.3,0.3L254.2,133.3z"/>
		<path fill="#FFFFFF" d="M259.5,135.9l-2.1,2.1c-0.3,0.3-0.3,0.7-0.1,0.9c0.2,0.2,0.3,0.2,0.4,0.3c0.2,0,0.3,0,0.4-0.1
			c0.1-0.1,0.2-0.3,0.2-0.4c0-0.2-0.1-0.3-0.2-0.4c-0.1-0.1-0.3-0.2-0.4-0.2l1-1c0.2,0.2,0.3,0.3,0.3,0.3c0.4,0.4,0.7,0.9,0.8,1.5
			c0.1,0.6-0.1,1-0.4,1.4c-0.3,0.3-0.9,0.5-1.5,0.4c-0.6-0.1-1.1-0.3-1.6-0.8c-0.3-0.3-0.4-0.5-0.6-0.8c-0.2-0.3-0.3-0.6-0.3-0.9
			c0-0.5,0.2-0.9,0.6-1.3l2.2-2.1L259.5,135.9z"/>
		<path fill="#FFFFFF" d="M257.6,143.3l1-0.6c0.1,0.3,0.2,0.4,0.3,0.5c0.3,0.4,0.8,0.6,1.3,0.5c-0.3-0.2-0.5-0.3-0.7-0.6
			c-0.3-0.3-0.3-0.7-0.3-1c0.1-0.3,0.3-0.6,0.6-0.8l2-1.1l0.9,1.3l-1.7,0.9c-0.2,0.1-0.3,0.3-0.1,0.4c0.1,0.2,0.3,0.2,0.5,0.1
			l1.7-0.9l0.9,1.3l-2.8,1.6c-0.5,0.3-1.1,0.3-1.6,0.2c-0.7-0.2-1.2-0.6-1.6-1.2C257.8,143.9,257.7,143.6,257.6,143.3z"/>
		<path fill="#FFFFFF" d="M261.6,149.7l-0.6-1.5l3.2-0.5c0.6-0.1,1.1,0,1.6,0.3c0.3,0.2,0.5,0.3,0.8,0.6c0.3,0.3,0.4,0.6,0.5,0.8
			c0.3,0.6,0.3,1.1,0,1.6c-0.3,0.5-0.6,0.8-1.2,0.8c-0.5,0.1-1.1-0.1-1.6-0.4c-0.5-0.3-0.9-0.8-1.1-1.3c0-0.1-0.1-0.3-0.1-0.4
			l1.6-0.3c-0.1,0.2-0.1,0.3,0,0.4s0.2,0.3,0.3,0.3c0.2,0.1,0.3,0.2,0.4,0.1c0.2,0,0.3-0.1,0.3-0.3c0.1-0.2,0.1-0.3,0-0.4
			c-0.2-0.4-0.4-0.5-0.9-0.4L261.6,149.7z"/>
		<path fill="#FFFFFF" d="M265.6,157.3l-0.6,0.1c-0.3-0.5-0.4-1.1-0.5-1.7c-0.2-1,0-1.8,0.5-2.3c0.4-0.4,1-0.6,1.8-0.6
			c0.9,0.1,1.6,0.4,2.2,1c0.6,0.6,1,1.3,1.1,2.1c0.1,0.8,0,1.4-0.4,1.8c-0.3,0.5-0.9,0.7-1.6,0.6c-0.5,0-1-0.3-1.4-0.6
			c-0.4-0.3-0.6-0.8-0.7-1.3c0-0.3,0-0.4,0.1-0.6c0.1-0.2,0.2-0.3,0.3-0.2c0.1,0,0.2,0,0.3,0.1l0.6,0.2c0.1,0,0.1,0,0.2,0
			c0.3,0,0.3-0.1,0.3-0.3c0-0.2-0.1-0.3-0.2-0.3c-0.1-0.1-0.3-0.2-0.3-0.2c-0.2,0-0.3,0.1-0.3,0.3c0,0.1,0,0.2,0.1,0.3l-1-0.4
			c0-0.1-0.1-0.2-0.1-0.3c-0.1-0.3,0-0.5,0.2-0.7c0.2-0.2,0.3-0.3,0.7-0.2c0.5,0,0.9,0.3,1.4,0.6c0.4,0.4,0.7,0.8,0.7,1.3
			c0.1,0.3,0,0.6-0.2,0.8c-0.2,0.2-0.3,0.3-0.7,0.3c-0.1,0-0.3,0-0.4-0.1l-0.5-0.2H267c-0.1,0-0.2-0.1-0.2-0.1
			c-0.2,0-0.2,0.1-0.2,0.2c0,0.2,0.2,0.3,0.4,0.5c0.3,0.2,0.6,0.3,0.9,0.3c0.5,0,0.9-0.1,1.2-0.4c0.3-0.3,0.3-0.8,0.3-1.4
			c-0.1-0.7-0.4-1.2-0.9-1.7c-0.5-0.4-1.1-0.7-1.7-0.8s-1,0.1-1.4,0.4c-0.4,0.3-0.6,0.9-0.4,1.8
			C265.2,156.3,265.4,156.8,265.6,157.3z"/>
		<path fill="#FFFFFF" d="M268.9,162.4l-1.6-0.4c0-0.2,0-0.3-0.1-0.4c-0.1-0.1-0.3-0.2-0.5-0.3c-0.8-0.3-1.4-0.7-1.6-1.3
			c-0.2-0.3-0.3-0.8-0.3-1.3v-0.2l1.6,0.4v0.1c0,0.3,0.1,0.4,0.2,0.5c0.1,0.2,0.3,0.3,0.5,0.3c0.4,0.1,0.7,0.3,0.9,0.3
			c0.2,0.1,0.3,0.3,0.5,0.4c0.3,0.3,0.4,0.8,0.4,1.3V162.4z"/>
		<path fill="#FFFFFF" d="M266.4,165l-0.2,1.4c-0.6-0.3-1-0.6-1.4-1.1c-0.3-0.5-0.4-1-0.3-1.5c0.1-0.6,0.3-0.9,0.9-1.2
			c0.4-0.3,1-0.3,1.6,0c0.6,0.2,1,0.6,1.4,1.1c0.3,0.5,0.5,1.1,0.4,1.6s-0.3,0.8-0.7,1.1c-0.3,0.3-0.8,0.3-1.3,0.3l0.2-1.4
			c0.2-0.1,0.3-0.2,0.3-0.3s0-0.3-0.1-0.4c-0.1-0.2-0.3-0.3-0.4-0.3s-0.3-0.1-0.4,0s-0.3,0.2-0.3,0.3
			C266,164.5,266.1,164.7,266.4,165z"/>
		<path fill="#FFFFFF" d="M267.6,170c-0.2,0.5-0.5,0.8-1,1c-0.5,0.2-1,0.1-1.6-0.2c-0.6-0.3-1-0.7-1.3-1.3c-0.3-0.6-0.3-1.1-0.2-1.6
			c0.2-0.5,0.5-0.8,1-1s1-0.1,1.6,0.2c0.6,0.3,1,0.8,1.3,1.3C267.7,168.9,267.8,169.4,267.6,170z M266.2,169.1
			c0.1-0.2,0-0.3-0.1-0.4c-0.1-0.2-0.2-0.3-0.3-0.3c-0.2-0.1-0.3-0.1-0.4-0.1c-0.2,0-0.3,0.2-0.3,0.3c-0.1,0.2,0,0.3,0.1,0.4
			c0.1,0.2,0.2,0.3,0.3,0.3c0.2,0.1,0.3,0.1,0.4,0.1S266.2,169.3,266.2,169.1z"/>
	</g>
</g>
<g>
	<ellipse fill="#9F9F9F" stroke="#000000" stroke-width="25" cx="76.6" cy="160.7" rx="27.4" ry="26.8"/>
	<ellipse cx="77.3" cy="150" rx="2.4" ry="2.3"/>
	<ellipse cx="67.4" cy="157.3" rx="2.4" ry="2.3"/>
	<ellipse cx="70.3" cy="168.5" rx="2.4" ry="2.3"/>
	<ellipse cx="83" cy="168.8" rx="2.4" ry="2.3"/>
	<ellipse cx="86.1" cy="159.3" rx="2.4" ry="2.3"/>
	<ellipse cx="76.6" cy="160.7" rx="3.8" ry="3.6"/>
	<g>
		<path fill="#FFFFFF" d="M65.7,130.8l1.3-0.6c0.5,0.3,0.9,0.6,1.2,1c0.3,0.5,0.4,1,0.3,1.5c-0.1,0.5-0.4,0.8-0.9,1.1
			c-0.6,0.3-1.3,0.3-2.1-0.1c-0.8-0.3-1.4-0.9-1.9-1.7s-0.7-1.5-0.5-2.2c0.1-0.7,0.5-1.2,1.2-1.5c0.3-0.1,0.5-0.2,0.9-0.2l0.9,1.5
			c-0.3,0-0.5,0-0.7,0.1c-0.3,0.2-0.5,0.3-0.6,0.7c-0.1,0.3,0,0.7,0.3,1c0.3,0.3,0.5,0.6,0.9,0.8c0.3,0.2,0.6,0.1,0.9,0
			c0.2-0.1,0.3-0.2,0.2-0.3c-0.1-0.1-0.2-0.1-0.3-0.1l-0.3,0.2L65.7,130.8z"/>
		<path fill="#FFFFFF" d="M69.8,128.3l0.8,1.6c-0.1,0-0.3,0-0.3,0c-0.3,0.1-0.3,0.3-0.1,0.8l0.9,1.8l-1.4,0.4l-1-2.1
			c-0.3-0.6-0.3-1.1-0.3-1.5s0.4-0.7,0.9-0.8C69.4,128.3,69.6,128.3,69.8,128.3z"/>
		<path fill="#FFFFFF" d="M73.7,130.3l0.6,1.5c-0.1,0-0.2,0.1-0.3,0.1c-0.6,0.1-1.1,0-1.6-0.3c-0.5-0.3-0.9-0.8-1.1-1.4
			c-0.3-0.6-0.3-1.1,0-1.6s0.6-0.8,1.2-0.8c0.6-0.1,1.2,0,1.6,0.3c0.5,0.3,0.9,0.8,1.1,1.4l0.8,1.9l-1.5,0.3l-0.7-1.8
			c-0.1-0.3-0.2-0.3-0.3-0.5c-0.2-0.1-0.3-0.2-0.4-0.1c-0.2,0-0.3,0.1-0.3,0.3c-0.1,0.2-0.1,0.3,0,0.4c0.1,0.2,0.2,0.3,0.3,0.4
			c0.2,0.2,0.3,0.1,0.4,0.1C73.5,130.4,73.6,130.3,73.7,130.3z"/>
		<path fill="#FFFFFF" d="M78.5,132.8H77l-0.8-3.4c-0.2-0.6-0.1-1.1,0.2-1.5c0.2-0.3,0.3-0.4,0.6-0.5c0.3-0.2,0.5-0.2,0.9-0.2
			c0.6,0,1.1,0.2,1.6,0.6c0.5,0.4,0.8,0.9,0.9,1.5c0.2,0.6,0,1.1-0.3,1.5c-0.3,0.4-0.8,0.6-1.3,0.6c-0.1,0-0.3,0-0.4,0l-0.3-1.7
			c0.2,0.1,0.3,0.2,0.4,0.2c0.2,0,0.3-0.1,0.3-0.2c0.1-0.1,0.1-0.3,0.1-0.4c0-0.2-0.1-0.3-0.3-0.4c-0.2-0.1-0.3-0.2-0.4-0.2
			c-0.3,0-0.5,0.3-0.4,0.8L78.5,132.8z"/>
		<path fill="#FFFFFF" d="M82.7,126.2l0.1,1.7c0.3-0.2,0.5-0.2,0.8-0.2c0.4,0.1,0.7,0.3,0.9,0.6c0.3,0.3,0.4,0.7,0.4,1.2l0.2,2.5
			l-1.6-0.3l-0.2-2.1c0-0.2,0-0.3-0.1-0.3c0-0.1-0.1-0.1-0.3-0.1c-0.2,0-0.3,0.1-0.3,0.3l0.2,2.2l-1.6-0.3l-0.3-5.4L82.7,126.2z"/>
		<path fill="#FFFFFF" d="M87.2,126.9c0.2,0.1,0.3,0.2,0.5,0.3c0.2,0.2,0.2,0.3,0.2,0.6c0,0.2-0.1,0.3-0.3,0.4
			c-0.2,0.1-0.3,0.1-0.6,0c-0.3-0.1-0.4-0.2-0.5-0.3c-0.2-0.2-0.2-0.3-0.2-0.6c0-0.2,0.1-0.3,0.3-0.4
			C86.8,126.8,86.9,126.9,87.2,126.9z M87.8,128.9l-0.3,3.9l-1.6-0.4l0.3-3.9L87.8,128.9z"/>
		<path fill="#FFFFFF" d="M91.3,132.3l1.5,0.6c-0.2,0.5-0.5,0.8-0.9,1c-0.4,0.2-0.9,0.2-1.6-0.1c-0.6-0.3-1-0.7-1.4-1.2
			c-0.3-0.6-0.4-1.1-0.3-1.6c0.1-0.5,0.4-0.8,0.9-1.1c0.5-0.2,1-0.2,1.6,0.1c0.5,0.3,0.9,0.6,1.2,1c0.3,0.4,0.4,0.9,0.4,1.4
			l-1.6-0.6c-0.1-0.3-0.3-0.3-0.4-0.4c-0.2-0.1-0.3-0.1-0.4,0c-0.2,0.1-0.3,0.2-0.3,0.3c0,0.2,0,0.3,0.1,0.5
			c0.1,0.2,0.3,0.3,0.4,0.3C90.9,132.6,91.2,132.6,91.3,132.3z"/>
		<path fill="#FFFFFF" d="M96.9,133.3l-0.6,1.3c-0.2-0.1-0.3-0.2-0.4-0.2c-0.1,0-0.2,0.1-0.3,0.3c-0.3,0.6-0.9,0.8-1.5,0.8
			c-0.3,0-0.8-0.2-1.2-0.5l-0.2-0.1l0.6-1.3h0.1c0.3,0.2,0.4,0.2,0.5,0.2c0.2,0,0.3-0.2,0.3-0.3c0.2-0.3,0.3-0.5,0.4-0.7
			c0.1-0.1,0.3-0.2,0.5-0.3c0.4-0.1,0.9,0.1,1.3,0.3L96.9,133.3z"/>
		<path fill="#FFFFFF" d="M102.3,135.9l-2.1,2.1c-0.3,0.3-0.3,0.7-0.1,0.9c0.2,0.2,0.3,0.2,0.4,0.3c0.2,0,0.3,0,0.4-0.1
			c0.1-0.1,0.2-0.3,0.2-0.4c0-0.2-0.1-0.3-0.2-0.4c-0.1-0.1-0.3-0.2-0.4-0.2l1-1c0.2,0.2,0.3,0.3,0.3,0.3c0.4,0.4,0.7,0.9,0.8,1.5
			c0.1,0.6-0.1,1-0.4,1.4c-0.3,0.3-0.9,0.5-1.5,0.4c-0.6-0.1-1.1-0.3-1.6-0.8c-0.3-0.3-0.4-0.5-0.6-0.8c-0.2-0.3-0.3-0.6-0.3-0.9
			c0-0.5,0.2-0.9,0.6-1.3l2.2-2.1L102.3,135.9z"/>
		<path fill="#FFFFFF" d="M100.4,143.3l1-0.6c0.1,0.3,0.2,0.4,0.3,0.5c0.3,0.4,0.8,0.6,1.3,0.5c-0.3-0.2-0.5-0.3-0.7-0.6
			c-0.3-0.3-0.3-0.7-0.3-1c0.1-0.3,0.3-0.6,0.6-0.8l2-1.1l0.9,1.3l-1.7,0.9c-0.2,0.1-0.3,0.3-0.1,0.4c0.1,0.2,0.3,0.2,0.5,0.1
			l1.7-0.9l0.9,1.3l-2.8,1.6c-0.5,0.3-1.1,0.3-1.6,0.2c-0.7-0.2-1.2-0.6-1.6-1.2C100.6,143.9,100.5,143.6,100.4,143.3z"/>
		<path fill="#FFFFFF" d="M104.3,149.7l-0.6-1.5l3.2-0.5c0.6-0.1,1.1,0,1.6,0.3c0.3,0.2,0.5,0.3,0.8,0.6c0.3,0.3,0.4,0.6,0.5,0.8
			c0.3,0.6,0.3,1.1,0,1.6s-0.6,0.8-1.2,0.8c-0.5,0.1-1.1-0.1-1.6-0.4c-0.5-0.3-0.9-0.8-1.1-1.3c0-0.1-0.1-0.3-0.1-0.4l1.6-0.3
			c-0.1,0.2-0.1,0.3,0,0.4s0.2,0.3,0.3,0.3c0.2,0.1,0.3,0.2,0.4,0.1c0.2,0,0.3-0.1,0.3-0.3c0.1-0.2,0.1-0.3,0-0.4
			c-0.2-0.4-0.4-0.5-0.9-0.4L104.3,149.7z"/>
		<path fill="#FFFFFF" d="M108.4,157.3l-0.6,0.1c-0.3-0.5-0.4-1.1-0.5-1.7c-0.2-1,0-1.8,0.5-2.3c0.4-0.4,1-0.6,1.8-0.6
			c0.9,0.1,1.6,0.4,2.2,1c0.6,0.6,1,1.3,1.1,2.1c0.1,0.8,0,1.4-0.4,1.8c-0.3,0.5-0.9,0.7-1.6,0.6c-0.5,0-1-0.3-1.4-0.6
			c-0.4-0.3-0.6-0.8-0.7-1.3c0-0.3,0-0.4,0.1-0.6c0.1-0.2,0.2-0.3,0.3-0.2c0.1,0,0.2,0,0.3,0.1l0.6,0.2c0.1,0,0.1,0,0.2,0
			c0.3,0,0.3-0.1,0.3-0.3c0-0.2-0.1-0.3-0.2-0.3c-0.1-0.1-0.3-0.2-0.3-0.2c-0.2,0-0.3,0.1-0.3,0.3c0,0.1,0,0.2,0.1,0.3l-1-0.4
			c0-0.1-0.1-0.2-0.1-0.3c-0.1-0.3,0-0.5,0.2-0.7c0.2-0.2,0.3-0.3,0.7-0.2c0.5,0,0.9,0.3,1.4,0.6c0.4,0.4,0.7,0.8,0.7,1.3
			c0.1,0.3,0,0.6-0.2,0.8c-0.2,0.2-0.3,0.3-0.7,0.3c-0.1,0-0.3,0-0.4-0.1l-0.5-0.2h-0.1c-0.1,0-0.2-0.1-0.2-0.1
			c-0.2,0-0.2,0.1-0.2,0.2c0,0.2,0.2,0.3,0.4,0.5c0.3,0.2,0.6,0.3,0.9,0.3c0.5,0,0.9-0.1,1.2-0.4c0.3-0.3,0.3-0.8,0.3-1.4
			c-0.1-0.7-0.4-1.2-0.9-1.7c-0.5-0.4-1.1-0.7-1.7-0.8s-1,0.1-1.4,0.4c-0.4,0.3-0.6,0.9-0.4,1.8C108,156.3,108.1,156.8,108.4,157.3z
			"/>
		<path fill="#FFFFFF" d="M111.7,162.4L110,162c0-0.2,0-0.3-0.1-0.4c-0.1-0.1-0.3-0.2-0.5-0.3c-0.8-0.3-1.4-0.7-1.6-1.3
			c-0.2-0.3-0.3-0.8-0.3-1.3v-0.2l1.6,0.4v0.1c0,0.3,0.1,0.4,0.2,0.5c0.1,0.2,0.3,0.3,0.5,0.3c0.4,0.1,0.7,0.3,0.9,0.3
			c0.2,0.1,0.3,0.3,0.5,0.4c0.3,0.3,0.4,0.8,0.4,1.3V162.4z"/>
		<path fill="#FFFFFF" d="M109.2,165l-0.2,1.4c-0.6-0.3-1-0.6-1.4-1.1c-0.3-0.5-0.4-1-0.3-1.5c0.1-0.6,0.3-0.9,0.9-1.2
			c0.4-0.3,1-0.3,1.6,0c0.6,0.2,1,0.6,1.4,1.1s0.5,1.1,0.4,1.6s-0.3,0.8-0.7,1.1c-0.3,0.3-0.8,0.3-1.3,0.3l0.2-1.4
			c0.2-0.1,0.3-0.2,0.3-0.3s0-0.3-0.1-0.4c-0.1-0.2-0.3-0.3-0.4-0.3c-0.2-0.1-0.3-0.1-0.4,0s-0.3,0.2-0.3,0.3
			C108.7,164.5,108.8,164.7,109.2,165z"/>
		<path fill="#FFFFFF" d="M110.4,170c-0.2,0.5-0.5,0.8-1,1c-0.5,0.2-1,0.1-1.6-0.2c-0.6-0.3-1-0.7-1.3-1.3c-0.3-0.6-0.3-1.1-0.2-1.6
			c0.2-0.5,0.5-0.8,1-1s1-0.1,1.6,0.2c0.6,0.3,1,0.8,1.3,1.3S110.6,169.4,110.4,170z M108.9,169.1c0.1-0.2,0-0.3-0.1-0.4
			c-0.1-0.2-0.2-0.3-0.3-0.3c-0.2-0.1-0.3-0.1-0.4-0.1c-0.2,0-0.3,0.2-0.3,0.3c-0.1,0.2,0,0.3,0.1,0.4c0.1,0.2,0.2,0.3,0.3,0.3
			c0.2,0.1,0.3,0.1,0.4,0.1S108.9,169.3,108.9,169.1z"/>
	</g>
</g>
<g>
	<ellipse fill="none" stroke="#FFFFFF" cx="169.6" cy="120.3" rx="17.6" ry="17.3"/>
	<g>
		<path fill="#FFFFFF" d="M169.4,120c2,5,1.1,8.6-2.3,10c-3.1,1.2-6.2-0.6-8.2-5.5c-2-5-0.8-8.6,2.4-9.9
			C164.5,113.3,167.5,115.3,169.4,120z M161,123.7c1.5,3.9,3.7,5.5,5.6,4.8c2.2-0.9,2.3-3.7,0.8-7.5c-1.4-3.6-3.4-5.6-5.6-4.8
			C159.9,116.9,159.4,119.6,161,123.7z"/>
		<path fill="#FFFFFF" d="M173.8,112L173.8,112l-2.2,2.5l-1-1.4l2.7-3.1l1.8-0.7l5.9,14.8l-2.1,0.8L173.8,112z"/>
	</g>
</g>
<g>
	<path fill="none" stroke="#000000" d="M248.8,112.2c0,2-1.9,3.7-4.1,3.7h-11c-2.3,0-4.1-1.6-4.1-3.7v-9.3c0-2,1.9-3.7,4.1-3.7h11
		c2.3,0,4.1,1.6,4.1,3.7V112.2z"/>
	<g>
		<line fill="none" stroke="#000000" x1="244.7" y1="110.8" x2="247.4" y2="111.7"/>
		<line fill="none" stroke="#000000" x1="244.3" y1="112.1" x2="246.9" y2="113"/>
		<line fill="none" stroke="#000000" x1="243.6" y1="113.5" x2="246.3" y2="114.3"/>
	</g>
</g>
<g>
	<g>
		
			<rect x="71.1" y="85.3" transform="matrix(0.9754 -0.2206 0.2206 0.9754 -18.9228 26.2025)" fill="#FFFFFF" stroke="#42BF00" width="73.5" height="25"/>
		<circle fill="#FFFFFF" stroke="#42BF00" cx="108.3" cy="97.3" r="20.5"/>
		
			<rect x="72.1" y="86.1" transform="matrix(0.9754 -0.2206 0.2206 0.9754 -18.8972 26.1946)" fill="#FFFFFF" stroke="#FFFC00" width="71.5" height="23.3"/>
		<circle fill="#FFFFFF" stroke="#FFFC00" cx="108.1" cy="97.4" r="19.5"/>
		<polygon fill="#FFFFFF" points="144.6,100.6 76,116.3 70.7,94.3 139.7,79.2 		"/>
	</g>
	<g>
		
			<rect x="112.9" y="106.6" transform="matrix(0.9753 -0.2208 0.2208 0.9753 -21.4954 28.0065)" fill="#E00000" width="3.3" height="7"/>
		
			<rect x="105.8" y="108.2" transform="matrix(0.9754 -0.2205 0.2205 0.9754 -21.9988 26.4475)" fill="#369600" width="3.3" height="7"/>
		
			<rect id="rect1872_1_" x="105.6" y="107.4" transform="matrix(-0.9754 0.2206 -0.2206 -0.9754 243.7559 194.67)" fill="none" stroke="#000000" stroke-width="0.25" width="10.7" height="7"/>
	</g>
	<g>
		
			<rect id="rect2760" x="99.6" y="83.7" transform="matrix(-0.9754 0.2206 -0.2206 -0.9754 226.0618 144.0066)" fill="#003580" width="10.8" height="1.9"/>
		
			<rect id="rect3647" x="100" y="84.1" transform="matrix(-0.2207 -0.9753 0.9753 -0.2207 43.524 204.6827)" fill="#003580" width="7" height="1.8"/>
		
			<rect id="rect1872" x="99.6" y="81.1" transform="matrix(-0.9754 0.2206 -0.2206 -0.9754 226.0617 144.0056)" fill="none" stroke="#000000" stroke-width="0.25" width="10.8" height="7"/>
	</g>
	<g>
		<path d="M75.9,103.9c0.3,0.1,0.9,0.2,1.5,0.1c0.7-0.2,1-0.6,0.9-1.1c-0.1-0.5-0.5-0.7-1.3-0.8c-1.1-0.1-1.7-0.6-1.9-1.3
			c-0.2-0.9,0.4-1.8,1.6-2.1c0.6-0.1,1.1-0.1,1.5,0l-0.1,0.8c-0.3-0.1-0.7-0.2-1.2-0.1c-0.6,0.1-0.9,0.6-0.8,1
			c0.1,0.5,0.5,0.6,1.3,0.7c1.1,0.2,1.7,0.5,1.9,1.4c0.2,1-0.4,1.9-1.7,2.2c-0.6,0.1-1.2,0.1-1.7,0L75.9,103.9z"/>
		<path d="M80,98.2l2,3.1c0.2,0.3,0.5,0.8,0.6,1.1l0,0c0-0.4,0-0.8,0.1-1.3l0.4-3.6l1.1-0.2l-0.6,4.4c-0.3,2.1-0.6,3.2-1.1,4
			c-0.4,0.6-0.9,0.8-1.1,1l-0.5-0.8c0.2-0.1,0.5-0.4,0.8-0.7c0.2-0.3,0.5-0.8,0.6-1.3c0-0.1,0-0.2,0-0.3c0-0.1-0.1-0.1-0.1-0.3
			l-3.3-4.7L80,98.2z"/>
		<path d="M85.5,98.5c-0.1-0.6-0.3-1.1-0.4-1.5l0.9-0.2l0.3,0.9l0,0c0.2-0.6,0.6-1.2,1.5-1.4c0.8-0.2,1.5,0.2,1.9,0.8l0,0
			c0.1-0.4,0.3-0.7,0.5-0.9c0.3-0.3,0.6-0.6,1.2-0.7c0.7-0.2,2,0.1,2.4,2l0.8,3.3l-1,0.2l-0.7-3.2c-0.2-1.1-0.8-1.7-1.6-1.5
			c-0.6,0.1-0.9,0.7-1,1.2c0,0.2,0,0.3,0,0.5l0.8,3.5l-1,0.2l-0.8-3.4c-0.2-0.9-0.8-1.5-1.5-1.3c-0.6,0.1-1,0.8-1,1.3
			c0,0.2,0,0.3,0,0.5l0.8,3.4l-1,0.2L85.5,98.5z"/>
		<path d="M94.3,92.2l1-0.2l0.8,3.6l0,0c0.2-0.7,0.8-1.3,1.7-1.5c1.4-0.3,2.7,0.6,3,2.3c0.5,2-0.6,3.3-1.9,3.6
			c-0.8,0.2-1.5,0-2.1-0.6l0,0l0.2,0.9l-0.9,0.2c-0.1-0.4-0.2-1-0.3-1.5L94.3,92.2z M96.7,98c0,0.1,0.1,0.3,0.1,0.4
			c0.4,0.7,1.1,1,1.8,0.9c1.1-0.2,1.5-1.3,1.2-2.6c-0.3-1.1-1.1-2-2.2-1.7c-0.7,0.2-1.2,0.8-1.3,1.6c0,0.1,0,0.3,0,0.4L96.7,98z"/>
		<path d="M102.3,91.4c0.1,0.3-0.1,0.7-0.5,0.8c-0.4,0.1-0.7-0.1-0.8-0.5c-0.1-0.4,0.1-0.7,0.5-0.8C102,90.9,102.3,91.1,102.3,91.4z
			 M102.8,99l-1.3-5.7l1-0.2l1.3,5.7L102.8,99z"/>
		<path d="M109.2,96.1c0.1,0.5,0.2,1,0.4,1.3l-0.9,0.2l-0.2-0.7l0,0c-0.2,0.5-0.7,1.1-1.5,1.2c-1.1,0.3-1.9-0.4-2.1-1.2
			c-0.3-1.4,0.7-2.4,2.9-2.9l0-0.1c-0.1-0.5-0.4-1.3-1.6-1c-0.5,0.1-1,0.4-1.4,0.8l-0.4-0.6c0.4-0.4,1-0.8,1.7-0.9
			c1.7-0.4,2.4,0.7,2.7,1.8L109.2,96.1z M107.9,94.8c-1.1,0.2-2.4,0.7-2.1,1.8c0.2,0.7,0.7,0.9,1.2,0.8c0.7-0.2,1.1-0.7,1.2-1.3
			c0-0.1,0-0.2,0-0.3L107.9,94.8z"/>
		<path d="M110.3,92.9c-0.1-0.6-0.3-1.1-0.4-1.5l0.9-0.2l0.3,0.9l0,0c0.2-0.6,0.7-1.3,1.6-1.5c0.8-0.2,2.1,0,2.5,2L116,96l-1,0.2
			l-0.7-3.3c-0.2-0.9-0.7-1.6-1.7-1.4c-0.7,0.2-1.1,0.8-1.1,1.4c0,0.1,0,0.3,0,0.5l0.8,3.4l-1,0.2L110.3,92.9z"/>
		<path d="M119.3,91.1c-0.2-0.7-0.3-1.2-0.4-1.8l0.9-0.2l0.3,1.1l0,0c0.1-0.8,0.6-1.4,1.3-1.6c0.1,0,0.2,0,0.3,0l0.2,1
			c-0.1,0-0.2,0-0.4,0c-0.7,0.2-1.1,0.8-1.1,1.6c0,0.1,0,0.3,0.1,0.5l0.7,3l-1,0.2L119.3,91.1z"/>
		<path d="M127.6,91.9c0.1,0.5,0.2,1,0.4,1.3l-0.9,0.2l-0.2-0.7l0,0c-0.2,0.5-0.7,1.1-1.5,1.2c-1.1,0.3-1.9-0.4-2.1-1.2
			c-0.3-1.4,0.7-2.4,2.9-2.9l0-0.1c-0.1-0.5-0.4-1.3-1.6-1c-0.5,0.1-1,0.4-1.4,0.8l-0.4-0.6c0.4-0.4,1-0.8,1.7-0.9
			c1.7-0.4,2.4,0.7,2.7,1.8L127.6,91.9z M126.3,90.6c-1.1,0.2-2.4,0.7-2.1,1.8c0.2,0.7,0.7,0.9,1.2,0.8c0.7-0.2,1.1-0.7,1.2-1.3
			c0-0.1,0-0.2,0-0.3L126.3,90.6z"/>
		<path d="M127.7,84.6l1-0.2l1.9,8.3l-1,0.2L127.7,84.6z"/>
		<path d="M130.5,84l1-0.2l1.9,8.3l-1,0.2L130.5,84z"/>
		<path d="M134.2,85.9l2,3.1c0.2,0.3,0.5,0.8,0.6,1.1l0,0c0-0.4,0-0.8,0.1-1.3l0.4-3.6l1.1-0.2l-0.6,4.4c-0.3,2.1-0.6,3.2-1.1,4
			c-0.4,0.6-0.9,0.8-1.1,1l-0.5-0.8c0.2-0.1,0.5-0.4,0.8-0.7c0.2-0.3,0.5-0.8,0.6-1.3c0-0.1,0-0.2,0-0.3c0-0.1-0.1-0.1-0.1-0.3
			l-3.3-4.7L134.2,85.9z"/>
	</g>
	<g>
		<path d="M102.4,106.7l-0.1-0.4l0.4-0.6c1-1.5,1.5-2.3,1.3-3.1c-0.1-0.5-0.5-0.9-1.2-0.8c-0.5,0.1-0.8,0.4-1,0.7l-0.3-0.4
			c0.3-0.4,0.7-0.7,1.3-0.8c1.1-0.2,1.7,0.4,1.9,1.1c0.2,0.9-0.3,1.8-1.1,3.1l-0.3,0.5l0,0l2.3-0.5l0.1,0.6L102.4,106.7z"/>
		<path d="M109.2,102.5c0.4,1.7,0,2.8-1.2,3.1c-1,0.2-1.9-0.6-2.3-2.2c-0.4-1.7,0.1-2.8,1.2-3C108,100.1,108.8,100.9,109.2,102.5z
			 M106.5,103.2c0.3,1.3,0.9,2,1.5,1.8c0.7-0.2,0.9-1.1,0.6-2.3c-0.3-1.2-0.8-2-1.5-1.8C106.4,101,106.2,101.8,106.5,103.2z"/>
		<path d="M113.2,101.6c0.4,1.7,0,2.8-1.2,3.1c-1,0.2-1.9-0.6-2.3-2.2c-0.4-1.7,0.1-2.8,1.2-3C112,99.1,112.8,100,113.2,101.6z
			 M110.5,102.3c0.3,1.3,0.9,2,1.5,1.8c0.7-0.2,0.9-1.1,0.6-2.3c-0.3-1.2-0.8-2-1.5-1.8C110.4,100.1,110.2,100.9,110.5,102.3z"/>
		<path d="M116.6,98.2l0.1,0.5l-1.2,5.1l-0.7,0.2l1.2-5l0,0l-2.5,0.6l-0.1-0.6L116.6,98.2z"/>
	</g>
	<g>
		<path d="M76.3,109.9c0.3-0.1,0.7-0.2,1.1-0.3c0.7-0.2,1.3-0.1,1.7,0.1c0.4,0.2,0.7,0.7,0.9,1.3c0.1,0.6,0.1,1.2-0.2,1.7
			c-0.3,0.5-0.8,0.8-1.6,1c-0.4,0.1-0.7,0.1-0.9,0.2L76.3,109.9z M77.6,113.3c0.1,0,0.3,0,0.5-0.1c1.1-0.2,1.5-1,1.3-2.1
			c-0.2-0.9-0.9-1.4-1.9-1.2c-0.3,0.1-0.5,0.1-0.6,0.2L77.6,113.3z"/>
		<path d="M80.6,111c-0.1-0.3-0.1-0.6-0.2-0.9l0.5-0.1l0.1,0.6l0,0c0-0.4,0.3-0.7,0.6-0.8c0.1,0,0.1,0,0.2,0l0.1,0.5
			c-0.1,0-0.1,0-0.2,0c-0.4,0.1-0.6,0.4-0.5,0.8c0,0.1,0,0.2,0,0.2l0.3,1.5l-0.5,0.1L80.6,111z"/>
		<path d="M82.9,108.4l0.5-0.1l0.6,2.6c0.2,1-0.2,1.5-0.9,1.6c-0.2,0-0.4,0.1-0.6,0l0-0.4c0.1,0,0.3,0,0.4,0
			c0.5-0.1,0.7-0.4,0.5-1.1L82.9,108.4z"/>
		<path d="M87.3,110.7c0.1,0.3,0.1,0.5,0.2,0.8l-0.5,0.1l-0.1-0.5l0,0c-0.1,0.3-0.3,0.6-0.8,0.7c-0.4,0.1-1,0-1.3-1l-0.4-1.7
			l0.5-0.1l0.4,1.6c0.1,0.5,0.4,0.9,0.8,0.8c0.3-0.1,0.5-0.4,0.6-0.6c0-0.1,0-0.2,0-0.3l-0.4-1.7l0.5-0.1L87.3,110.7z"/>
		<path d="M88.5,109.6L88.5,109.6c0.1-0.1,0.1-0.3,0.2-0.4l0.6-1.2l0.6-0.1l-0.8,1.4l1.6,1.4l-0.6,0.1l-1.3-1.1l-0.2,0.4l0.2,1.1
			l-0.5,0.1l-0.9-4.2l0.5-0.1L88.5,109.6z"/>
		<path d="M91.3,109L91.3,109c0.1-0.1,0.1-0.3,0.2-0.4l0.6-1.2l0.6-0.1l-0.8,1.4l1.6,1.4l-0.6,0.1l-1.3-1.1l-0.2,0.4l0.2,1.1
			l-0.5,0.1l-0.9-4.2l0.5-0.1L91.3,109z"/>
		<path d="M95.9,108.9c0.1,0.2,0.1,0.5,0.2,0.7l-0.5,0.1l-0.1-0.3l0,0c-0.1,0.3-0.4,0.5-0.8,0.6c-0.6,0.1-1-0.2-1-0.6
			c-0.2-0.7,0.4-1.2,1.5-1.4l0-0.1c-0.1-0.2-0.2-0.6-0.8-0.5c-0.3,0.1-0.5,0.2-0.7,0.4l-0.2-0.3c0.2-0.2,0.5-0.4,0.9-0.5
			c0.9-0.2,1.2,0.3,1.3,0.9L95.9,108.9z M95.2,108.2c-0.6,0.1-1.2,0.4-1.1,0.9c0.1,0.3,0.3,0.4,0.6,0.4c0.4-0.1,0.5-0.4,0.6-0.6
			c0-0.1,0-0.1,0-0.2L95.2,108.2z"/>
	</g>
	<g>
		<path d="M126.1,100.6c-0.1-0.4-0.2-0.7-0.2-0.9l0.5-0.1l0.1,0.5l0,0c0.1-0.4,0.4-0.7,0.9-0.8c0.7-0.2,1.3,0.3,1.5,1.2
			c0.2,1-0.3,1.7-0.9,1.8c-0.4,0.1-0.7,0-1-0.2l0,0l0.3,1.5l-0.5,0.1L126.1,100.6z M126.8,101.2c0,0.1,0,0.1,0.1,0.2
			c0.2,0.3,0.5,0.5,0.9,0.4c0.5-0.1,0.8-0.6,0.6-1.3c-0.1-0.6-0.5-1-1.1-0.9c-0.4,0.1-0.6,0.4-0.6,0.8c0,0.1,0,0.1,0,0.2
			L126.8,101.2z"/>
		<path d="M132.6,101.5c-0.3,0.2-0.6,0.4-1,0.5c-1,0.2-1.9-0.3-2.2-1.4c-0.3-1.2,0.3-2.4,1.6-2.7c1-0.2,1.9,0.3,2.1,1.3
			c0.2,0.9-0.2,1.5-0.7,1.6c-0.2,0.1-0.5-0.1-0.5-0.4l0,0c-0.1,0.4-0.4,0.6-0.7,0.7c-0.3,0.1-0.7-0.1-0.8-0.6
			c-0.2-0.7,0.3-1.5,1.1-1.7c0.3-0.1,0.5-0.1,0.7,0l0,1.1c0,0.5,0.1,0.7,0.3,0.6c0.3-0.1,0.5-0.5,0.4-1.2c-0.2-0.8-0.8-1.3-1.7-1.1
			c-1,0.2-1.6,1.2-1.3,2.3c0.2,1,1,1.4,1.9,1.2c0.3-0.1,0.6-0.2,0.8-0.4L132.6,101.5z M131.7,99.1c-0.1,0-0.2,0-0.3,0
			c-0.5,0.1-0.8,0.7-0.7,1.3c0.1,0.3,0.2,0.4,0.5,0.4c0.3-0.1,0.6-0.6,0.5-1L131.7,99.1z"/>
		<path d="M134,100.3c0.2,0.1,0.5,0.1,0.7,0.1c0.4-0.1,0.5-0.3,0.5-0.5c-0.1-0.2-0.2-0.3-0.6-0.4c-0.5-0.1-0.9-0.3-0.9-0.6
			c-0.1-0.5,0.2-0.9,0.8-1.1c0.3-0.1,0.6,0,0.7,0l0,0.4c-0.1,0-0.4-0.1-0.6,0c-0.3,0.1-0.4,0.3-0.4,0.5c0.1,0.2,0.2,0.3,0.6,0.4
			c0.5,0.1,0.8,0.3,0.9,0.7c0.1,0.5-0.2,0.9-0.9,1.1c-0.3,0.1-0.6,0.1-0.8,0L134,100.3z"/>
		<path d="M138.5,99.7c-0.1,0.1-0.4,0.3-0.8,0.4c-0.9,0.2-1.5-0.3-1.7-1.1c-0.2-0.9,0.3-1.6,1.2-1.8c0.3-0.1,0.6-0.1,0.7,0l0,0.4
			c-0.1,0-0.3-0.1-0.6,0c-0.7,0.1-0.9,0.7-0.8,1.3c0.1,0.7,0.7,1,1.2,0.8c0.3-0.1,0.5-0.2,0.6-0.3L138.5,99.7z"/>
		<path d="M141.3,97.6c0.2,1-0.4,1.7-1.1,1.8c-0.8,0.2-1.5-0.3-1.7-1.1c-0.2-0.9,0.3-1.6,1.1-1.8C140.4,96.3,141.1,96.8,141.3,97.6z
			 M139.1,98.2c0.1,0.6,0.6,1,1.1,0.9c0.5-0.1,0.8-0.7,0.6-1.3c-0.1-0.5-0.5-1-1.1-0.9C139.1,97,139,97.6,139.1,98.2z"/>
	</g>
</g>
</svg>
