<?xml version="1.0" encoding="UTF-8"?>
<!DOCTYPE svg PUBLIC "-//W3C//DTD SVG 1.1 Tiny//EN" "http://www.w3.org/Graphics/SVG/1.1/DTD/svg11-tiny.dtd">
<svg baseProfile="tiny" xmlns="http://www.w3.org/2000/svg" width="64px" height="64px">
<defs/>
<metadata/>
<g>
<rect style="opacity:1;fill:#000000;fill-opacity:1" width="7.7567673" height="25.617912" x="51.424244" y="23.382088"/>
<rect style="opacity:1;fill:#000000;fill-opacity:1" width="7.7567673" height="25.890635" x="3.6319201" y="22.2946"/>
<path style="opacity:1;fill:#0000ff;fill-opacity:1" d="M 43.090909 37.18182 A 8.454545 6.4545455 0 1 1  26.181819,37.18182 A 8.454545 6.4545455 0 1 1  43.090909 37.18182 z" transform="matrix(2.4676703,0,0,1.9924813,-54.690519,-57.22352)"/>
<path style="opacity:1;fill:#ff0000;fill-opacity:1" d="M 52.181818 19.454546 A 20.454546 6.181818 0 1 1  11.272726,19.454546 A 20.454546 6.181818 0 1 1  52.181818 19.454546 z" transform="matrix(1.4711111,0,0,1.9924813,-15.492524,-11.939854)"/>
<rect style="opacity:1;fill:#000000;fill-opacity:1" width="1.0909091" height="9.272727" x="20" y="23.454546"/>
<rect style="opacity:1;fill:#808080;fill-opacity:1" width="1.0909091" height="9.272727" x="21.81818" y="23.363638"/>
<rect style="opacity:1;fill:#808080;fill-opacity:1" width="1.0909091" height="9.272727" x="23.90909" y="23.181818"/>
<rect style="opacity:1;fill:#808080;fill-opacity:1" width="1.0909091" height="9.272727" x="26" y="23.363636"/>
<rect style="opacity:1;fill:#808080;fill-opacity:1" width="1.0909091" height="9.272727" x="27.999998" y="23.363636"/>
<rect style="opacity:1;fill:#808080;fill-opacity:1" width="1.0909091" height="9.272727" x="30" y="23.363636"/>
<rect style="opacity:1;fill:#808080;fill-opacity:1" width="1.0909091" height="9.272727" x="32" y="23.363638"/>
<rect style="opacity:1;fill:#808080;fill-opacity:1" width="1.0909091" height="9.272727" x="33.909092" y="23.363636"/>
<rect style="opacity:1;fill:#808080;fill-opacity:1" width="1.0909091" height="9.272727" x="36" y="23.363634"/>
<rect style="opacity:1;fill:#808080;fill-opacity:1" width="1.0909091" height="9.272727" x="37.81818" y="23.545454"/>
<rect style="opacity:1;fill:#808080;fill-opacity:1" width="1.0909091" height="9.272727" x="40" y="23.363636"/>
<rect style="opacity:1;fill:#000000;fill-opacity:1" width="1.0909091" height="9.272727" x="42" y="23.363636"/>
<path style="fill:none;fill-rule:evenodd;stroke:#000000;stroke-width:1px;stroke-linecap:butt;stroke-linejoin:miter;stroke-opacity:1" d="M 42.727273,24 C 20,23.818182 20,23.818182 20,23.818182 L 42.727273,24 z "/>
<path style="fill:none;fill-rule:evenodd;stroke:#000000;stroke-width:1px;stroke-linecap:butt;stroke-linejoin:miter;stroke-opacity:1" d="M 43.227273,32.454545 C 20.5,32.272727 20.5,32.272727 20.5,32.272727 L 43.227273,32.454545 z "/>
<path style="opacity:1;fill:#4d4d4d;fill-opacity:1" d="M 14.545455 27 A 5 2.6363637 0 1 1  4.545455,27 A 5 2.6363637 0 1 1  14.545455 27 z"/>
<path style="opacity:1;fill:#4d4d4d;fill-opacity:1" d="M 14.545455 27 A 5 2.6363637 0 1 1  4.545455,27 A 5 2.6363637 0 1 1  14.545455 27 z" transform="translate(43.545454,-0.3636363)"/>
<rect style="opacity:1;fill:#28170b;fill-opacity:1" width="64.545456" height="3.6363637" x="0" y="48.363636"/>
</g>
</svg>
