<?xml version="1.0" encoding="UTF-8"?>
<!DOCTYPE svg PUBLIC "-//W3C//DTD SVG 1.1 Tiny//EN" "http://www.w3.org/Graphics/SVG/1.1/DTD/svg11-tiny.dtd">
<svg baseProfile="tiny" xmlns="http://www.w3.org/2000/svg" width="64px" height="64px">
<defs/>
<metadata/>
<g>
<rect style="opacity:1;fill:#00ff00;fill-opacity:1" width="59.63636" height="10.909091" x="-39.05336" y="44.815159" transform="matrix(0.4897886,-0.8718412,0.8718412,0.4897886,0,0)"/>
<path style="opacity:1;fill:#00ff00;fill-opacity:1" d="M 21.090909 14.272727 A 4.5454545 4.818182 0 1 1  12,14.272727 A 4.5454545 4.818182 0 1 1  21.090909 14.272727 z" transform="matrix(1.2,0,0,1.1509433,34.509091,-10.51801)"/>
<path style="opacity:1;fill:#00ff00;fill-opacity:1" d="M 14 37 A 4.818182 4.6363635 0 1 1  4.363636,37 A 4.818182 4.6363635 0 1 1  14 37 z" transform="matrix(1.2452828,0,0,1.0392157,13.293312,19.821747)"/>
<rect style="opacity:1;fill:#00ff00;fill-opacity:1" width="10.181818" height="20.727272" x="2.5967016" y="16.191931" transform="matrix(0.7826923,-0.6224089,0.6224089,0.7826923,0,0)"/>
<path style="opacity:1;fill:#00ff00;fill-opacity:1" d="M 18 30.454546 A 4.6363635 4.6363635 0 1 1  8.7272725,30.454546 A 4.6363635 4.6363635 0 1 1  18 30.454546 z" transform="matrix(1.0588236,0,0,1.0980393,15.032085,-8.9857402)"/>
<path style="opacity:1;fill:#00ff00;fill-opacity:1" d="M 18 30.454546 A 4.6363635 4.6363635 0 1 1  8.7272725,30.454546 A 4.6363635 4.6363635 0 1 1  18 30.454546 z" transform="matrix(1.0588236,0,0,1.0980393,1.6684486,-25.985742)"/>
<text style="font-size:9.48787498px;font-style:normal;font-weight:normal;fill:#000000;fill-opacity:1;stroke:none;stroke-width:1px;stroke-linecap:butt;stroke-linejoin:miter;stroke-opacity:1;font-family:Bitstream Vera Sans" x="-26.244936" y="67.152534" transform="matrix(0.6130279,-1.1062756,0.691574,0.3832265,0,0)"/>
</g>
</svg>
