<?xml version="1.0" encoding="iso-8859-1"?>
<!-- Generator: Adobe Illustrator 13.0.0, SVG Export Plug-In . SVG Version: 6.00 Build 14948)  -->
<!DOCTYPE svg PUBLIC "-//W3C//DTD SVG 1.1//EN" "http://www.w3.org/Graphics/SVG/1.1/DTD/svg11.dtd">
<svg version="1.1" id="Livello_1" xmlns="http://www.w3.org/2000/svg" xmlns:xlink="http://www.w3.org/1999/xlink" x="0px" y="0px"
	 width="72px" height="72px" viewBox="0 0 72 72" enable-background="new 0 0 72 72" xml:space="preserve">
<g>
	<g>
		<rect x="4" y="-5" fill="none" width="72" height="72"/>
		<g>
			<path fill="#D6AB00" d="M24.7,7.6l0.2-0.2c-0.7,0.5-1,1.2-1.1,2c0,0-0.6,6.2-0.8,8.3c-1.7-0.6-4.9-1.7-4.9-1.7
				c-1.5-0.6-3.1,0.5-4.2,1.2c-2,1.5-1.6,2.4-1.6,2.4c0,0.2,0.4,1.6,6.8,22.7c0.4,1.4,1.7,2.8,3.1,3.3l33.2,12.2l0.8,0.2l-0.3-0.1
				c0.8,0.3,1.9,0.1,3-0.5c1.3-0.7,2.2-1.8,2.4-3l3.9-28.5c0.2-1.7-0.9-3.3-2.5-3.7L45,17.5c-0.5-0.1-0.8-0.6-0.8-1.1l0.4-3.7
				c0.2-1.6-1-3.2-2.5-3.7L29.8,5.7C27.7,5.1,26,6.1,24.7,7.6z"/>
			<path fill="#FFCC00" d="M62.3,23.2l-17.7-4.6c-1-0.3-1.7-1.3-1.6-2.4l0.4-3.7c0.1-1-0.6-2.1-1.6-2.4L29.4,6.8
				c-1.6-0.9-4.2,1.6-4.3,2.7l-0.7,31.2c-0.1,1,0.6,2.2,1.6,2.5l30.1,13.2c1,0.4,3.5-0.9,3.8-2.6l3.9-28.2
				C64,24.6,63.3,23.5,62.3,23.2z"/>
			<path fill="#FFCC00" d="M60,24.5l-17.7-4.6c-1-0.3-1.8-1.3-1.6-2.4l0.4-3.7c0.1-1-0.6-2.1-1.6-2.4L27.1,8.1c-1-0.3-1.9,0.4-2,1.4
				L22.2,42c-0.1,1,0.6,2.2,1.6,2.5l31.9,11.8c1,0.4,1.9-0.2,2-1.2l3.9-28.2C61.8,25.8,61.1,24.8,60,24.5z"/>
			<path fill="#D6AB00" d="M55,55.3c1,0.4,3.2-1.7,2.9-2.7l-5.4-22.9c-0.3-1-1.3-2.2-2.3-2.5L17.7,16c-1-0.4-3.9,1.8-3.6,2.8
				l8.8,20.3c0.3,1,1.4,2.1,2.4,2.5L55,55.3z"/>
			<path fill="#FFFFFF" fill-opacity="0.65" d="M60,24.5l-17.7-4.6c-1-0.3-1.8-1.3-1.6-2.4l0.4-3.7c0.1-1-0.6-2.1-1.6-2.4L27.1,8.1
				c-0.8-0.2-1.5,0.2-1.9,0.8c0.1,0,12.8,3.4,12.8,3.4c1,0.3,1.7,1.3,1.6,2.4l-0.4,3.7c-0.1,1,0.6,2.1,1.6,2.4l17.7,4.6
				c1,0.3,1.7,1.3,1.6,2.4l-2.4,27.3l3.9-28.2C61.8,25.8,61.1,24.8,60,24.5z"/>
			<path fill="#FFFF66" d="M54.7,55.9c2.6,1.2,3.2,0.1,3.2-2.4l-6.3-23c-0.3-1-1.3-2.1-2.3-2.5l-32-10.9c-1-0.4-3.8,1.8-3.5,2.8
				l8.6,19.9c0.3,1,1.4,2.1,2.3,2.5L54.7,55.9z"/>
			
				<linearGradient id="SVGID_1_" gradientUnits="userSpaceOnUse" x1="229.6035" y1="-478.0107" x2="223.1109" y2="-493.3063" gradientTransform="matrix(1 0 0 -1 -191.8203 -448.5293)">
				<stop  offset="0" style="stop-color:#FFFF00"/>
				<stop  offset="0" style="stop-color:#FFFF00"/>
				<stop  offset="1" style="stop-color:#FFCC00"/>
			</linearGradient>
			<path fill="url(#SVGID_1_)" d="M53.9,55.6c1,0.4,1.6-0.2,1.3-1.2l-5.8-21.8c-0.3-1-1.3-2.1-2.3-2.5L15,18.9
				c-1-0.4-1.5,0.2-1.2,1.2l6.6,21.6c0.3,1,1.4,2.1,2.3,2.5L53.9,55.6z"/>
			<path fill="#FFFFFF" fill-opacity="0.72" d="M55.7,56.3l-6.3-23.6c-0.3-1-1.3-2.1-2.3-2.5L15,18.9c-0.9-0.3-1.4,0.1-1.3,0.8
				c0.1,0,32.4,11.3,32.4,11.3c1,0.4,2,1.5,2.3,2.5l5.9,22.2L55.7,56.3z"/>
			<path fill="#FFCC00" d="M23.5,23.2l-1.7,20.5c0,0-0.9-0.6-1.3-1.3c-0.3-0.7-6.7-22.5-6.7-22.5L23.5,23.2z"/>
			<path fill="#FFCC00" d="M23.6,21.9l0.4-2.6L17.4,17c0,0-0.6-0.4-2.5,0.8L13.8,19c0,0,0.5-0.5,1-0.3
				C15.4,19.2,23.6,21.9,23.6,21.9z"/>
		</g>
	</g>
</g>
</svg>
