<?xml version="1.0" encoding="iso-8859-1"?>
<!-- Generator: Adobe Illustrator 13.0.0, SVG Export Plug-In . SVG Version: 6.00 Build 14948)  -->
<!DOCTYPE svg PUBLIC "-//W3C//DTD SVG 1.1//EN" "http://www.w3.org/Graphics/SVG/1.1/DTD/svg11.dtd">
<svg version="1.1" id="Livello_1" xmlns="http://www.w3.org/2000/svg" xmlns:xlink="http://www.w3.org/1999/xlink" x="0px" y="0px"
	 width="72px" height="72px" viewBox="0 0 72 72" enable-background="new 0 0 72 72" xml:space="preserve">
<g>
	<g>
		<rect x="-3.5" y="-9.8" fill="none" width="85.5" height="77.8"/>
		<g>
			<path fill="#D6AB00" d="M21.1,3.9l0.2-0.2c-0.8,0.5-1.2,1.3-1.3,2.2c0,0-0.7,6.7-0.9,9c-2-0.6-5.8-1.8-5.8-1.8
				c-1.8-0.6-3.7,0.5-5,1.3c-2.4,1.6-1.9,2.6-1.9,2.6c0,0.2,0.5,1.7,8.1,24.5c0.5,1.5,2,3,3.7,3.6l39.4,13.2l0.9,0.2l-0.4-0.1
				c0.9,0.3,2.3,0.1,3.6-0.5c1.5-0.8,2.6-1.9,2.8-3.2l4.6-30.8c0.2-1.8-1.1-3.6-3-4l-21-5.1c-0.6-0.1-1-0.6-1-1.2l0.5-4
				c0.2-1.7-1.2-3.5-3-4L27.1,1.8C24.6,1.2,22.6,2.2,21.1,3.9z"/>
			<path fill="#FFCC00" d="M65.7,20.7l-21-5c-1.2-0.3-2-1.4-1.9-2.6l0.5-4c0.1-1.1-0.7-2.3-1.9-2.6L26.7,3c-1.9-1-5,1.7-5.1,2.9
				l-0.8,33.7c-0.1,1.1,0.7,2.4,1.9,2.7l35.7,14.3c1.2,0.4,4.2-1,4.5-2.8l4.6-30.5C67.8,22.2,66.9,21,65.7,20.7z"/>
			<path fill="#FFCC00" d="M63,22.1l-21-5c-1.2-0.3-2.1-1.4-1.9-2.6l0.5-4c0.1-1.1-0.7-2.3-1.9-2.6L23.9,4.4
				c-1.2-0.3-2.3,0.4-2.4,1.5L18.1,41c-0.1,1.1,0.7,2.4,1.9,2.7l37.9,12.7c1.2,0.4,2.3-0.2,2.4-1.3l4.6-30.5
				C65.1,23.5,64.3,22.4,63,22.1z"/>
			<path fill="#D6AB00" d="M57.1,55.4c1.2,0.4,3.8-1.8,3.4-2.9l-6.4-24.7c-0.4-1.1-1.5-2.4-2.7-2.7L12.8,12.9
				c-1.2-0.4-4.6,1.9-4.3,3l10.5,21.9c0.4,1.1,1.7,2.3,2.8,2.7L57.1,55.4z"/>
			<path fill="#FFFFFF" fill-opacity="0.65" d="M63,22.1l-21-5c-1.2-0.3-2.1-1.4-1.9-2.6l0.5-4c0.1-1.1-0.7-2.3-1.9-2.6L23.9,4.4
				c-1-0.2-1.8,0.2-2.3,0.9c0.1,0,15.2,3.7,15.2,3.7c1.2,0.3,2,1.4,1.9,2.6l-0.5,4c-0.1,1.1,0.7,2.3,1.9,2.6l21,5
				c1.2,0.3,2,1.4,1.9,2.6l-2.8,29.5l4.6-30.5C65.1,23.5,64.3,22.4,63,22.1z"/>
			<path fill="#FFFF66" d="M56.7,56c3.1,1.3,3.8,0.1,3.8-2.6L53,28.6c-0.4-1.1-1.5-2.3-2.7-2.7l-38-11.8c-1.2-0.4-4.5,1.9-4.2,3
				l10.2,21.5c0.4,1.1,1.7,2.3,2.7,2.7L56.7,56z"/>
			
				<linearGradient id="SVGID_1_" gradientUnits="userSpaceOnUse" x1="228.2373" y1="-475.6523" x2="220.9291" y2="-492.8693" gradientTransform="matrix(1 0 0 -1 -191.8203 -448.5293)">
				<stop  offset="0" style="stop-color:#FFFF00"/>
				<stop  offset="0" style="stop-color:#FFFF00"/>
				<stop  offset="1" style="stop-color:#FFCC00"/>
			</linearGradient>
			<path fill="url(#SVGID_1_)" d="M55.8,55.7c1.2,0.4,1.9-0.2,1.5-1.3l-6.9-23.5c-0.4-1.1-1.5-2.3-2.7-2.7L9.6,16.1
				c-1.2-0.4-1.8,0.2-1.4,1.3L16,40.7c0.4,1.1,1.7,2.3,2.7,2.7L55.8,55.7z"/>
			<path fill="#FFFFFF" fill-opacity="0.72" d="M57.9,56.4L50.4,31c-0.4-1.1-1.5-2.3-2.7-2.7L9.6,16.1c-1.1-0.3-1.7,0.1-1.5,0.9
				c0.1,0,38.5,12.2,38.5,12.2c1.2,0.4,2.4,1.6,2.7,2.7l7,24L57.9,56.4z"/>
			<path fill="#FFCC00" d="M19.7,20.7l-2,22.1c0,0-1.1-0.6-1.5-1.4c-0.4-0.8-8-24.3-8-24.3L19.7,20.7z"/>
			<path fill="#FFCC00" d="M19.8,19.3l0.5-2.8L12.4,14c0,0-0.7-0.4-3,0.9l-1.3,1.3c0,0,0.6-0.5,1.2-0.3C10,16.4,19.8,19.3,19.8,19.3
				z"/>
		</g>
	</g>
</g>
<g>
	<path d="M26.2,53.5v-9.2l-9.8-24l7.8,2l6.3,17.4l6.8-13.4l8,2l-11.8,16v13.2L26.2,53.5z"/>
</g>
<g>
	<g>
		<g>
			<path fill="#59718E" d="M13.9,46.6L13.9,46.6c4.3,13.1,12,16.3,18.2,13.4c1.4-0.8,2.4-1.5,3.5-2.6l0.5-0.5c0,0,0.9-0.9,1.1-1.1
				c0,0.3,0.1,1,0.1,1c0,1.3,0.1,1.6,0.2,1.7c0,0,0,0,0,0.1l12,6.5c3.3-1,4.4-3,4.9-6.2c0.3-1.8,0.2-3.6-0.2-5
				c-0.8-3.1-1.7-3.7-4-4.6l-4.9-2l-2.1-0.8l-0.6-0.2l-1.3-0.5l-0.7-0.4c-0.3-0.1-0.5,0.3-0.9,1c-0.2,0.3-0.4,0.8-0.5,0.8l-0.6-0.3
				l-0.3-2.5c-0.3-1.7-0.9-3.2-0.9-3.6c-0.8-2.3-2.1-4.8-3.7-6.6C28.8,28.5,21,28,16.3,33C13,36.5,12.2,41.7,13.9,46.6z"/>
			
				<linearGradient id="SVGID_2_" gradientUnits="userSpaceOnUse" x1="-2.1543" y1="761.918" x2="8.7696" y2="777.5947" gradientTransform="matrix(0.7034 -0.7107 0.7107 0.7034 -522.6353 -493.3951)">
				<stop  offset="0" style="stop-color:#95A4B7"/>
				<stop  offset="0.4068" style="stop-color:#7D90A7"/>
				<stop  offset="1" style="stop-color:#536C8B"/>
			</linearGradient>
			<path fill="url(#SVGID_2_)" d="M15.9,47.6c0.8,3,2.7,6.1,3.2,6.6c4.6,5,11.7,5.9,15.7,1.6c2.8-3.1,3-8.6,1.5-13.1
				c-0.6-1.8-1.4-4.9-2.8-6.3c-4.6-5-12.6-4.2-16.5,0C15.2,38.3,14.8,43.1,15.9,47.6z"/>
			
				<linearGradient id="SVGID_3_" gradientUnits="userSpaceOnUse" x1="-3.3623" y1="758.1348" x2="9.1783" y2="773.2455" gradientTransform="matrix(0.7034 -0.7107 0.7107 0.7034 -522.6353 -493.3951)">
				<stop  offset="0" style="stop-color:#FFFFFF"/>
				<stop  offset="1" style="stop-color:#D0D7DF"/>
			</linearGradient>
			<path fill="url(#SVGID_3_)" d="M18.4,51.2c4.5,4.8,11.1,5.6,15.1,1.2s3.7-11.8-0.7-16.9c-4.3-5-11.2-5.3-15.2-0.9
				C13.6,39,14,46.4,18.4,51.2z"/>
			
				<linearGradient id="SVGID_4_" gradientUnits="userSpaceOnUse" x1="8.2866" y1="774.7061" x2="2.8507" y2="763.7432" gradientTransform="matrix(0.7034 -0.7107 0.7107 0.7034 -522.6353 -493.3951)">
				<stop  offset="0" style="stop-color:#FFFFFF"/>
				<stop  offset="0.2842" style="stop-color:#FFFFFF"/>
				<stop  offset="1" style="stop-color:#8EA1B5"/>
			</linearGradient>
			<path fill="url(#SVGID_4_)" d="M22.4,33.8c4.1-1.6,9,1.3,11,6.5s0.1,10.5-4,12.1c-4.1,1.6-9-1.3-11-6.5
				C16.4,40.7,18.2,35.3,22.4,33.8z"/>
			
				<linearGradient id="SVGID_5_" gradientUnits="userSpaceOnUse" x1="8.8306" y1="772.5146" x2="17.0333" y2="785.1025" gradientTransform="matrix(0.6893 -0.7126 0.692 0.7009 -522.6227 -493.7001)">
				<stop  offset="0" style="stop-color:#FFFFFF"/>
				<stop  offset="1" style="stop-color:#639FFF"/>
			</linearGradient>
			<path opacity="0.48" fill="url(#SVGID_5_)" d="M22.9,35.4c3.4-1.3,7.5,1.1,9.1,5.4c1.6,4.2,0.1,8.7-3.3,10s-7.5-1.1-9.1-5.4
				C18,41.2,19.5,36.7,22.9,35.4z"/>
			
				<linearGradient id="SVGID_6_" gradientUnits="userSpaceOnUse" x1="5.4624" y1="766.7373" x2="4.5586" y2="760.4087" gradientTransform="matrix(0.7034 -0.7107 0.7107 0.7034 -522.6353 -493.3951)">
				<stop  offset="0" style="stop-color:#B3BECC"/>
				<stop  offset="5.460000e-003" style="stop-color:#B3BECC"/>
				<stop  offset="1" style="stop-color:#3A567A"/>
			</linearGradient>
			<path fill="url(#SVGID_6_)" d="M32.6,43.7c-0.8-3.9-4.3-6.2-7.7-6.1c-3.2,0-5.6,3.4-5.7,6.5c-0.7-2.4-0.2-5.1,1.4-6.8
				c2.4-2.6,6.7-2.3,9.6,0.8C31.7,39.7,32.5,41.8,32.6,43.7L32.6,43.7z"/>
			
				<linearGradient id="SVGID_7_" gradientUnits="userSpaceOnUse" x1="311.2451" y1="857.6543" x2="307.8681" y2="860.7839" gradientTransform="matrix(0.8538 -0.5205 0.5205 0.8538 -671.5991 -520.7622)">
				<stop  offset="0" style="stop-color:#90A0B4"/>
				<stop  offset="3.398000e-002" style="stop-color:#99A8BA"/>
				<stop  offset="0.3716" style="stop-color:#F3F5F7"/>
				<stop  offset="0.4918" style="stop-color:#C5CDD8"/>
				<stop  offset="1" style="stop-color:#90A0B4"/>
			</linearGradient>
			<path fill="url(#SVGID_7_)" d="M43.2,50.4l-5.6-2.3c0,0-0.2,1.6-0.6,2.7c-0.4,1-1.1,2.4-1.1,2.4l6.1,3.3L43.2,50.4z"/>
			
				<linearGradient id="SVGID_8_" gradientUnits="userSpaceOnUse" x1="15.1152" y1="786.9258" x2="5.7464" y2="792.5795" gradientTransform="matrix(0.7034 -0.7107 0.7107 0.7034 -522.6353 -493.3951)">
				<stop  offset="0" style="stop-color:#C78879"/>
				<stop  offset="1.063000e-002" style="stop-color:#CC8E70"/>
				<stop  offset="5.302000e-002" style="stop-color:#DFA253"/>
				<stop  offset="9.792000e-002" style="stop-color:#EDB13B"/>
				<stop  offset="0.1459" style="stop-color:#F7BC2B"/>
				<stop  offset="0.1991" style="stop-color:#FDC321"/>
				<stop  offset="0.2678" style="stop-color:#FFC51E"/>
				<stop  offset="0.8602" style="stop-color:#D38646"/>
				<stop  offset="1" style="stop-color:#C87750"/>
			</linearGradient>
			<path fill="url(#SVGID_8_)" d="M40.4,48.2c1.1,2-0.6,5.8-2.1,7.5l0,1.5L49.3,63c3.1-1.3,4.8-7.7,2.5-11.5l-11.1-4.4L40.4,48.2z"
				/>
			
				<linearGradient id="SVGID_9_" gradientUnits="userSpaceOnUse" x1="308.7373" y1="861.0254" x2="310.0022" y2="855.6724" gradientTransform="matrix(0.8538 -0.5205 0.5205 0.8538 -671.5991 -520.7622)">
				<stop  offset="0" style="stop-color:#5F7693"/>
				<stop  offset="1" style="stop-color:#5F7693"/>
			</linearGradient>
			<path fill="url(#SVGID_9_)" d="M40.7,47.1l-1.2,1.6L39,48.6c0.6,1.9,0.3,4.3-1.3,5.6l0.3,0.1l0.3,2.1
				C39.9,56.2,42.9,51.4,40.7,47.1z"/>
			
				<linearGradient id="SVGID_10_" gradientUnits="userSpaceOnUse" x1="308.5166" y1="861.4355" x2="309.8759" y2="855.6825" gradientTransform="matrix(0.8538 -0.5205 0.5205 0.8538 -671.5991 -520.7622)">
				<stop  offset="0" style="stop-color:#90A0B4"/>
				<stop  offset="9.145000e-002" style="stop-color:#99A8BA"/>
				<stop  offset="1" style="stop-color:#F3F5F7"/>
			</linearGradient>
			<path fill="url(#SVGID_10_)" d="M40.6,47.1l-1.1,1.6c0.6,2,0.4,4.2-1.5,5.8l0.3,2.7C40.3,56.6,43,51.7,40.6,47.1z"/>
			<path fill="#FFFFCD" d="M41.6,47.4l-1-0.4l-0.2,0.4c1,4.2,0.1,6.4-2.2,9.2l0.1,0.5l0.8,0.4C40.8,56.2,43,51.8,41.6,47.4z"/>
			<path fill="#6C7F93" fill-opacity="0.58" d="M52.1,51.9l-0.4-0.4l-0.5-0.2c1.9,5-0.6,10.5-2.5,11.4l0.4,0.2l0.3,0.1
				C51.5,62.5,54.7,56.9,52.1,51.9z"/>
			<path fill="#4B6585" d="M51.7,51.4c3.4,4,2.3,11-2.5,11.5C51,61.7,54.1,57.2,51.7,51.4z"/>
		</g>
		
			<rect x="14.2" y="26.7" transform="matrix(-0.9362 0.3515 -0.3515 -0.9362 80.6775 81.956)" fill="none" width="37.5" height="43.2"/>
	</g>
</g>
<g opacity="0.33">
	<path d="M26.3,53.5v-9.2l-9.8-24l7.8,2l6.3,17.4l6.8-13.4l8,2l-11.8,16v13.2L26.3,53.5z"/>
</g>
</svg>
