<?xml version="1.0" encoding="UTF-8" standalone="no"?>
<!-- Created with Inkscape (http://www.inkscape.org/) -->
<svg
   xmlns:dc="http://purl.org/dc/elements/1.1/"
   xmlns:cc="http://web.resource.org/cc/"
   xmlns:rdf="http://www.w3.org/1999/02/22-rdf-syntax-ns#"
   xmlns:svg="http://www.w3.org/2000/svg"
   xmlns="http://www.w3.org/2000/svg"
   xmlns:sodipodi="http://sodipodi.sourceforge.net/DTD/sodipodi-0.dtd"
   xmlns:inkscape="http://www.inkscape.org/namespaces/inkscape"
   width="32px"
   height="32px"
   id="svg2183"
   sodipodi:version="0.32"
   inkscape:version="0.45"
   sodipodi:docbase="C:\Symbian_projects_91\Tools\YBrowser\FileBrowser\data\icon_mbm\org"
   sodipodi:docname="Marked.svg"
   inkscape:output_extension="org.inkscape.output.svg.inkscape"
   sodipodi:modified="true">
  <defs
     id="defs2185" />
  <sodipodi:namedview
     id="base"
     pagecolor="#ffffff"
     bordercolor="#666666"
     borderopacity="1.0"
     inkscape:pageopacity="0.0"
     inkscape:pageshadow="2"
     inkscape:zoom="4.2431735"
     inkscape:cx="16"
     inkscape:cy="16.589979"
     inkscape:current-layer="layer1"
     showgrid="true"
     inkscape:grid-bbox="true"
     inkscape:document-units="px"
     inkscape:window-width="744"
     inkscape:window-height="573"
     inkscape:window-x="44"
     inkscape:window-y="58" />
  <metadata
     id="metadata2188">
    <rdf:RDF>
      <cc:Work
         rdf:about="">
        <dc:format>image/svg+xml</dc:format>
        <dc:type
           rdf:resource="http://purl.org/dc/dcmitype/StillImage" />
      </cc:Work>
    </rdf:RDF>
  </metadata>
  <g
     id="layer1"
     inkscape:label="Layer 1"
     inkscape:groupmode="layer">
    <path
       style="fill:#008000;fill-opacity:1"
       id="path2243"
       d="M 5.5572819,14.303498 C 6.2293845,14.439177 6.6491872,14.88461 7.1233017,15.339298 C 7.9810337,16.279537 8.7118572,17.32184 9.4551965,18.351828 C 10.19099,19.495055 11.029941,20.564098 11.862302,21.637223 C 12.505555,22.4068 13.0595,23.24004 13.641928,24.053993 C 14.114919,24.631491 14.551316,25.236937 14.989058,25.84113 C 15.337008,26.298906 15.678354,26.761263 16.035654,27.210466 C 16.068975,27.610304 16.641127,27.697427 16.693441,27.739501 C 12.845556,30.063747 13.820185,30.148739 14.015773,28.270874 C 14.026057,27.669953 14.03321,27.068997 14.04347,26.46804 C 14.033076,25.604291 14.051135,24.741751 14.080984,23.879129 C 14.199964,22.780849 14.40655,21.697202 14.631151,20.616715 C 14.858054,19.530165 15.27028,18.494671 15.652943,17.456552 C 16.033868,16.454526 16.63322,15.569874 17.208796,14.674149 C 17.676756,13.915823 18.260038,13.259992 18.889002,12.637058 C 19.488902,12.101704 20.186402,11.693081 20.863991,11.265939 C 22.409016,10.25877 24.033241,9.3760022 25.629886,8.4567472 C 26.294886,8.1013487 27.05181,8.01279 27.777718,7.8476703 C 28.50491,7.7196592 29.234828,7.6128499 29.966962,7.5173408 C 30.190528,7.4870793 30.415901,7.4770575 30.640371,7.4569159 L 27.887805,9.4907246 C 27.867334,9.4926484 27.241354,9.5415534 27.238497,9.5517451 C 26.511076,9.6534764 25.785617,9.7682081 25.064317,9.9077612 C 24.347075,10.069399 23.61775,10.200641 22.982938,10.596281 C 28.110844,7.6307659 25.166877,9.3079703 24.015441,10.034001 C 23.349778,10.470981 22.654636,10.865225 22.030945,11.359538 C 21.361672,11.940953 20.774835,12.58237 20.279577,13.323614 C 19.703662,14.205586 19.087256,15.066117 18.695525,16.051921 C 18.303353,17.074961 17.869204,18.091805 17.629458,19.165273 C 17.408551,20.227625 17.212947,21.291849 17.084843,22.370076 C 17.064443,23.220788 17.057395,24.071866 17.073009,24.923471 C 17.085675,25.523912 17.106022,26.124407 17.082235,26.724971 C 16.97387,28.867639 17.141204,28.290257 13.879745,29.81475 C 13.582621,29.552154 13.22687,29.363349 13.058418,28.955684 C 12.717171,28.501375 12.389002,28.035904 12.048485,27.580148 C 11.622299,26.968691 11.19233,26.360927 10.726434,25.778537 C 10.163365,24.956593 9.6458249,24.102896 9.0115072,23.331209 C 8.1903515,22.24545 7.3887079,21.146644 6.6145881,20.02686 C 5.8793107,19.010051 5.1555219,17.97878 4.248117,17.10345 C 3.759648,16.706338 3.3342674,16.351242 2.6811127,16.287365 L 5.5572819,14.303498 z " />
  </g>
</svg>
