<?xml version="1.0" encoding="UTF-8"?>
<!DOCTYPE svg PUBLIC "-//W3C//DTD SVG 1.1 Tiny//EN" "http://www.w3.org/Graphics/SVG/1.1/DTD/svg11-tiny.dtd">
<svg baseProfile="tiny" version="1.0" xmlns:sodipodi="http://sodipodi.sourceforge.net/DTD/sodipodi-0.dtd" xmlns="http://www.w3.org/2000/svg" xmlns:xlink="http://www.w3.org/1999/xlink" x="0px" y="0px" width="300px" height="200px" viewBox="0 0 300 200">
<g transform="matrix(-0.8012258,0,0,0.7998615,310.47435,-22.579483)">
<linearGradient id="path4433_2_" gradientUnits="userSpaceOnUse" x1="728.6133" y1="1272.2589" x2="736.4718" y2="1248.6833" gradientTransform="matrix(-0.6419 0 0 0.6398 540.8413 -745.3485)">
<stop offset="0" style="stop-color:#000000"/>
<stop offset="1" style="stop-color:#727272"/>
</linearGradient>
<path fill="url(#path4433_2_)" stroke="#000000" stroke-width="3" d="M77.1,43.5c1.4,2.5,5.2,17.2,5.9,20.7   l10.9-2.7l-4.2,9.3h-8.2c0,3.5-0.1,6.6-0.1,9.1c-4.1,0-15.6,9.1-20.8,0s0.1-36.5,4.2-36.5C64.8,43.5,73,43.5,77.1,43.5z"/>
</g>
<g transform="matrix(-0.8012258,0,0,0.7998615,310.47435,-22.579483)">
<linearGradient id="path4433_3_" gradientUnits="userSpaceOnUse" x1="-158.2795" y1="1273.0781" x2="-150.4209" y2="1249.5022" gradientTransform="matrix(0.6419 0 0 0.6398 425.8712 -745.3485)">
<stop offset="0" style="stop-color:#000000"/>
<stop offset="1" style="stop-color:#727272"/>
</linearGradient>
<path fill="url(#path4433_3_)" stroke="#000000" stroke-width="3" d="M332.6,44c4.1,0,9.4,27.3,4.2,36.5   c-5.2,9.1-16.6,0-20.8,0c0-2.5-0.1-5.7-0.1-9.1h-8.2l-4.2-9.3l10.9,2.7c0.6-3.5,4.5-18.2,5.9-20.7C324.3,44,332.6,44,332.6,44z"/>
</g>
<path stroke="#666666" stroke-width="0.701" d="M42.4,116.3h19.2c5.8,0,10.5,3.9,10.5,8.8V187c0,4.9-4.7,8.8-10.5,8.8  H42.4c-5.8,0-10-4-10.5-8.8c-4.7-53-1.1-57.9,0-61.9C33.1,120.3,36.6,116.3,42.4,116.3z"/>
<path fill="#800000" stroke="#000000" stroke-width="2.4016" d="M75.6,7.7c50.8-7.9,151-4.5,154.5-0.9  c3.5,3.6,9,42.1,9.1,47.2c0.4,20.6-181.9,19.3-178.1,0.9C57.6,51.3,72.1,11.3,75.6,7.7z"/>
<linearGradient id="rect2867_1_" gradientUnits="userSpaceOnUse" x1="525.2373" y1="938.7129" x2="707.5428" y2="833.2792" gradientTransform="matrix(0.8012 0 0 0.7999 -345.0982 -672.9236)">
<stop offset="0" style="stop-color:#E6E6E6"/>
<stop offset="0.2857" style="stop-color:#B7C6DE"/>
<stop offset="1" style="stop-color:#213756"/>
</linearGradient>
<path fill="url(#rect2867_1_)" stroke="#000000" stroke-width="1.6011" d="M75.6,7.7C78.9,4,225.6,2.3,228.9,6  c3.3,3.7,11.2,45.6,7.9,49.3c10.9-12.2-107.3,74.7-174.4-0.4C59,51.2,72.3,11.4,75.6,7.7z"/>
<path fill="#00005E" d="M40,100.5l56.4,3.4l3.3,24l3.3,17.2l-63-6.9v-15.8V100.5z"/>
<linearGradient id="rect2874_1_" gradientUnits="userSpaceOnUse" x1="247.3105" y1="-115.5601" x2="247.3105" y2="-166.96" gradientTransform="matrix(1 0 0 -1 -177.6602 -61.96)">
<stop offset="0" style="stop-color:#1F62FF"/>
<stop offset="1" style="stop-color:#00004D"/>
</linearGradient>
<path fill="url(#rect2874_1_)" d="M61.1,53.6c0,0,14.7,5.9,37.1,6.8l-4,44.6l-53.1-3.4c0,0,0-13.7,3.3-20.6  C42.5,56.6,61.1,53.6,61.1,53.6z"/>
<radialGradient id="path4407_1_" cx="253.3594" cy="-205.1289" r="23.3356" gradientTransform="matrix(0.8285 0 0 -0.8577 -172.1121 -67.5395)" gradientUnits="userSpaceOnUse">
<stop offset="0" style="stop-color:#1F62FF"/>
<stop offset="1" style="stop-color:#00004D"/>
</radialGradient>
<path fill="url(#path4407_1_)" d="M44.4,80.9c0,0-6.6,3.4-10,10.3c-3.3,6.9-3.3,17.2-3.3,17.2v17.2l10,10.3v-34.3  L44.4,80.9z"/>
<path stroke="#666666" stroke-width="0.701" d="M259.4,116.3h-19.2c-5.8,0-10.5,3.9-10.5,8.8V187  c0,4.9,4.7,8.8,10.5,8.8h19.2c5.8,0,10-4,10.5-8.8c4.7-53,1.1-57.9,0-61.9C268.7,120.3,265.3,116.3,259.4,116.3z"/>
<path fill="#00005E" d="M263.9,100.5l-54.4,4.5l-6.6,24v13.7l59.7-6.9v-12.3L263.9,100.5z"/>
<radialGradient id="path4413_1_" cx="529.7822" cy="-205.0703" r="23.2954" gradientTransform="matrix(0.8285 0 0 -0.8577 -172.1121 -67.5395)" gradientUnits="userSpaceOnUse">
<stop offset="0" style="stop-color:#1F62FF"/>
<stop offset="1" style="stop-color:#00004D"/>
</radialGradient>
<path fill="url(#path4413_1_)" d="M260.2,80.9l3.3,20.6l-0.3,34.3l10.3-10.3v-17.2c0,0,0-10.3-3.3-17.2  C266.8,84.4,260.2,80.9,260.2,80.9z"/>
<path fill="#00005E" d="M93.4,105l4.1,23.2l2.6,14.6H203l3.3-13.7h-0.9l0,0l4.2-24L93.4,105L93.4,105z"/>
<linearGradient id="rect4417_1_" gradientUnits="userSpaceOnUse" x1="330.5605" y1="-122.6602" x2="330.5605" y2="-167.2598" gradientTransform="matrix(1 0 0 -1 -177.6602 -61.96)">
<stop offset="0" style="stop-color:#1F62FF"/>
<stop offset="0.2174" style="stop-color:#194FDD"/>
<stop offset="0.6945" style="stop-color:#0A2087"/>
<stop offset="1" style="stop-color:#00004D"/>
</linearGradient>
<path fill="url(#rect4417_1_)" d="M97.5,60.7H207l4.6,44.6H94.2L97.5,60.7z"/>
<linearGradient id="path4420_1_" gradientUnits="userSpaceOnUse" x1="412.9922" y1="-115.96" x2="412.9922" y2="-167.2598" gradientTransform="matrix(1 0 0 -1 -177.6602 -61.96)">
<stop offset="0" style="stop-color:#1F62FF"/>
<stop offset="1" style="stop-color:#00004D"/>
</linearGradient>
<path fill="url(#path4420_1_)" d="M240.1,54c0,0-10.6,5.8-33,6.7l3.3,44.6l53.1-3.4c0.5-2.1-2-15.7-3.3-20.6  C259.1,54,240.1,54,240.1,54z"/>
<radialGradient id="path9555_1_" cx="394.5234" cy="-244.3711" r="95.0686" gradientTransform="matrix(0.8285 0 0 -0.8577 -172.1121 -67.5395)" gradientUnits="userSpaceOnUse">
<stop offset="0" style="stop-color:#0070BF"/>
<stop offset="1" style="stop-color:#00005E"/>
</radialGradient>
<path fill="url(#path9555_1_)" d="M43.9,134.5l-0.3,10.6c0,0,112.6,10.3,222.3,0  l-0.3-10.6C156.3,144.8,43.9,134.5,43.9,134.5z"/>
<linearGradient id="rect5052_1_" gradientUnits="userSpaceOnUse" x1="468.5449" y1="1022.5684" x2="770.9658" y2="1022.5684" gradientTransform="matrix(0.8012 0 0 0.7999 -345.0982 -672.9236)">
<stop offset="0" style="stop-color:#2C2C2C"/>
<stop offset="0.5082" style="stop-color:#808080"/>
<stop offset="1" style="stop-color:#343434"/>
</linearGradient>
<path fill="url(#rect5052_1_)" d="M30.3,125.5l3.3,17.9c0,0,6.6,11.4,9.5,13c3,1.7,51.6,7.5,56.9,7.5  c0,0,63.1,1.7,102.9,0c39.8-1.7,53-5.4,56.4-6.9c3.3-1.4,10-13.7,10-13.7l3.3-17.9l-10,10.3v-0.6l-59.4,7.2l-102.7,0.1l-60.3-6.6  L30.3,125.5z"/>
<g transform="matrix(-0.8012258,0,0,0.7998615,301.5918,-29.593852)">
<radialGradient id="path16453_2_" cx="-862.2626" cy="1961.9181" r="16.491" gradientTransform="matrix(0.8361 0 0 0.8622 1009.1255 -1545.2079)" gradientUnits="userSpaceOnUse">
<stop offset="0" style="stop-color:#E6E6E6"/>
<stop offset="0.5" style="stop-color:#B7C6DE"/>
<stop offset="1" style="stop-color:#213756"/>
</radialGradient>
<path fill="url(#path16453_2_)" stroke="#000000" d="M309.1,146.3c0,11.9-9.3,21.6-20.8,21.6   c-11.5,0-20.8-9.7-20.8-21.6c0-11.9,9.3-21.6,20.8-21.6C299.8,124.7,309.1,134.4,309.1,146.3z"/>
<path fill="#ECECEC" d="M292,147.6c0,2.9-2.1,5.3-4.7,5.3c-2.6,0-4.7-2.4-4.7-5.3c0-2.9,2.1-5.3,4.7-5.3   C289.9,142.3,292,144.7,292,147.6z"/>
<path fill="#ECECEC" d="M295.3,153.5c0,2.2-0.7,4-1.6,4c-0.9,0-1.6-1.8-1.6-4c0-2.2,0.7-4,1.6-4   C294.5,149.6,295.3,151.3,295.3,153.5z"/>
<path fill="#ECECEC" d="M275.9,154.7c1.1,1.9,1.3,3.8,0.6,4.3c-0.8,0.5-2.3-0.7-3.4-2.6c-1.1-1.9-1.3-3.8-0.6-4.3   C273.3,151.6,274.8,152.8,275.9,154.7z"/>
<path fill="#ECECEC" d="M280.2,153.8c1.5,1.6,2.1,3.5,1.4,4.1c-0.7,0.6-4-0.2-5.5-1.9c-1.5-1.6-0.5-3.5,0.2-4.1   C277.1,151.3,278.8,152.1,280.2,153.8z"/>
</g>
<path fill="#00005E" d="M44.7,103.2l-0.3,10.6c0,0,112.2,10.3,221.5,0l-2.2-11.3  C154.8,112.8,44.7,103.2,44.7,103.2z"/>
<path fill="none" stroke="#000000" stroke-width="2.4016" d="M59,53.6c0,0-19.1,6.4-15.4,27.3c0,0-6.6,3.4-10,10.3  c-3.3,6.9-3.3,17.2-3.3,17.2v17.2l3.3,17.9c0,0,6.6,11.4,9.5,13c3,1.7,51.6,7.5,56.9,7.5c0,0,63.1,1.7,102.9,0  c39.8-1.7,53-5.4,56.4-6.9c3.3-1.4,10-13.7,10-13.7l3.3-17.9l0,0v-17.2c0,0,0-10.3-3.3-17.2s-10-10.3-10-10.3  c-1-28.1-20.1-26.8-20.1-26.8s-10.6,5.5-33,6.3H97.4C75,59.5,59,53.6,59,53.6z"/>
<radialGradient id="path6622_1_" cx="394.5234" cy="-220.0742" r="95.0719" gradientTransform="matrix(0.8285 0 0 -0.8577 -172.1121 -67.5395)" gradientUnits="userSpaceOnUse">
<stop offset="0" style="stop-color:#0070BF"/>
<stop offset="1" style="stop-color:#00005E"/>
</radialGradient>
<path fill="url(#path6622_1_)" d="M43.9,113.6l-0.3,10.6c0,0,112.6,10.3,222.3,0  l-0.3-10.6C156.3,123.9,43.9,113.6,43.9,113.6z"/>
<radialGradient id="path8573_1_" cx="394.5234" cy="-232.2227" r="95.0676" gradientTransform="matrix(0.8285 0 0 -0.8577 -172.1121 -67.5395)" gradientUnits="userSpaceOnUse">
<stop offset="0" style="stop-color:#0070BF"/>
<stop offset="1" style="stop-color:#00005E"/>
</radialGradient>
<path fill="url(#path8573_1_)" d="M43.9,124.1l-0.3,10.6c0,0,112.6,10.3,222.3,0  l-0.3-10.6C156.3,134.3,43.9,124.1,43.9,124.1z"/>
<linearGradient id="rect5450_1_" gradientUnits="userSpaceOnUse" x1="619.7559" y1="956.3506" x2="619.7559" y2="989.6055" gradientTransform="matrix(0.8012 0 0 0.7999 -345.0982 -672.9236)">
<stop offset="0" style="stop-color:#666666"/>
<stop offset="1" style="stop-color:#3C3C3C"/>
</linearGradient>
<path fill="url(#rect5450_1_)" stroke="#4D4D4D" stroke-width="2.4016" d="M103.3,98.8h96.3l-3.3,26.6h-89.6  L103.3,98.8z"/>
<radialGradient id="path14088_3_" cx="252.0391" cy="1530.2734" r="16.5119" gradientTransform="matrix(0.6235 0 0 0.6144 -65.1473 -835.4005)" gradientUnits="userSpaceOnUse">
<stop offset="0" style="stop-color:#E6E6E6"/>
<stop offset="0.5" style="stop-color:#B7C6DE"/>
<stop offset="1" style="stop-color:#213756"/>
</radialGradient>
<path fill="url(#path14088_3_)" stroke="#000000" d="M102,104.8c0,5.4-4.5,9.8-10,9.8s-10-4.4-10-9.8  c0-5.4,4.5-9.8,10-9.8S102,99.4,102,104.8z"/>
<g transform="matrix(-0.8012258,0,0,0.7998615,301.5918,-29.593852)">
<radialGradient id="path16453_3_" cx="-145.9689" cy="1961.9181" r="16.4991" gradientTransform="matrix(-0.8361 0 0 0.8622 -35.2415 -1545.2079)" gradientUnits="userSpaceOnUse">
<stop offset="0" style="stop-color:#E6E6E6"/>
<stop offset="0.5" style="stop-color:#B7C6DE"/>
<stop offset="1" style="stop-color:#213756"/>
</radialGradient>
<path fill="url(#path16453_3_)" stroke="#000000" d="M86.8,124.7c11.5,0,20.8,9.6,20.8,21.6   c0,11.9-9.3,21.6-20.8,21.6c-11.5,0-20.8-9.7-20.8-21.6C66,134.4,75.3,124.7,86.8,124.7z"/>
<path fill="#ECECEC" d="M87.7,142.3c2.6,0,4.7,2.4,4.7,5.3c0,2.9-2.1,5.3-4.7,5.3c-2.6,0-4.7-2.4-4.7-5.3   C83,144.7,85.1,142.3,87.7,142.3z"/>
<path fill="#ECECEC" d="M81.4,149.6c0.9,0,1.6,1.8,1.6,4c0,2.2-0.7,4-1.6,4c-0.9,0-1.6-1.8-1.6-4   C79.8,151.3,80.5,149.6,81.4,149.6z"/>
<path fill="#ECECEC" d="M102.5,152.1c0.8,0.5,0.5,2.4-0.6,4.3c-1.1,1.9-2.6,3.1-3.4,2.6   c-0.8-0.5-0.5-2.4,0.6-4.3C100.2,152.8,101.7,151.6,102.5,152.1z"/>
<path fill="#ECECEC" d="M98.7,151.9c0.7,0.6,1.6,2.4,0.2,4.1c-1.5,1.6-4.8,2.5-5.5,1.9c-0.7-0.6,0-2.4,1.4-4.1   C96.3,152.1,98,151.3,98.7,151.9z"/>
</g>
<radialGradient id="path14088_4_" cx="-517.4629" cy="1530.2734" r="16.503" gradientTransform="matrix(-0.6235 0 0 0.6144 -111.9699 -835.4005)" gradientUnits="userSpaceOnUse">
<stop offset="0" style="stop-color:#E6E6E6"/>
<stop offset="0.5" style="stop-color:#B7C6DE"/>
<stop offset="1" style="stop-color:#213756"/>
</radialGradient>
<path fill="url(#path14088_4_)" stroke="#000000" d="M210.7,95c5.5,0,10,4.4,10,9.8c0,5.4-4.5,9.8-10,9.8  s-10-4.4-10-9.8C200.7,99.4,205.2,95,210.7,95z"/>
<path fill="none" stroke="#000000" stroke-width="2" d="M221,147.5c0,2.4-1.9,4.3-4.1,4.3H86c-2.3,0-4.1-1.9-4.1-4.3v-16.7  c0-2.4,1.9-4.3,4.1-4.3h130.9c2.3,0,4.1,1.9,4.1,4.3V147.5z"/>
<path fill="none" stroke="#000000" stroke-width="2" d="M125.7,121.6c0,2.7-0.1,4.9-0.2,4.9h-5.1c-0.1,0-0.2-2.2-0.2-4.9v-19.3  c0-2.7,0.1-4.9,0.2-4.9h5.1c0.1,0,0.2,2.2,0.2,4.9V121.6z"/>
<path fill="none" stroke="#000000" stroke-width="2" d="M130.7,121.6c0,2.7-0.1,4.9-0.2,4.9h-5.1c-0.1,0-0.2-2.2-0.2-4.9v-19.3  c0-2.7,0.1-4.9,0.2-4.9h5.1c0.1,0,0.2,2.2,0.2,4.9V121.6z"/>
<path fill="none" stroke="#000000" stroke-width="2" d="M136.5,121.6c0,2.7-0.1,4.9-0.2,4.9h-5.1c-0.1,0-0.2-2.2-0.2-4.9v-19.3  c0-2.7,0.1-4.9,0.2-4.9h5.1c0.1,0,0.2,2.2,0.2,4.9V121.6z"/>
<path fill="none" stroke="#000000" stroke-width="2" d="M115,121.6c0,2.7-0.1,4.9-0.2,4.9h-5.1c-0.1,0-0.2-2.2-0.2-4.9v-19.3  c0-2.7,0.1-4.9,0.2-4.9h5.1c0.1,0,0.2,2.2,0.2,4.9V121.6z"/>
<path fill="none" stroke="#000000" stroke-width="2" d="M119.9,121.6c0,2.7-0.1,4.9-0.2,4.9h-5.1c-0.1,0-0.2-2.2-0.2-4.9v-19.3  c0-2.7,0.1-4.9,0.2-4.9h5.1c0.1,0,0.2,2.2,0.2,4.9V121.6z"/>
<path fill="none" stroke="#000000" stroke-width="2" d="M125.7,121.6c0,2.7-0.1,4.9-0.2,4.9h-5.1c-0.1,0-0.2-2.2-0.2-4.9v-19.3  c0-2.7,0.1-4.9,0.2-4.9h5.1c0.1,0,0.2,2.2,0.2,4.9V121.6z"/>
<path fill="none" stroke="#000000" stroke-width="2" d="M142.3,121.6c0,2.7-0.1,4.9-0.2,4.9H137c-0.1,0-0.2-2.2-0.2-4.9v-19.3  c0-2.7,0.1-4.9,0.2-4.9h5.1c0.1,0,0.2,2.2,0.2,4.9V121.6z"/>
<path fill="none" stroke="#000000" stroke-width="2" d="M147.3,121.6c0,2.7-0.1,4.9-0.2,4.9H142c-0.1,0-0.2-2.2-0.2-4.9v-19.3  c0-2.7,0.1-4.9,0.2-4.9h5.1c0.1,0,0.2,2.2,0.2,4.9V121.6z"/>
<path fill="none" stroke="#000000" stroke-width="2" d="M153.1,121.6c0,2.7-0.1,4.9-0.2,4.9h-5.1c-0.1,0-0.2-2.2-0.2-4.9v-19.3  c0-2.7,0.1-4.9,0.2-4.9h5.1c0.1,0,0.2,2.2,0.2,4.9V121.6z"/>
<path fill="none" stroke="#000000" stroke-width="2" d="M158.9,121.6c0,2.7-0.1,4.9-0.2,4.9h-5.1c-0.1,0-0.2-2.2-0.2-4.9v-19.3  c0-2.7,0.1-4.9,0.2-4.9h5.1c0.1,0,0.2,2.2,0.2,4.9V121.6z"/>
<path fill="none" stroke="#000000" stroke-width="2" d="M163.8,121.6c0,2.7-0.1,4.9-0.2,4.9h-5.1c-0.1,0-0.2-2.2-0.2-4.9v-19.3  c0-2.7,0.1-4.9,0.2-4.9h5.1c0.1,0,0.2,2.2,0.2,4.9V121.6z"/>
<path fill="none" stroke="#000000" stroke-width="2" d="M169.6,121.6c0,2.7-0.1,4.9-0.2,4.9h-5.1c-0.1,0-0.2-2.2-0.2-4.9v-19.3  c0-2.7,0.1-4.9,0.2-4.9h5.1c0.1,0,0.2,2.2,0.2,4.9V121.6z"/>
<path fill="none" stroke="#000000" stroke-width="2" d="M175.4,121.6c0,2.7-0.1,4.9-0.2,4.9h-5.1c-0.1,0-0.2-2.2-0.2-4.9v-19.3  c0-2.7,0.1-4.9,0.2-4.9h5.1c0.1,0,0.2,2.2,0.2,4.9V121.6z"/>
<path fill="none" stroke="#000000" stroke-width="2" d="M180.4,121.6c0,2.7-0.1,4.9-0.2,4.9h-5.1c-0.1,0-0.2-2.2-0.2-4.9v-19.3  c0-2.7,0.1-4.9,0.2-4.9h5.1c0.1,0,0.2,2.2,0.2,4.9V121.6z"/>
<path fill="none" stroke="#000000" stroke-width="2" d="M186.2,121.6c0,2.7-0.1,4.9-0.2,4.9h-5c-0.1,0-0.2-2.2-0.2-4.9v-19.3  c0-2.7,0.1-4.9,0.2-4.9h5.1c0.1,0,0.2,2.2,0.2,4.9L186.2,121.6L186.2,121.6z"/>
<path fill="none" stroke="#000000" stroke-width="2" d="M186.2,121.6c0,2.7-0.1,4.9-0.2,4.9h-5c-0.1,0-0.2-2.2-0.2-4.9v-19.3  c0-2.7,0.1-4.9,0.2-4.9h5.1c0.1,0,0.2,2.2,0.2,4.9L186.2,121.6L186.2,121.6z"/>
<path fill="none" stroke="#000000" stroke-width="2" d="M191.2,121.6c0,2.7-0.1,4.9-0.2,4.9h-5c-0.1,0-0.2-2.2-0.2-4.9v-19.3  c0-2.7,0.1-4.9,0.2-4.9h5.1c0.1,0,0.2,2.2,0.2,4.9L191.2,121.6L191.2,121.6z"/>
<path fill="none" stroke="#000000" stroke-width="2" d="M197,121.6c0,2.7-2.1,4.9-0.2,4.9h-5.1c-0.1,0-0.2-2.2-0.2-4.9v-19.3  c0-2.7,0.1-4.9,0.2-4.9h8.8c0.1,0,0,0-0.7,3.9L197,121.6z"/>
<path fill="none" stroke="#000000" stroke-width="2" d="M104.9,121.6c0,2.7,2.1,4.9,0.2,4.9h5.1c0.1,0,0.2-2.2,0.2-4.9v-19.3  c0-2.7-0.1-4.9-0.2-4.9h-8.8c-0.1,0,0,0,0.7,3.9L104.9,121.6z"/>
<path fill="#FFFFFF" stroke="#000000" d="M119.5,148.9c0-3,2.4-5.4,5.4-5.4h54.8c3,0,5.4,2.4,5.4,5.4v8.7c0,3-2.4,5.4-5.4,5.4h-54.8  c-3,0-5.4-2.4-5.4-5.4V148.9z"/>
<g>
<path d="M126.6,146.9h3.7c1.3,0,2.2,0.4,2.8,1.2c0.6,0.8,0.9,2.3,0.9,4.4c0,2.1-0.3,3.7-0.9,4.6s-1.6,1.4-2.9,1.4h-3.7V146.9z    M128.7,157h1.3c0.7,0,1.1-0.3,1.4-0.8c0.3-0.5,0.4-1.7,0.4-3.4c0-1.8-0.2-3-0.5-3.5s-0.8-0.7-1.5-0.7h-1.2V157z"/>
<path d="M140.3,150.9c-0.2-0.1-0.4-0.1-0.6-0.1c-0.7,0-1.2,0.2-1.4,0.6s-0.4,1.1-0.4,2.1v5h-2v-7.4c0-0.4,0-1,0-1.7h1.9   c0.1,0.5,0.1,0.9,0.1,1.3c0.1-0.4,0.4-0.8,0.6-1c0.3-0.2,0.6-0.4,1-0.4c0.3,0,0.5,0,0.8,0.1V150.9z"/>
<path d="M141.2,161.2c-0.3,0-0.5,0-0.7,0c-0.2,0-0.4-0.1-0.6-0.1v-1.6c0.2,0.1,0.3,0.1,0.5,0.1c0.1,0,0.3,0,0.5,0   c0.4,0,0.7-0.1,0.9-0.3c0.2-0.2,0.3-0.5,0.3-1.1v-9.9h-0.7v-1.5h3.6v1.5h-0.7v9.9c0,0.9-0.2,1.7-0.7,2.2   C143,161,142.3,161.2,141.2,161.2z"/>
<path d="M153.3,158.6h-2c0-0.2-0.1-0.6-0.1-1.2c-0.4,0.9-1.2,1.3-2.3,1.3c-1.7,0-2.5-1.1-2.5-3.2v-6.1h2v5.9c0,1.3,0.4,2,1.3,2   c0.5,0,0.9-0.2,1.1-0.6c0.3-0.4,0.4-0.9,0.4-1.5v-5.8h2v7.8C153.2,157.7,153.3,158.2,153.3,158.6z"/>
<path d="M162.5,158.6H160l-2.6-5.1v5.1h-2v-12.4h2v7.3l2.4-4h2.3l-2.4,4L162.5,158.6z"/>
<path d="M170.6,158.6h-2.5l-2.6-5.1v5.1h-2v-12.4h2v7.3l2.4-4h2.3l-2.4,4L170.6,158.6z"/>
<path d="M175.9,158.6c0-0.2-0.1-0.4-0.1-0.5c0-0.2,0-0.3,0-0.5c-0.2,0.4-0.5,0.7-0.9,0.9s-0.8,0.3-1.3,0.3c-0.8,0-1.5-0.3-1.9-0.8   c-0.4-0.5-0.6-1.2-0.6-2.1c0-1.1,0.3-1.9,0.9-2.3c0.6-0.5,1.6-0.7,2.9-0.7h0.7v-0.3c0-0.7-0.1-1.1-0.4-1.4   c-0.3-0.3-0.7-0.4-1.2-0.4c-0.5,0-0.9,0-1.2,0.1c-0.3,0.1-0.7,0.2-1,0.3v-1.5c0.4-0.2,0.8-0.3,1.2-0.3c0.4-0.1,0.8-0.1,1.2-0.1   c1.2,0,2.1,0.2,2.6,0.7s0.8,1.3,0.8,2.5v4.7c0,0.2,0,0.5,0,0.7c0,0.2,0,0.5,0.1,0.7H175.9z M175.7,154.1H175   c-0.6,0-1.1,0.1-1.4,0.3c-0.3,0.2-0.4,0.7-0.4,1.3c0,0.5,0.1,0.9,0.3,1.2c0.2,0.2,0.5,0.4,0.9,0.4c0.4,0,0.8-0.2,1-0.5   s0.4-0.8,0.4-1.4V154.1z"/>
</g>
<path fill="#1A00FF" d="M124.9,163c-3,0-5.4-2.4-5.4-5.4v-8.7c0-3,2.4-5.4,5.4-5.4"/>
<path fill="none" stroke="#FFFF26" d="M124.3,157.9c0,1-0.7,1.8-1.5,1.8h-0.3c-0.9,0-1.5-0.8-1.5-1.8l0,0c0-1,0.7-1.8,1.5-1.8h0.3  C123.6,156.1,124.3,156.9,124.3,157.9L124.3,157.9z"/>
<g>
<path fill="#FFFF26" d="M120.7,147.8h2.2v1h-1.2v1.6h1.1v1h-1.1v2.5h-1V147.8z"/>
<path fill="#FFFF26" d="M124.6,147.8v6.2h-1v-6.2H124.6z"/>
</g>
<path fill="none" stroke="#000000" d="M119.5,148.9c0-3,2.4-5.4,5.4-5.4h54.8c3,0,5.4,2.4,5.4,5.4v8.7c0,3-2.4,5.4-5.4,5.4h-54.8  c-3,0-5.4-2.4-5.4-5.4V148.9z"/>
<g>
<path d="M182.8,160.3c0,0.4-0.2,0.7-0.6,0.7c-0.4,0-0.6-0.3-0.6-0.7c0-0.4,0.2-0.7,0.6-0.7C182.6,159.6,182.8,159.9,182.8,160.3   L182.8,160.3z"/>
<path d="M182.7,156.3c0,0.1,0.1,0.4,0.1,0.8c0,1.2-0.6,1.9-1.8,1.9c-1.1,0-1.9-0.8-1.9-2.1c0-0.3,0.1-0.6,0.1-0.7l0.8,0.2   c0,0.1-0.1,0.3-0.1,0.5c0,0.6,0.4,0.9,1.1,0.9c0.7,0,1-0.3,1-0.9c0-0.2,0-0.3-0.1-0.5L182.7,156.3z"/>
<path d="M181,152.5c1.5,0,1.9,1.1,1.9,1.8c0,1.1-0.7,1.8-1.8,1.8c-1.3,0-1.9-0.9-1.9-1.8C179.1,153.1,179.9,152.5,181,152.5z    M181,154.8c0.6,0,1.1-0.1,1.1-0.6c0-0.4-0.6-0.5-1.1-0.5c-0.5,0-1.1,0.1-1.1,0.5C179.9,154.7,180.5,154.8,181,154.8z"/>
<path d="M180.3,151.8c-0.4,0-0.7,0-1.1,0v-1.1l0.4-0.1v0c-0.3-0.2-0.5-0.6-0.5-1.1c0-0.5,0.2-0.8,0.5-1v0c-0.1-0.1-0.3-0.3-0.4-0.5   c-0.1-0.2-0.1-0.4-0.1-0.6c0-0.8,0.5-1.2,1.4-1.2h2.3v1.2h-2.1c-0.4,0-0.7,0.1-0.7,0.4c0,0.2,0.1,0.4,0.3,0.5c0.1,0,0.2,0,0.2,0   h2.3v1.2h-2.3c-0.3,0-0.6,0-0.6,0.4c0,0.2,0.1,0.4,0.3,0.5c0.1,0,0.2,0,0.3,0h2.3v1.2H180.3z"/>
</g>
</svg>
