<?xml version="1.0" encoding="UTF-8"?>
<!DOCTYPE svg PUBLIC "-//W3C//DTD SVG 1.1 Tiny//EN" "http://www.w3.org/Graphics/SVG/1.1/DTD/svg11-tiny.dtd">
<svg baseProfile="tiny" version="1.0" xmlns:inkscape="http://www.inkscape.org/namespaces/inkscape" xmlns="http://www.w3.org/2000/svg" xmlns:xlink="http://www.w3.org/1999/xlink" x="0px" y="0px" width="300px" height="200px" viewBox="0 0 300 200">
<path stroke="#666666" stroke-width="0.701" d="M42.4,116.3h19.2c5.8,0,10.5,3.9,10.5,8.8V187c0,4.9-4.7,8.8-10.5,8.8  H42.4c-5.8,0-10-4-10.5-8.8c-4.7-53-1.1-57.9,0-61.9C33.1,120.3,36.6,116.3,42.4,116.3z"/>
<linearGradient id="path2872_1_" gradientUnits="userSpaceOnUse" x1="149.7524" y1="69.0859" x2="149.7524" y2="1.8452">
<stop offset="0" style="stop-color:#E6E6E6"/>
<stop offset="0" style="stop-color:#1F62FF"/>
<stop offset="4.968804e-002" style="stop-color:#1D5BF2"/>
<stop offset="0.2957" style="stop-color:#133BB8"/>
<stop offset="0.5224" style="stop-color:#0B218A"/>
<stop offset="0.7225" style="stop-color:#050F69"/>
<stop offset="0.8886" style="stop-color:#010454"/>
<stop offset="1" style="stop-color:#00004D"/>
</linearGradient>
<path fill="url(#path2872_1_)" stroke="#000000" stroke-width="2.4016" d="M69.5,6c50.8-7.9,157.1-2.8,160.6,0.8  c3.5,3.6,9,42.1,9.1,47.2c0.4,20.6-181.9,19.3-178.1,0.9C57.6,51.3,66,9.6,69.5,6z"/>
<linearGradient id="rect2867_1_" gradientUnits="userSpaceOnUse" x1="403.3398" y1="-250.7036" x2="403.3398" y2="-192.334" gradientTransform="matrix(0.8012 0 0 -0.7999 -173.3027 -143.8898)">
<stop offset="0" style="stop-color:#E6E6E6"/>
<stop offset="0.2857" style="stop-color:#B7C6DE"/>
<stop offset="1" style="stop-color:#213756"/>
</linearGradient>
<path fill="url(#rect2867_1_)" stroke="#000000" stroke-width="1.6011" d="M81.5,13c3.3-3.7,131.7-4.2,135-0.5  c3.3,3.7,6.8,37.2,2.5,39.5c-75.7,6.7-70.5,5.5-138,0.5C77.7,48.8,78.2,16.7,81.5,13z"/>
<path fill="#00005E" d="M40,100.5l56.4,3.4l3.3,24l3.3,17.2L40,138.2v-15.8V100.5z"/>
<linearGradient id="rect2874_1_" gradientUnits="userSpaceOnUse" x1="69.6523" y1="53.5928" x2="69.6523" y2="104.9487">
<stop offset="0" style="stop-color:#1F62FF"/>
<stop offset="1" style="stop-color:#00004D"/>
</linearGradient>
<path fill="url(#rect2874_1_)" d="M61.1,53.6c0,0,14.7,5.9,37.1,6.8l-4,44.6l-53.1-3.4c0,0,0-13.7,3.3-20.6  C42.5,56.6,61.1,53.6,61.1,53.6z"/>
<radialGradient id="path4407_1_" cx="45.0298" cy="89.8164" r="23.3219" gradientTransform="matrix(0.8285 0 0 0.8577 0.4886 31.3472)" gradientUnits="userSpaceOnUse">
<stop offset="0" style="stop-color:#1F62FF"/>
<stop offset="1" style="stop-color:#00004D"/>
</radialGradient>
<path fill="url(#path4407_1_)" d="M44.4,80.9c0,0-6.6,3.4-10,10.3c-3.3,6.9-3.3,17.2-3.3,17.2v17.2l10,10.3v-34.3  L44.4,80.9z"/>
<path stroke="#666666" stroke-width="0.701" d="M259.4,116.3h-19.2c-5.8,0-10.5,3.9-10.5,8.8V187  c0,4.9,4.7,8.8,10.5,8.8h19.2c5.8,0,10-4,10.5-8.8c4.7-53,1.1-57.9,0-61.9C268.7,120.3,265.3,116.3,259.4,116.3z"/>
<path fill="#00005E" d="M263.9,100.5l-54.4,4.5l-6.6,24v13.7l59.7-6.9v-12.3L263.9,100.5z"/>
<radialGradient id="path4413_1_" cx="321.4531" cy="89.8164" r="23.3218" gradientTransform="matrix(0.8285 0 0 0.8577 0.4886 31.3472)" gradientUnits="userSpaceOnUse">
<stop offset="0" style="stop-color:#1F62FF"/>
<stop offset="1" style="stop-color:#00004D"/>
</radialGradient>
<path fill="url(#path4413_1_)" d="M260.2,80.9l3.3,20.6l-0.3,34.3l10.3-10.3v-17.2c0,0,0-10.3-3.3-17.2  C266.8,84.4,260.2,80.9,260.2,80.9z"/>
<path fill="#00005E" d="M93.4,105l4.1,23.2l2.6,14.6h102.9l3.3-13.7h-0.9v0l4.2-24H93.4z"/>
<linearGradient id="rect4417_1_" gradientUnits="userSpaceOnUse" x1="152.9609" y1="60.6802" x2="152.9609" y2="105.2739">
<stop offset="0" style="stop-color:#1F62FF"/>
<stop offset="0.2174" style="stop-color:#194FDD"/>
<stop offset="0.6945" style="stop-color:#0A2087"/>
<stop offset="1" style="stop-color:#00004D"/>
</linearGradient>
<path fill="url(#rect4417_1_)" d="M97.5,60.7h109.5l4.6,44.6H94.2L97.5,60.7z"/>
<linearGradient id="path4420_1_" gradientUnits="userSpaceOnUse" x1="235.3057" y1="54.0215" x2="235.3057" y2="105.2739">
<stop offset="0" style="stop-color:#1F62FF"/>
<stop offset="1" style="stop-color:#00004D"/>
</linearGradient>
<path fill="url(#path4420_1_)" d="M240.1,54c0,0-10.6,5.8-33,6.7l3.3,44.6l53.1-3.4c0.5-2.1-2-15.7-3.3-20.6  C259.1,54,240.1,54,240.1,54z"/>
<radialGradient id="path9555_1_" cx="186.208" cy="129.0771" r="95.0765" gradientTransform="matrix(0.8285 0 0 0.8577 0.4886 31.3472)" gradientUnits="userSpaceOnUse">
<stop offset="0" style="stop-color:#0070BF"/>
<stop offset="1" style="stop-color:#00005E"/>
</radialGradient>
<path fill="url(#path9555_1_)" d="M43.9,134.5l-0.3,10.6c0,0,112.6,10.3,222.3,0  l-0.3-10.6C156.3,144.8,43.9,134.5,43.9,134.5z"/>
<linearGradient id="rect5052_1_" gradientUnits="userSpaceOnUse" x1="254.1504" y1="-361.3457" x2="556.5508" y2="-361.3457" gradientTransform="matrix(0.8012 0 0 -0.7999 -173.3027 -143.8898)">
<stop offset="0" style="stop-color:#2C2C2C"/>
<stop offset="0.5082" style="stop-color:#808080"/>
<stop offset="1" style="stop-color:#343434"/>
</linearGradient>
<path fill="url(#rect5052_1_)" d="M30.3,125.5l3.3,17.9c0,0,6.6,11.4,9.5,13c3,1.7,51.6,7.5,56.9,7.5  c0,0,63.1,1.7,102.9,0c39.8-1.7,53-5.4,56.4-6.9c3.3-1.4,10-13.7,10-13.7l3.3-17.9l-10,10.3v-0.6l-59.4,7.2l-102.7,0.1l-60.3-6.6  L30.3,125.5z"/>
<path fill="#00005E" d="M44.7,103.2l-0.3,10.6c0,0,112.2,10.3,221.5,0l-2.2-11.3  C154.8,112.8,44.7,103.2,44.7,103.2z"/>
<path fill="none" stroke="#000000" stroke-width="2.4016" d="M59,53.6c0,0-19.1,6.4-15.4,27.3c0,0-6.6,3.4-10,10.3  c-3.3,6.9-3.3,17.2-3.3,17.2v17.2l3.3,17.9c0,0,6.6,11.4,9.5,13c3,1.7,51.6,7.5,56.9,7.5c0,0,63.1,1.7,102.9,0  c39.8-1.7,53-5.4,56.4-6.9c3.3-1.4,10-13.7,10-13.7l3.3-17.9l0,0v-17.2c0,0,0-10.3-3.3-17.2c-3.3-6.9-10-10.3-10-10.3  C258.3,52.7,239.2,54,239.2,54s-10.6,5.5-33,6.3H97.4C75,59.5,59,53.6,59,53.6z"/>
<radialGradient id="path6622_1_" cx="186.208" cy="104.7813" r="95.0765" gradientTransform="matrix(0.8285 0 0 0.8577 0.4886 31.3472)" gradientUnits="userSpaceOnUse">
<stop offset="0" style="stop-color:#0070BF"/>
<stop offset="1" style="stop-color:#00005E"/>
</radialGradient>
<path fill="url(#path6622_1_)" d="M43.9,113.6l-0.3,10.6c0,0,112.6,10.3,222.3,0  l-0.3-10.6C156.3,123.9,43.9,113.6,43.9,113.6z"/>
<radialGradient id="path8573_1_" cx="186.208" cy="116.9297" r="95.0765" gradientTransform="matrix(0.8285 0 0 0.8577 0.4886 31.3472)" gradientUnits="userSpaceOnUse">
<stop offset="0" style="stop-color:#0070BF"/>
<stop offset="1" style="stop-color:#00005E"/>
</radialGradient>
<path fill="url(#path8573_1_)" d="M43.9,124.1l-0.3,10.6c0,0,112.6,10.3,222.3,0  l-0.3-10.6C156.3,134.3,43.9,124.1,43.9,124.1z"/>
<linearGradient id="rect5450_1_" gradientUnits="userSpaceOnUse" x1="322.123" y1="-356.8184" x2="322.123" y2="-368.8037" gradientTransform="matrix(1.323839e-002 0.6226 0.5996 -1.274862e-002 293.284 -128.3987)">
<stop offset="0" style="stop-color:#666666"/>
<stop offset="1" style="stop-color:#3C3C3C"/>
</linearGradient>
<path fill="url(#rect5450_1_)" stroke="#000000" d="M81.5,63.8L82,89.7l-7.2-0.7l-0.5-24.1L81.5,63.8z"/>
<radialGradient id="path14088_5_" cx="-76.0127" cy="-747.5713" r="16.5" gradientTransform="matrix(0.6235 0 0 -0.6144 101.4063 -354.5036)" gradientUnits="userSpaceOnUse">
<stop offset="0" style="stop-color:#E6E6E6"/>
<stop offset="0.5" style="stop-color:#E65C47"/>
<stop offset="1" style="stop-color:#FF3756"/>
</radialGradient>
<path fill="url(#path14088_5_)" stroke="#000000" d="M64,104.8c0,5.4-4.5,9.8-10,9.8c-5.5,0-10-4.4-10-9.8  c0-5.4,4.5-9.8,10-9.8C59.5,95,64,99.4,64,104.8z"/>
<radialGradient id="path14088_6_" cx="-375.0898" cy="-747.5713" r="16.4997" gradientTransform="matrix(-0.6235 0 0 -0.6144 17.7968 -354.5036)" gradientUnits="userSpaceOnUse">
<stop offset="0" style="stop-color:#E6E6E6"/>
<stop offset="0.5" style="stop-color:#E65C47"/>
<stop offset="1" style="stop-color:#FF3756"/>
</radialGradient>
<path fill="url(#path14088_6_)" stroke="#000000" d="M251.7,95c5.5,0,10,4.4,10,9.8c0,5.4-4.5,9.8-10,9.8  c-5.5,0-10-4.4-10-9.8C241.7,99.4,246.2,95,251.7,95z"/>
<ellipse fill="#9F9F9F" stroke="#000000" stroke-width="30" cx="189.8" cy="94.5" rx="31.8" ry="32"/>
<radialGradient id="path14088_7_" cx="-270.0098" cy="-709.7139" r="16.4995" gradientTransform="matrix(0.2954 0 0 -0.5362 127.5217 -292.0191)" gradientUnits="userSpaceOnUse">
<stop offset="0" style="stop-color:#E6E6E6"/>
<stop offset="0.5" style="stop-color:#E69C47"/>
<stop offset="1" style="stop-color:#FFB556"/>
</radialGradient>
<path fill="url(#path14088_7_)" stroke="#000000" d="M52.5,88.5c0,4.7-2.1,8.6-4.7,8.6c-2.6,0-4.7-3.8-4.7-8.6  c0-4.7,2.1-8.6,4.7-8.6C50.4,80,52.5,83.8,52.5,88.5z"/>
<radialGradient id="path14088_8_" cx="430.7139" cy="-705.9834" r="16.499" gradientTransform="matrix(0.2954 0 0 -0.5362 127.5217 -292.0191)" gradientUnits="userSpaceOnUse">
<stop offset="0" style="stop-color:#E6E6E6"/>
<stop offset="0.5" style="stop-color:#E69C47"/>
<stop offset="1" style="stop-color:#FFB556"/>
</radialGradient>
<path fill="url(#path14088_8_)" stroke="#000000" d="M259.5,86.5c0,4.7-2.1,8.6-4.7,8.6c-2.6,0-4.7-3.8-4.7-8.6  c0-4.7,2.1-8.6,4.7-8.6C257.4,78,259.5,81.8,259.5,86.5z"/>
<circle cx="190.6" cy="81.8" r="2.8"/>
<circle cx="179.2" cy="90.5" r="2.8"/>
<circle cx="182.5" cy="103.8" r="2.8"/>
<circle cx="197.2" cy="104.2" r="2.8"/>
<circle cx="200.8" cy="92.8" r="2.8"/>
<ellipse cx="189.8" cy="94.5" rx="4.4" ry="4.3"/>
<line fill="none" stroke="#000000" x1="74" y1="4.5" x2="74.5" y2="139.5"/>
<line fill="none" stroke="#000000" x1="227" y1="5" x2="227.5" y2="139"/>
<line fill="none" stroke="#000000" x1="202.9" y1="142.7" x2="227.5" y2="139"/>
<line fill="none" stroke="#000000" x1="74.5" y1="139.5" x2="99.5" y2="142.2"/>
<line fill="none" stroke="#000000" x1="100.5" y1="142.2" x2="203.5" y2="142.7"/>
</svg>
