<?xml version="1.0" encoding="UTF-8"?>
<!DOCTYPE svg PUBLIC "-//W3C//DTD SVG 1.1 Tiny//EN" "http://www.w3.org/Graphics/SVG/1.1/DTD/svg11-tiny.dtd">
<svg baseProfile="tiny" version="1.0" xmlns:sodipodi="http://sodipodi.sourceforge.net/DTD/sodipodi-0.dtd" xmlns="http://www.w3.org/2000/svg" xmlns:xlink="http://www.w3.org/1999/xlink" x="0px" y="0px" width="300px" height="200px" viewBox="0 0 300 200">
<path stroke="#666666" stroke-width="0.701" d="M42.4,116.3h19.2c5.8,0,10.5,3.9,10.5,8.8V187c0,4.9-4.7,8.8-10.5,8.8  H42.4c-5.8,0-10-4-10.5-8.8c-4.7-53-1.1-57.9,0-61.9C33.1,120.3,36.6,116.3,42.4,116.3z"/>
<linearGradient id="path2872_1_" gradientUnits="userSpaceOnUse" x1="327.3926" y1="-131.0352" x2="327.3926" y2="-63.7886" gradientTransform="matrix(1 0 0 -1 -177.6602 -61.96)">
<stop offset="0" style="stop-color:#E6E6E6"/>
<stop offset="0" style="stop-color:#1F62FF"/>
<stop offset="4.968804e-002" style="stop-color:#1D5BF2"/>
<stop offset="0.2957" style="stop-color:#133BB8"/>
<stop offset="0.5224" style="stop-color:#0B218A"/>
<stop offset="0.7225" style="stop-color:#050F69"/>
<stop offset="0.8886" style="stop-color:#010454"/>
<stop offset="1" style="stop-color:#00004D"/>
</linearGradient>
<path fill="url(#path2872_1_)" stroke="#000000" stroke-width="2.4016" d="M69.5,6c50.8-7.9,157.1-2.8,160.6,0.8  c3.5,3.6,9,42.1,9.1,47.2c0.4,20.6-181.9,19.3-178.1,0.9C57.6,51.3,66,9.6,69.5,6z"/>
<linearGradient id="rect2867_1_" gradientUnits="userSpaceOnUse" x1="617.7939" y1="912.0713" x2="617.7939" y2="853.7148" gradientTransform="matrix(0.8012 0 0 0.7999 -345.0982 -672.9236)">
<stop offset="0" style="stop-color:#E6E6E6"/>
<stop offset="0.2857" style="stop-color:#B7C6DE"/>
<stop offset="1" style="stop-color:#213756"/>
</linearGradient>
<path fill="url(#rect2867_1_)" stroke="#000000" stroke-width="1.6011" d="M81.5,13c3.3-3.7,131.7-4.2,135-0.5  s6.8,37.2,2.5,39.5c-75.7,6.7-70.5,5.5-138,0.5C77.7,48.8,78.2,16.7,81.5,13z"/>
<path fill="#00005E" d="M40,100.5l56.4,3.4l3.3,24l3.3,17.2l-63-6.9v-15.8V100.5z"/>
<linearGradient id="rect2874_1_" gradientUnits="userSpaceOnUse" x1="247.3105" y1="-115.5601" x2="247.3105" y2="-166.96" gradientTransform="matrix(1 0 0 -1 -177.6602 -61.96)">
<stop offset="0" style="stop-color:#1F62FF"/>
<stop offset="1" style="stop-color:#00004D"/>
</linearGradient>
<path fill="url(#rect2874_1_)" d="M61.1,53.6c0,0,14.7,5.9,37.1,6.8l-4,44.6l-53.1-3.4c0,0,0-13.7,3.3-20.6  C42.5,56.6,61.1,53.6,61.1,53.6z"/>
<radialGradient id="path4407_1_" cx="253.3594" cy="-205.1289" r="23.3356" gradientTransform="matrix(0.8285 0 0 -0.8577 -172.1121 -67.5395)" gradientUnits="userSpaceOnUse">
<stop offset="0" style="stop-color:#1F62FF"/>
<stop offset="1" style="stop-color:#00004D"/>
</radialGradient>
<path fill="url(#path4407_1_)" d="M44.4,80.9c0,0-6.6,3.4-10,10.3c-3.3,6.9-3.3,17.2-3.3,17.2v17.2l10,10.3v-34.3  L44.4,80.9z"/>
<path stroke="#666666" stroke-width="0.701" d="M259.4,116.3h-19.2c-5.8,0-10.5,3.9-10.5,8.8V187  c0,4.9,4.7,8.8,10.5,8.8h19.2c5.8,0,10-4,10.5-8.8c4.7-53,1.1-57.9,0-61.9C268.7,120.3,265.3,116.3,259.4,116.3z"/>
<path fill="#00005E" d="M263.9,100.5l-54.4,4.5l-6.6,24v13.7l59.7-6.9v-12.3L263.9,100.5z"/>
<radialGradient id="path4413_1_" cx="529.7822" cy="-205.0703" r="23.2954" gradientTransform="matrix(0.8285 0 0 -0.8577 -172.1121 -67.5395)" gradientUnits="userSpaceOnUse">
<stop offset="0" style="stop-color:#1F62FF"/>
<stop offset="1" style="stop-color:#00004D"/>
</radialGradient>
<path fill="url(#path4413_1_)" d="M260.2,80.9l3.3,20.6l-0.3,34.3l10.3-10.3v-17.2c0,0,0-10.3-3.3-17.2  C266.8,84.4,260.2,80.9,260.2,80.9z"/>
<path fill="#00005E" d="M93.4,105l4.1,23.2l2.6,14.6H203l3.3-13.7h-0.9l0,0l4.2-24L93.4,105L93.4,105z"/>
<linearGradient id="rect4417_1_" gradientUnits="userSpaceOnUse" x1="330.5605" y1="-122.6602" x2="330.5605" y2="-167.2598" gradientTransform="matrix(1 0 0 -1 -177.6602 -61.96)">
<stop offset="0" style="stop-color:#1F62FF"/>
<stop offset="0.2174" style="stop-color:#194FDD"/>
<stop offset="0.6945" style="stop-color:#0A2087"/>
<stop offset="1" style="stop-color:#00004D"/>
</linearGradient>
<path fill="url(#rect4417_1_)" d="M97.5,60.7H207l4.6,44.6H94.2L97.5,60.7z"/>
<linearGradient id="path4420_1_" gradientUnits="userSpaceOnUse" x1="412.9922" y1="-115.96" x2="412.9922" y2="-167.2598" gradientTransform="matrix(1 0 0 -1 -177.6602 -61.96)">
<stop offset="0" style="stop-color:#1F62FF"/>
<stop offset="1" style="stop-color:#00004D"/>
</linearGradient>
<path fill="url(#path4420_1_)" d="M240.1,54c0,0-10.6,5.8-33,6.7l3.3,44.6l53.1-3.4c0.5-2.1-2-15.7-3.3-20.6  C259.1,54,240.1,54,240.1,54z"/>
<radialGradient id="path9555_1_" cx="394.5234" cy="-244.3711" r="95.0686" gradientTransform="matrix(0.8285 0 0 -0.8577 -172.1121 -67.5395)" gradientUnits="userSpaceOnUse">
<stop offset="0" style="stop-color:#0070BF"/>
<stop offset="1" style="stop-color:#00005E"/>
</radialGradient>
<path fill="url(#path9555_1_)" d="M43.9,134.5l-0.3,10.6c0,0,112.6,10.3,222.3,0  l-0.3-10.6C156.3,144.8,43.9,134.5,43.9,134.5z"/>
<linearGradient id="rect5052_1_" gradientUnits="userSpaceOnUse" x1="468.5449" y1="1022.5684" x2="770.9658" y2="1022.5684" gradientTransform="matrix(0.8012 0 0 0.7999 -345.0982 -672.9236)">
<stop offset="0" style="stop-color:#2C2C2C"/>
<stop offset="0.5082" style="stop-color:#808080"/>
<stop offset="1" style="stop-color:#343434"/>
</linearGradient>
<path fill="url(#rect5052_1_)" d="M30.3,125.5l3.3,17.9c0,0,6.6,11.4,9.5,13c3,1.7,51.6,7.5,56.9,7.5  c0,0,63.1,1.7,102.9,0c39.8-1.7,53-5.4,56.4-6.9c3.3-1.4,10-13.7,10-13.7l3.3-17.9l-10,10.3v-0.6l-59.4,7.2l-102.7,0.1l-60.3-6.6  L30.3,125.5z"/>
<path fill="#00005E" d="M44.7,103.2l-0.3,10.6c0,0,112.2,10.3,221.5,0l-2.2-11.3  C154.8,112.8,44.7,103.2,44.7,103.2z"/>
<path fill="none" stroke="#000000" stroke-width="2.4016" d="M59,53.6c0,0-19.1,6.4-15.4,27.3c0,0-6.6,3.4-10,10.3  c-3.3,6.9-3.3,17.2-3.3,17.2v17.2l3.3,17.9c0,0,6.6,11.4,9.5,13c3,1.7,51.6,7.5,56.9,7.5c0,0,63.1,1.7,102.9,0  c39.8-1.7,53-5.4,56.4-6.9c3.3-1.4,10-13.7,10-13.7l3.3-17.9l0,0v-17.2c0,0,0-10.3-3.3-17.2s-10-10.3-10-10.3  c-1-28.1-20.1-26.8-20.1-26.8s-10.6,5.5-33,6.3H97.4C75,59.5,59,53.6,59,53.6z"/>
<radialGradient id="path6622_1_" cx="394.5234" cy="-220.0742" r="95.0719" gradientTransform="matrix(0.8285 0 0 -0.8577 -172.1121 -67.5395)" gradientUnits="userSpaceOnUse">
<stop offset="0" style="stop-color:#0070BF"/>
<stop offset="1" style="stop-color:#00005E"/>
</radialGradient>
<path fill="url(#path6622_1_)" d="M43.9,113.6l-0.3,10.6c0,0,112.6,10.3,222.3,0  l-0.3-10.6C156.3,123.9,43.9,113.6,43.9,113.6z"/>
<radialGradient id="path8573_1_" cx="394.5234" cy="-232.2227" r="95.0676" gradientTransform="matrix(0.8285 0 0 -0.8577 -172.1121 -67.5395)" gradientUnits="userSpaceOnUse">
<stop offset="0" style="stop-color:#0070BF"/>
<stop offset="1" style="stop-color:#00005E"/>
</radialGradient>
<path fill="url(#path8573_1_)" d="M43.9,124.1l-0.3,10.6c0,0,112.6,10.3,222.3,0  l-0.3-10.6C156.3,134.3,43.9,124.1,43.9,124.1z"/>
<linearGradient id="rect5450_1_" gradientUnits="userSpaceOnUse" x1="872.7773" y1="380.7266" x2="872.7773" y2="392.7119" gradientTransform="matrix(1.323839e-002 0.6226 -0.5996 1.274862e-002 300.3301 -471.5337)">
<stop offset="0" style="stop-color:#666666"/>
<stop offset="1" style="stop-color:#3C3C3C"/>
</linearGradient>
<path fill="url(#rect5450_1_)" stroke="#000000" d="M81.5,63.8L82,89.7L74.8,89l-0.5-24.1L81.5,63.8z"/>
<radialGradient id="path14088_5_" cx="191.0938" cy="1530.2734" r="16.5139" gradientTransform="matrix(0.6235 0 0 0.6144 -65.1473 -835.4005)" gradientUnits="userSpaceOnUse">
<stop offset="0" style="stop-color:#E6E6E6"/>
<stop offset="0.5" style="stop-color:#E65C47"/>
<stop offset="1" style="stop-color:#FF3756"/>
</radialGradient>
<path fill="url(#path14088_5_)" stroke="#000000" d="M64,104.8c0,5.4-4.5,9.8-10,9.8s-10-4.4-10-9.8  c0-5.4,4.5-9.8,10-9.8S64,99.4,64,104.8z"/>
<radialGradient id="path14088_6_" cx="-583.2158" cy="1530.2734" r="16.503" gradientTransform="matrix(-0.6235 0 0 0.6144 -111.9699 -835.4005)" gradientUnits="userSpaceOnUse">
<stop offset="0" style="stop-color:#E6E6E6"/>
<stop offset="0.5" style="stop-color:#E65C47"/>
<stop offset="1" style="stop-color:#FF3756"/>
</radialGradient>
<path fill="url(#path14088_6_)" stroke="#000000" d="M251.7,95c5.5,0,10,4.4,10,9.8c0,5.4-4.5,9.8-10,9.8  s-10-4.4-10-9.8C241.7,99.4,246.2,95,251.7,95z"/>
<ellipse fill="#9F9F9F" stroke="#000000" stroke-width="30" cx="189.8" cy="94.5" rx="31.8" ry="32"/>
<radialGradient id="path14088_7_" cx="261.0479" cy="1568.7285" r="16.4995" gradientTransform="matrix(0.2954 0 0 0.5362 -29.353 -752.623)" gradientUnits="userSpaceOnUse">
<stop offset="0" style="stop-color:#E6E6E6"/>
<stop offset="0.5" style="stop-color:#E69C47"/>
<stop offset="1" style="stop-color:#FFB556"/>
</radialGradient>
<path fill="url(#path14088_7_)" stroke="#000000" d="M52.5,88.5c0,4.7-2.1,8.6-4.7,8.6c-2.6,0-4.7-3.8-4.7-8.6  c0-4.7,2.1-8.6,4.7-8.6C50.4,80,52.5,83.8,52.5,88.5z"/>
<radialGradient id="path14088_8_" cx="961.7705" cy="1564.999" r="16.4995" gradientTransform="matrix(0.2954 0 0 0.5362 -29.353 -752.623)" gradientUnits="userSpaceOnUse">
<stop offset="0" style="stop-color:#E6E6E6"/>
<stop offset="0.5" style="stop-color:#E69C47"/>
<stop offset="1" style="stop-color:#FFB556"/>
</radialGradient>
<path fill="url(#path14088_8_)" stroke="#000000" d="M259.5,86.5c0,4.7-2.1,8.6-4.7,8.6c-2.6,0-4.7-3.8-4.7-8.6  c0-4.7,2.1-8.6,4.7-8.6C257.4,78,259.5,81.8,259.5,86.5z"/>
<circle cx="190.6" cy="81.8" r="2.8"/>
<circle cx="179.2" cy="90.5" r="2.8"/>
<circle cx="182.5" cy="103.8" r="2.8"/>
<circle cx="197.2" cy="104.2" r="2.8"/>
<circle cx="200.8" cy="92.8" r="2.8"/>
<ellipse cx="189.8" cy="94.5" rx="4.4" ry="4.3"/>
<line fill="none" stroke="#000000" x1="74" y1="4.5" x2="74.5" y2="139.5"/>
<line fill="none" stroke="#000000" x1="227" y1="5" x2="227.5" y2="139"/>
<line fill="none" stroke="#000000" x1="202.9" y1="142.7" x2="227.5" y2="139"/>
<line fill="none" stroke="#000000" x1="74.5" y1="139.5" x2="99.5" y2="142.2"/>
<line fill="none" x1="100.5" y1="142.2" x2="203.5" y2="142.7"/>
<path fill="#FFFFFF" stroke="#000000" d="M119.5,148.9c0-3,2.4-5.4,5.4-5.4h54.8c3,0,5.4,2.4,5.4,5.4v8.7c0,3-2.4,5.4-5.4,5.4h-54.8  c-3,0-5.4-2.4-5.4-5.4V148.9z"/>
<g>
<path d="M126.6,146.9h3.7c1.3,0,2.2,0.4,2.8,1.2c0.6,0.8,0.9,2.3,0.9,4.4c0,2.1-0.3,3.7-0.9,4.6s-1.6,1.4-2.9,1.4h-3.7V146.9z    M128.7,157h1.3c0.7,0,1.1-0.3,1.4-0.8c0.3-0.5,0.4-1.7,0.4-3.4c0-1.8-0.2-3-0.5-3.5s-0.8-0.7-1.5-0.7h-1.2V157z"/>
<path d="M140.3,150.9c-0.2-0.1-0.4-0.1-0.6-0.1c-0.7,0-1.2,0.2-1.4,0.6s-0.4,1.1-0.4,2.1v5h-2v-7.4c0-0.4,0-1,0-1.7h1.9   c0.1,0.5,0.1,0.9,0.1,1.3c0.1-0.4,0.4-0.8,0.6-1s0.6-0.4,1-0.4c0.3,0,0.5,0,0.8,0.1V150.9z"/>
<path d="M141.2,161.2c-0.3,0-0.5,0-0.7,0c-0.2,0-0.4-0.1-0.6-0.1v-1.6c0.2,0.1,0.3,0.1,0.5,0.1c0.1,0,0.3,0,0.5,0   c0.4,0,0.7-0.1,0.9-0.3c0.2-0.2,0.3-0.5,0.3-1.1v-9.9h-0.7v-1.5h3.6v1.5h-0.7v9.9c0,0.9-0.2,1.7-0.7,2.2   C143,161,142.3,161.2,141.2,161.2z"/>
<path d="M153.3,158.6h-2c0-0.2-0.1-0.6-0.1-1.2c-0.4,0.9-1.2,1.3-2.3,1.3c-1.7,0-2.5-1.1-2.5-3.2v-6.1h2v5.9c0,1.3,0.4,2,1.3,2   c0.5,0,0.9-0.2,1.1-0.6c0.3-0.4,0.4-0.9,0.4-1.5v-5.8h2v7.8C153.2,157.7,153.3,158.2,153.3,158.6z"/>
<path d="M162.5,158.6H160l-2.6-5.1v5.1h-2v-12.4h2v7.3l2.4-4h2.3l-2.4,4L162.5,158.6z"/>
<path d="M170.6,158.6h-2.5l-2.6-5.1v5.1h-2v-12.4h2v7.3l2.4-4h2.3l-2.4,4L170.6,158.6z"/>
<path d="M175.9,158.6c0-0.2-0.1-0.4-0.1-0.5c0-0.2,0-0.3,0-0.5c-0.2,0.4-0.5,0.7-0.9,0.9s-0.8,0.3-1.3,0.3c-0.8,0-1.5-0.3-1.9-0.8   c-0.4-0.5-0.6-1.2-0.6-2.1c0-1.1,0.3-1.9,0.9-2.3c0.6-0.5,1.6-0.7,2.9-0.7h0.7v-0.3c0-0.7-0.1-1.1-0.4-1.4   c-0.3-0.3-0.7-0.4-1.2-0.4c-0.5,0-0.9,0-1.2,0.1c-0.3,0.1-0.7,0.2-1,0.3v-1.5c0.4-0.2,0.8-0.3,1.2-0.3c0.4-0.1,0.8-0.1,1.2-0.1   c1.2,0,2.1,0.2,2.6,0.7s0.8,1.3,0.8,2.5v4.7c0,0.2,0,0.5,0,0.7c0,0.2,0,0.5,0.1,0.7H175.9z M175.7,154.1H175   c-0.6,0-1.1,0.1-1.4,0.3c-0.3,0.2-0.4,0.7-0.4,1.3c0,0.5,0.1,0.9,0.3,1.2c0.2,0.2,0.5,0.4,0.9,0.4c0.4,0,0.8-0.2,1-0.5   s0.4-0.8,0.4-1.4V154.1z"/>
</g>
<path fill="#1A00FF" d="M124.9,163c-3,0-5.4-2.4-5.4-5.4v-8.7c0-3,2.4-5.4,5.4-5.4"/>
<path fill="none" stroke="#000000" d="M119.5,148.9c0-3,2.4-5.4,5.4-5.4h54.8c3,0,5.4,2.4,5.4,5.4v8.7c0,3-2.4,5.4-5.4,5.4h-54.8  c-3,0-5.4-2.4-5.4-5.4V148.9z"/>
<path fill="none" stroke="#FFFF26" d="M124.3,157.9c0,1-0.7,1.8-1.5,1.8h-0.3c-0.9,0-1.5-0.8-1.5-1.8l0,0c0-1,0.7-1.8,1.5-1.8h0.3  C123.6,156.1,124.3,156.9,124.3,157.9L124.3,157.9z"/>
<g>
<path fill="#FFFF26" d="M120.7,147.8h2.2v1h-1.2v1.6h1.1v1h-1.1v2.5h-1V147.8z"/>
<path fill="#FFFF26" d="M124.6,147.8v6.2h-1v-6.2H124.6z"/>
</g>
<g>
<path fill="#FFFFFF" d="M177.2,58.8l1.5-0.7c0.6,0.3,1.1,0.7,1.4,1.2c0.4,0.6,0.5,1.2,0.3,1.8c-0.1,0.6-0.5,1-1,1.3   c-0.7,0.3-1.5,0.3-2.4-0.1c-0.9-0.4-1.6-1.1-2.2-2c-0.6-0.9-0.8-1.8-0.6-2.6c0.1-0.8,0.6-1.4,1.4-1.8c0.3-0.1,0.6-0.2,1-0.2   l1.1,1.8c-0.3,0-0.6,0-0.8,0.1c-0.4,0.2-0.6,0.4-0.7,0.8c-0.1,0.4,0,0.8,0.3,1.2c0.3,0.4,0.6,0.7,1,0.9c0.4,0.2,0.7,0.1,1.1,0   c0.2-0.1,0.3-0.2,0.2-0.4c-0.1-0.1-0.2-0.1-0.3-0.1l-0.4,0.2L177.2,58.8z"/>
<path fill="#FFFFFF" d="M181.9,55.9l0.9,1.9c-0.1,0-0.3,0-0.3,0c-0.3,0.1-0.3,0.4-0.1,0.9l1.1,2.2l-1.6,0.5l-1.2-2.5   c-0.3-0.7-0.4-1.3-0.3-1.8c0.1-0.5,0.5-0.8,1-1C181.5,55.9,181.7,55.9,181.9,55.9z"/>
<path fill="#FFFFFF" d="M186.4,58.2l0.7,1.8c-0.1,0-0.2,0.1-0.4,0.1c-0.7,0.1-1.3,0-1.9-0.4c-0.6-0.4-1.1-0.9-1.3-1.7   c-0.3-0.7-0.3-1.3,0-1.9c0.3-0.6,0.7-0.9,1.4-1c0.7-0.1,1.4,0,1.9,0.4c0.6,0.4,1,1,1.3,1.7l0.9,2.3l-1.7,0.3l-0.8-2.2   c-0.1-0.3-0.2-0.4-0.4-0.6c-0.2-0.1-0.3-0.2-0.5-0.1c-0.2,0-0.3,0.1-0.4,0.3c-0.1,0.2-0.1,0.3,0,0.5c0.1,0.2,0.2,0.3,0.4,0.5   s0.3,0.1,0.5,0.1C186.2,58.4,186.3,58.3,186.4,58.2z"/>
<path fill="#FFFFFF" d="M192,61.3l-1.7,0l-0.9-4c-0.2-0.7-0.1-1.3,0.2-1.8c0.2-0.3,0.4-0.5,0.7-0.6c0.3-0.2,0.6-0.2,1-0.2   c0.7,0,1.3,0.2,1.9,0.7c0.6,0.5,0.9,1.1,1.1,1.8c0.2,0.7,0,1.3-0.3,1.8c-0.4,0.5-0.9,0.7-1.5,0.7c-0.1,0-0.3,0-0.5,0l-0.4-2   c0.2,0.1,0.3,0.2,0.5,0.2c0.2,0,0.3-0.1,0.4-0.2c0.1-0.1,0.1-0.3,0.1-0.5c0-0.2-0.1-0.3-0.3-0.5c-0.2-0.1-0.3-0.2-0.5-0.2   c-0.4,0-0.6,0.3-0.5,1L192,61.3z"/>
<path fill="#FFFFFF" d="M196.9,53.4l0.1,2c0.3-0.2,0.6-0.2,0.9-0.2c0.5,0.1,0.8,0.3,1.1,0.7c0.3,0.4,0.5,0.8,0.5,1.4l0.2,3   l-1.8-0.3l-0.2-2.5c0-0.2,0-0.3-0.1-0.4c0-0.1-0.1-0.1-0.3-0.1c-0.2,0-0.3,0.1-0.3,0.4l0.2,2.6l-1.8-0.3l-0.4-6.5L196.9,53.4z"/>
<path fill="#FFFFFF" d="M202.1,54.2c0.2,0.1,0.4,0.2,0.6,0.4c0.2,0.2,0.2,0.4,0.2,0.7c0,0.2-0.1,0.4-0.3,0.5   c-0.2,0.1-0.4,0.1-0.7,0c-0.3-0.1-0.5-0.2-0.6-0.4c-0.2-0.2-0.2-0.4-0.2-0.7c0-0.2,0.1-0.4,0.3-0.5S201.8,54.2,202.1,54.2z    M202.8,56.6l-0.3,4.6l-1.8-0.5L201,56L202.8,56.6z"/>
<path fill="#FFFFFF" d="M206.9,60.7l1.7,0.7c-0.2,0.6-0.6,1-1.1,1.2c-0.5,0.2-1.1,0.2-1.8-0.1c-0.7-0.3-1.2-0.8-1.6-1.4   c-0.4-0.7-0.5-1.3-0.3-1.9c0.1-0.6,0.5-1,1.1-1.3c0.6-0.2,1.2-0.2,1.9,0.1c0.6,0.3,1.1,0.7,1.4,1.2c0.4,0.5,0.5,1.1,0.5,1.7   l-1.8-0.7c-0.1-0.3-0.3-0.4-0.5-0.5c-0.2-0.1-0.4-0.1-0.5,0c-0.2,0.1-0.3,0.2-0.3,0.4c0,0.2,0,0.4,0.1,0.6c0.1,0.2,0.3,0.3,0.5,0.4   C206.4,61,206.7,61,206.9,60.7z"/>
<path fill="#FFFFFF" d="M213.4,61.8l-0.7,1.6c-0.2-0.1-0.4-0.2-0.5-0.2c-0.1,0-0.2,0.1-0.4,0.4c-0.4,0.7-1,1-1.7,1   c-0.4,0-0.9-0.2-1.4-0.6l-0.2-0.1l0.7-1.6l0.1,0c0.3,0.2,0.5,0.2,0.6,0.2c0.2,0,0.3-0.2,0.4-0.4c0.2-0.4,0.4-0.6,0.5-0.8   c0.1-0.1,0.3-0.2,0.6-0.3c0.5-0.1,1,0.1,1.5,0.4L213.4,61.8z"/>
<path fill="#FFFFFF" d="M219.6,65l-2.4,2.5c-0.4,0.4-0.4,0.8-0.1,1.1c0.2,0.2,0.3,0.2,0.5,0.3c0.2,0,0.3,0,0.5-0.1   c0.1-0.1,0.2-0.3,0.2-0.5c0-0.2-0.1-0.3-0.2-0.5c-0.1-0.1-0.3-0.2-0.5-0.2l1.2-1.2c0.2,0.2,0.3,0.3,0.4,0.4   c0.5,0.5,0.8,1.1,0.9,1.8c0.1,0.7-0.1,1.2-0.5,1.7c-0.4,0.4-1,0.6-1.7,0.5c-0.7-0.1-1.3-0.4-1.8-1c-0.3-0.3-0.5-0.6-0.7-1   c-0.2-0.4-0.3-0.7-0.3-1.1c0-0.6,0.2-1.1,0.7-1.6l2.5-2.5L219.6,65z"/>
<path fill="#FFFFFF" d="M217.4,73.8l1.2-0.7c0.1,0.3,0.2,0.5,0.3,0.6c0.4,0.5,0.9,0.7,1.5,0.6c-0.3-0.2-0.6-0.4-0.8-0.7   c-0.3-0.4-0.4-0.8-0.3-1.2c0.1-0.4,0.3-0.7,0.7-0.9l2.3-1.3l1.1,1.6l-2,1.1c-0.2,0.1-0.3,0.3-0.1,0.5c0.1,0.2,0.3,0.2,0.6,0.1   l2-1.1l1.1,1.6l-3.3,1.9c-0.6,0.3-1.3,0.4-1.9,0.2c-0.8-0.2-1.4-0.7-1.9-1.4C217.6,74.5,217.5,74.1,217.4,73.8z"/>
<path fill="#FFFFFF" d="M222,81.4l-0.7-1.8l3.7-0.6c0.7-0.1,1.3,0,1.9,0.3c0.3,0.2,0.6,0.4,0.9,0.7c0.3,0.3,0.5,0.7,0.6,1   c0.3,0.7,0.3,1.3,0,1.9c-0.3,0.6-0.7,0.9-1.4,1c-0.6,0.1-1.3-0.1-1.9-0.5c-0.6-0.4-1.1-0.9-1.3-1.6c0-0.1-0.1-0.3-0.1-0.5l1.8-0.3   c-0.1,0.2-0.1,0.3,0,0.5c0.1,0.2,0.2,0.3,0.4,0.4c0.2,0.1,0.4,0.2,0.5,0.1c0.2,0,0.3-0.1,0.4-0.3c0.1-0.2,0.1-0.3,0-0.5   c-0.2-0.5-0.5-0.6-1.1-0.5L222,81.4z"/>
<path fill="#FFFFFF" d="M226.7,90.5l-0.7,0.1c-0.3-0.6-0.5-1.3-0.6-2c-0.2-1.2,0-2.1,0.6-2.7c0.5-0.5,1.2-0.7,2.1-0.7   c1,0.1,1.8,0.5,2.6,1.2c0.7,0.7,1.2,1.6,1.3,2.5c0.1,0.9,0,1.7-0.5,2.2c-0.4,0.6-1.1,0.8-1.9,0.7c-0.6,0-1.2-0.3-1.6-0.7   c-0.5-0.4-0.7-0.9-0.8-1.5c0-0.3,0-0.5,0.1-0.7c0.1-0.2,0.2-0.3,0.4-0.2c0.1,0,0.2,0,0.3,0.1l0.7,0.2c0.1,0,0.1,0,0.2,0   c0.3,0,0.4-0.1,0.3-0.4c0-0.2-0.1-0.3-0.2-0.4c-0.1-0.1-0.3-0.2-0.4-0.2c-0.2,0-0.3,0.1-0.3,0.3c0,0.1,0,0.2,0.1,0.3l-1.2-0.5   c0-0.1-0.1-0.2-0.1-0.3c-0.1-0.3,0-0.6,0.2-0.8c0.2-0.2,0.4-0.3,0.8-0.2c0.6,0,1.1,0.3,1.6,0.7c0.5,0.5,0.8,1,0.8,1.5   c0.1,0.4,0,0.7-0.2,1c-0.2,0.2-0.4,0.3-0.8,0.3c-0.1,0-0.3,0-0.5-0.1l-0.6-0.2l-0.1,0c-0.1,0-0.2-0.1-0.2-0.1   c-0.2,0-0.2,0.1-0.2,0.2c0,0.2,0.2,0.4,0.5,0.6c0.3,0.2,0.7,0.3,1.1,0.3c0.6,0,1.1-0.1,1.4-0.5c0.3-0.4,0.4-1,0.3-1.7   c-0.1-0.8-0.5-1.4-1-2c-0.6-0.5-1.3-0.8-2-0.9c-0.7-0.1-1.2,0.1-1.6,0.5c-0.5,0.4-0.7,1.1-0.5,2.1   C226.2,89.3,226.4,89.9,226.7,90.5z"/>
<path fill="#FFFFFF" d="M230.5,96.6l-1.9-0.5c0-0.2,0-0.4-0.1-0.5c-0.1-0.1-0.3-0.2-0.6-0.3c-0.9-0.3-1.6-0.8-1.9-1.5   c-0.2-0.4-0.3-0.9-0.3-1.5l0-0.2l1.9,0.5l0,0.1c0,0.3,0.1,0.5,0.2,0.6c0.1,0.2,0.3,0.3,0.6,0.4c0.5,0.1,0.8,0.3,1,0.4   s0.4,0.3,0.6,0.5c0.3,0.4,0.5,0.9,0.5,1.6L230.5,96.6z"/>
<path fill="#FFFFFF" d="M227.6,99.6l-0.2,1.7c-0.7-0.3-1.2-0.7-1.6-1.3c-0.4-0.6-0.5-1.2-0.4-1.8c0.1-0.7,0.4-1.1,1-1.4   c0.5-0.3,1.2-0.3,1.9,0c0.7,0.2,1.2,0.7,1.6,1.3c0.4,0.6,0.6,1.3,0.5,1.9c-0.1,0.6-0.3,1-0.8,1.3c-0.4,0.3-0.9,0.4-1.5,0.3l0.2-1.7   c0.2-0.1,0.4-0.2,0.4-0.4c0-0.2,0-0.4-0.1-0.5c-0.1-0.2-0.3-0.3-0.5-0.4c-0.2-0.1-0.4-0.1-0.5,0s-0.3,0.2-0.3,0.4   C227.1,99.1,227.2,99.3,227.6,99.6z"/>
<path fill="#FFFFFF" d="M229,105.6c-0.2,0.6-0.6,1-1.2,1.2c-0.6,0.2-1.2,0.1-1.9-0.2c-0.7-0.3-1.2-0.8-1.5-1.5   c-0.3-0.7-0.4-1.3-0.2-1.9c0.2-0.6,0.6-1,1.2-1.2c0.6-0.2,1.2-0.1,1.9,0.2c0.7,0.3,1.2,0.9,1.5,1.5   C229.1,104.3,229.2,104.9,229,105.6z M227.3,104.6c0.1-0.2,0-0.3-0.1-0.5c-0.1-0.2-0.2-0.3-0.4-0.4c-0.2-0.1-0.4-0.1-0.5-0.1   c-0.2,0-0.3,0.2-0.3,0.3c-0.1,0.2,0,0.3,0.1,0.5c0.1,0.2,0.2,0.3,0.4,0.4c0.2,0.1,0.4,0.1,0.5,0.1   C227.1,104.9,227.3,104.8,227.3,104.6z"/>
</g>
<g>
<path d="M182.6,160.3c0,0.4-0.2,0.7-0.6,0.7c-0.4,0-0.6-0.3-0.6-0.7c0-0.4,0.2-0.7,0.6-0.7C182.3,159.6,182.6,159.9,182.6,160.3   L182.6,160.3z"/>
<path d="M182.5,156.3c0,0.1,0.1,0.4,0.1,0.8c0,1.2-0.6,1.9-1.8,1.9c-1.1,0-1.9-0.8-1.9-2.1c0-0.3,0.1-0.6,0.1-0.7l0.8,0.2   c0,0.1-0.1,0.3-0.1,0.5c0,0.6,0.4,0.9,1.1,0.9c0.7,0,1-0.3,1-0.9c0-0.2,0-0.3-0.1-0.5L182.5,156.3z"/>
<path d="M180.7,152.5c1.5,0,1.9,1.1,1.9,1.8c0,1.1-0.7,1.8-1.8,1.8c-1.3,0-1.9-0.9-1.9-1.8C178.9,153.1,179.6,152.5,180.7,152.5z    M180.7,154.8c0.6,0,1.1-0.1,1.1-0.6c0-0.4-0.6-0.5-1.1-0.5c-0.5,0-1.1,0.1-1.1,0.5C179.6,154.7,180.2,154.8,180.7,154.8z"/>
<path d="M180,151.8c-0.4,0-0.7,0-1.1,0v-1.1l0.4-0.1v0c-0.3-0.2-0.5-0.6-0.5-1.1c0-0.5,0.2-0.8,0.5-1v0c-0.1-0.1-0.3-0.3-0.4-0.5   c-0.1-0.2-0.1-0.4-0.1-0.6c0-0.8,0.5-1.2,1.4-1.2h2.3v1.2h-2.1c-0.4,0-0.7,0.1-0.7,0.4c0,0.2,0.1,0.4,0.3,0.5c0.1,0,0.2,0,0.2,0   h2.3v1.2h-2.3c-0.3,0-0.6,0-0.6,0.4c0,0.2,0.1,0.4,0.3,0.5c0.1,0,0.2,0,0.3,0h2.3v1.2H180z"/>
</g>
</svg>
