<?xml version="1.0" encoding="UTF-8" standalone="no"?>
<!DOCTYPE svg PUBLIC "-//W3C//DTD SVG 1.1 Tiny//EN" "http://www.w3.org/Graphics/SVG/1.1/DTD/svg11-tiny.dtd">
<svg xmlns="http://www.w3.org/2000/svg" xmlns:xlink="http://www.w3.org/1999/xlink" baseProfile="tiny" height="256px" version="1.1" viewBox="0 0 256 256" width="256px" x="0px" y="0px">
<rect fill="none" height="256" width="256"/>
<g>
<path d="M135.392,93.973   c19.114-4.23,39.228,1.366,53.398,14.859" fill="none" stroke="#2848F9" stroke-linecap="round" stroke-linejoin="round" stroke-width="12"/>
<path d="M122.581,72.126   c31.52-10.17,66.334-0.565,88.188,24.298" fill="none" stroke="#E79E25" stroke-linecap="round" stroke-linejoin="round" stroke-width="12"/>
<path d="M109.79,48.626   c44.446-16.611,94.882-2.574,124.354,34.604" fill="none" stroke="#DA1174" stroke-linecap="round" stroke-linejoin="round" stroke-width="12"/>
</g>
<g>
<radialGradient cx="-101.9917" cy="-667.4619" gradientTransform="matrix(-0.276 0.893 0.925 0.2859 318.7339 280.9084)" gradientUnits="userSpaceOnUse" id="SVGID_1_" r="611.7906">
<stop offset="0" style="stop-color:#FFFFFF"/>
<stop offset="0.0251" style="stop-color:#E7F2FE"/>
<stop offset="0.0689" style="stop-color:#C3DEFD"/>
<stop offset="0.1099" style="stop-color:#A9D0FD"/>
<stop offset="0.1468" style="stop-color:#99C7FC"/>
<stop offset="0.1759" style="stop-color:#94C4FC"/>
<stop offset="0.2358" style="stop-color:#88BAF7"/>
<stop offset="0.3433" style="stop-color:#69A0EA"/>
<stop offset="0.4221" style="stop-color:#4E8ADE"/>
<stop offset="0.8442" style="stop-color:#182B61"/>
<stop offset="1" style="stop-color:#000000"/>
</radialGradient>
<path d="M79.417,189.983l-0.143-0.273l-0.014-0.016l-0.213-0.504l-0.096-0.253   c-2.248-5.655-2.561-11.466-0.916-16.791c2.629-8.499,9.493-14.009,16.805-16.653l-16.026-26.722   c-4.714,4.243-10.59,6.933-16.518,7.347c-7.787,0.541-15.044-2.666-20.5-9.027l-0.322-0.376l-0.139-0.174l-0.165-0.239l-0.13-0.174   l-0.043-0.07c-1.491-2.17-6.876-10.095-13.363-20.955c-7.809-12.931-10.124-22.447-7.53-30.855   c1.608-5.203,4.955-9.356,9.893-12.299l0.354-0.215l0.419-0.252l0.441-0.181l0.337-0.139c31.247-13.027,57.045-2.406,78.881,32.438   l7.542,12.006c8.205,13.038,8.205,13.038,16.164,26.905l6.629,11.528c12.724,22.13,16.457,40.858,11.386,57.235   c-3.198,10.34-9.671,19.398-19.817,27.716l-0.33,0.269l-0.311,0.258l-0.351,0.215l-0.37,0.217   c-9.532,5.699-24.074,7.184-39.259-18.168C84.303,199.456,79.6,190.358,79.417,189.983z" fill="url(#SVGID_1_)"/>
<radialGradient cx="-111.0933" cy="-345.9292" gradientTransform="matrix(-0.2874 0.9297 0.941 0.2908 335.7068 269.4222)" gradientUnits="userSpaceOnUse" id="SVGID_2_" r="228.0057">
<stop offset="0" style="stop-color:#FFFFFF"/>
<stop offset="0.0251" style="stop-color:#E7F2FE"/>
<stop offset="0.0689" style="stop-color:#C3DEFD"/>
<stop offset="0.1099" style="stop-color:#A9D0FD"/>
<stop offset="0.1468" style="stop-color:#99C7FC"/>
<stop offset="0.1759" style="stop-color:#94C4FC"/>
<stop offset="0.2358" style="stop-color:#88BAF7"/>
<stop offset="0.3433" style="stop-color:#69A0EA"/>
<stop offset="0.4221" style="stop-color:#4E8ADE"/>
<stop offset="0.8442" style="stop-color:#182B61"/>
<stop offset="1" style="stop-color:#000000"/>
</radialGradient>
<path d="M84.527,187.366l-0.138-0.257l-0.101-0.267c-1.752-4.431-2.016-8.928-0.76-12.977   c2.803-9.053,11.913-13.734,19.742-14.389c-0.125-0.732-0.451-1.709-0.818-2.451l-21.447-35.758   c-0.483-0.659-1.174-1.366-1.74-1.829c-4.042,6.286-10.694,10.491-17.383,10.957c-5.915,0.415-11.484-2.079-15.729-7.019   l-0.178-0.222l-0.16-0.223c-0.237-0.353-5.972-8.601-13.271-20.786c-6.877-11.397-9.024-19.472-6.95-26.185   c1.18-3.801,3.672-6.865,7.405-9.11l0.362-0.216l0.39-0.159c28.611-11.913,51.435-2.328,71.805,30.198l7.544,12.001   c8.129,12.951,8.129,12.951,16.042,26.711l6.629,11.535c11.884,20.68,15.436,37.912,10.877,52.678   c-2.851,9.211-8.725,17.371-17.949,24.936l-0.325,0.269l-0.366,0.228c-15.946,9.536-27.565-9.838-31.373-16.195   C89.33,196.692,84.709,187.741,84.527,187.366z" fill="url(#SVGID_2_)"/>
<radialGradient cx="-82.1924" cy="-519.627" gradientTransform="matrix(-0.2817 0.9114 0.9008 0.2784 300.049 274.2003)" gradientUnits="userSpaceOnUse" id="SVGID_3_" r="519.9128">
<stop offset="0" style="stop-color:#FFFFFF"/>
<stop offset="0.0251" style="stop-color:#E7F2FE"/>
<stop offset="0.0689" style="stop-color:#C3DEFD"/>
<stop offset="0.1099" style="stop-color:#A9D0FD"/>
<stop offset="0.1468" style="stop-color:#99C7FC"/>
<stop offset="0.1759" style="stop-color:#94C4FC"/>
<stop offset="0.2358" style="stop-color:#88BAF7"/>
<stop offset="0.3433" style="stop-color:#69A0EA"/>
<stop offset="0.4221" style="stop-color:#4E8ADE"/>
<stop offset="0.8442" style="stop-color:#182B61"/>
<stop offset="1" style="stop-color:#000000"/>
</radialGradient>
<path d="M89.635,184.751c-4.512-11.457,5.193-18.837,14.202-19.537c9.016-0.733,3.69-10.889,3.69-10.889   l-21.719-36.205c0,0-6.489-9.476-11.343-1.848c-4.849,7.625-15.948,12.718-23.941,3.373c0,0-5.773-8.292-13.059-20.459   c-7.308-12.101-10.192-22.182-1.523-27.393c25.767-10.725,45.778-2.314,64.741,27.952c18.978,30.278,12.268,19.09,30.096,50.053   c17.813,30.978,15.852,52.608-5.734,70.302c-8.674,5.2-16.196-2.057-23.502-14.223C94.255,193.759,89.635,184.751,89.635,184.751z" fill="url(#SVGID_3_)"/>
</g>
<g>
<g>
<path d="M175.962,143.987l-0.064-1.274l-3.248-63.211c0,0-2.366-6.978-9.365-6.858c0,0-4.844,0.4-5.988,4.806    l1.117,69.724l14.445,1.264L175.962,143.987z" fill="#F8E6D3"/>
<g>
<path d="M175.962,143.987l-0.064-1.274l-3.248-63.211c0,0-2.366-6.978-9.365-6.858c0,0-4.844,0.4-5.988,4.806     l1.117,69.724l14.445,1.264L175.962,143.987z" fill="none"/>
<path d="M178.062,143.987c-0.563-11.127-1.142-22.252-1.714-33.379c-0.386-7.502-0.771-15.004-1.156-22.507     c-0.144-2.795,0.412-6.83-0.648-9.497c-2.207-5.551-8.988-10.328-14.884-7.024c-4.453,2.496-4.463,5.869-4.394,10.231     c0.233,14.55,0.467,29.099,0.699,43.649c0.116,7.237,0.232,14.474,0.349,21.711c0.02,1.221,0.945,1.999,2.1,2.1     c4.815,0.422,9.63,0.843,14.445,1.264c0.762,0.067,1.41-0.461,1.813-1.04c1.034-1.482,2.068-2.966,3.104-4.449     c1.554-2.228-2.09-4.323-3.627-2.119c-1.034,1.482-2.068,2.966-3.104,4.449c0.604-0.347,1.209-0.693,1.813-1.04     c-4.815-0.422-9.63-0.843-14.445-1.264c0.7,0.699,1.4,1.399,2.1,2.1c-0.369-23.088-0.739-46.176-1.109-69.264     c-0.076-4.74,6.982-2.832,8.716-1.417c1.063,0.867,1.965,2.201,2.473,3.48c-0.313-0.786-0.016,0.043,0.008,0.51     c0.27,5.235,0.538,10.47,0.807,15.706c0.742,14.433,1.483,28.866,2.226,43.299c0.077,1.501,0.154,3.001,0.23,4.502     C173.998,146.682,178.199,146.695,178.062,143.987z" fill="#CA4911"/>
</g>
</g>
<g>
<path d="M161.513,143.827l21.819-49.656c0,0,3.124-6.656-3.512-11.147c0,0-5.342-3.046-11.539,3.642l-29.83,53.66    L161.513,143.827z" fill="#F8E6D3"/>
<g>
<path d="M161.513,143.827l21.819-49.656c0,0,3.124-6.656-3.512-11.147c0,0-5.342-3.046-11.539,3.642l-29.83,53.66     L161.513,143.827z" fill="none"/>
<path d="M163.326,144.886c4.814-10.957,9.629-21.914,14.444-32.872c2.308-5.253,4.616-10.507,6.925-15.761     c1.825-4.154,2.297-9.291-1.226-12.825c-4.668-4.683-13.548-4.037-17.043,2.25c-2.014,3.623-4.027,7.246-6.042,10.869     c-7.134,12.833-14.268,25.666-21.402,38.499c-0.781,1.406-1.563,2.813-2.345,4.219c-0.597,1.073-0.132,2.874,1.255,3.085     c7.688,1.167,15.375,2.334,23.062,3.502c2.648,0.401,3.787-3.645,1.117-4.051c-7.688-1.167-15.375-2.334-23.062-3.502     c0.418,1.028,0.836,2.057,1.255,3.085c5.212-9.376,10.424-18.751,15.637-28.127c3.438-6.187,6.878-12.373,10.317-18.56     c2.446-4.401,4.232-9.714,10.156-10.261c6.335-0.585,5.823,7.128,4.249,10.71c-2.416,5.499-4.832,10.997-7.248,16.496     c-4.559,10.375-9.118,20.75-13.677,31.125C158.621,145.221,162.238,147.362,163.326,144.886z" fill="#CA4911"/>
</g>
</g>
<g>
<path d="M178.661,150.772c0,0,6.212-8.896-7.364-12.424l-31.08-3.991c0,0-12.697-1.298-18.151,11.117    c0,0-18.283,58.862,25.622,69.622c0,0,27.562,11.555,50.779-19.344c0,0,15.198-20.947-6.809-25.281c0,0,12.749-8.307,6.16-19.422    C197.818,151.049,188.545,140.616,178.661,150.772z" fill="#F8E6D3"/>
<g>
<path d="M178.661,150.772c0,0,6.212-8.896-7.364-12.424l-31.08-3.991c0,0-12.697-1.298-18.151,11.117     c0,0-18.283,58.862,25.622,69.622c0,0,27.562,11.555,50.779-19.344c0,0,15.198-20.947-6.809-25.281c0,0,12.749-8.307,6.16-19.422     C197.818,151.049,188.545,140.616,178.661,150.772z" fill="none"/>
<path d="M180.475,151.832c2.745-4.075,1.993-9.18-1.714-12.321c-4.39-3.722-10.986-3.715-16.397-4.409     c-10.552-1.355-23.214-5.396-33.33-0.354c-9.621,4.795-10.872,16.241-12.092,25.653c-1.785,13.764-0.923,28.941,6.774,40.905     c10.688,16.614,35.276,21.784,52.904,14.792c11.087-4.397,21.644-13.73,26.691-24.665c1.919-4.156,3.007-8.762,1.849-13.282     c-1.502-5.863-7.598-8.521-12.943-9.704c0.167,1.28,0.334,2.56,0.501,3.839c6.794-4.535,11.111-12.547,7.802-20.523     c-1.246-3.005-4.144-5.059-7.077-6.29c-6.114-2.567-11.604-0.559-16.267,3.815c-1.979,1.857,0.997,4.821,2.971,2.971     c5.522-5.183,14.814-4.855,17.204,3.077c1.546,5.131-2.711,10.625-6.752,13.323c-1.416,0.945-1.388,3.421,0.501,3.839     c23.149,5.118,1.235,29.08-8.34,35.622c-11.865,8.104-24.874,8.064-37.939,3.977c-27.421-8.578-27.625-43.177-20.747-66.006     c1.936-6.427,9.705-9.963,15.942-9.647c3.956,0.199,7.967,1.013,11.893,1.517c4.811,0.617,32.023,1.238,24.939,11.754     C175.33,151.965,178.97,154.065,180.475,151.832z" fill="#CA4911"/>
</g>
</g>
<g>
<path d="M178.661,150.772c0,0-9.145,15.883-36.854,4.534c0,0,32.252,24.976,12.244,41.908" fill="#F8E6D3"/>
<g>
<path d="M178.661,150.772c0,0-9.145,15.883-36.854,4.534c0,0,32.252,24.976,12.244,41.908" fill="none"/>
<path d="M176.848,149.712c-6.824,11.548-24.753,7.41-34.482,3.568c-1.91-0.754-3.679,2.235-2.044,3.511     c11.075,8.637,26.344,26.393,12.244,38.938c-2.027,1.805,0.954,4.764,2.971,2.971c16.065-14.296,0.789-34.714-12.244-44.879     c-0.682,1.17-1.362,2.341-2.044,3.511c11.732,4.631,31.338,7.848,39.227-5.5C181.855,149.495,178.225,147.383,176.848,149.712     L176.848,149.712z" fill="#CA4911"/>
</g>
</g>
<g>
<path d="M191.658,170.471c0,0-23.883,10.393-23.509,21.831c0,0,0.404,5.95,11.848,5.882    c0,0,7.859-0.209,14.142-9.363" fill="#F8E6D3"/>
<g>
<path d="M191.658,170.471c0,0-23.883,10.393-23.509,21.831c0,0,0.404,5.95,11.848,5.882     c0,0,7.859-0.209,14.142-9.363" fill="none"/>
<path d="M190.599,168.658c-8.475,3.723-26.188,12.729-24.47,24.246c0.822,5.512,7.743,6.998,12.233,7.347     c7.31,0.567,13.57-4.874,17.59-10.37c1.602-2.189-2.046-4.281-3.627-2.119c-3.365,4.602-8.071,8.41-13.963,8.289     c-2.666-0.054-6.224-0.711-7.795-3.135c-0.73-1.126-0.394-1.63,0.175-3.446c2.57-8.216,14.645-13.965,21.976-17.185     C195.193,171.198,193.053,167.58,190.599,168.658L190.599,168.658z" fill="#CA4911"/>
</g>
</g>
<g>
<path d="M179.517,149.942c0,0-22.133,17.542-19.432,30.084c0,0,2.01,7.361,10.497,5.429" fill="#F8E6D3"/>
<g>
<path d="M179.517,149.942c0,0-22.133,17.542-19.432,30.084c0,0,2.01,7.361,10.497,5.429" fill="none"/>
<path d="M178.031,148.457c-7.398,5.903-14.789,13.431-18.623,22.184c-4.07,9.297,0.727,18.746,11.732,16.84     c2.665-0.462,1.531-4.509-1.117-4.051c-3.9,0.676-7.726-1.007-8.059-5.184c-0.376-4.698,2.864-9.379,5.473-12.986     c3.739-5.174,8.577-9.854,13.564-13.832C183.118,149.738,180.126,146.787,178.031,148.457L178.031,148.457z" fill="#CA4911"/>
</g>
</g>
</g>
<g>
<g fill-opacity="0.5" stroke-opacity="0.5">
<path d="M140.204,199.39l-1.578-9.796l-9.429-10.477c-0.831-0.945-1.429-1.69-1.799-2.236    c-0.369-0.549-0.587-1.037-0.657-1.475c-0.116-0.716,0.063-1.379,0.531-1.988c0.472-0.607,1.114-0.979,1.929-1.109    c0.856-0.139,1.545,0,2.066,0.412c0.521,0.415,1.34,1.273,2.458,2.574l7.284,8.447l4.323-10.318    c0.259-0.631,0.479-1.162,0.651-1.594c0.178-0.433,0.379-0.844,0.612-1.234s0.51-0.706,0.829-0.945    c0.324-0.238,0.741-0.398,1.242-0.479c0.789-0.128,1.481,0.022,2.099,0.45c0.604,0.429,0.963,0.979,1.072,1.653    c0.088,0.546,0.045,1.118-0.135,1.707c-0.179,0.593-0.513,1.423-1.005,2.495l-5.818,13.109l1.578,9.795    c0.208,1.28,0.067,2.281-0.422,3.01c-0.489,0.727-1.187,1.163-2.102,1.311c-0.927,0.15-1.729-0.043-2.403-0.572    C140.854,201.596,140.412,200.684,140.204,199.39z" fill="#B3B3B3"/>
</g>
<g>
<path d="M139.247,199.386l-1.58-9.796l-9.425-10.477c-0.832-0.945-1.431-1.693-1.801-2.24    c-0.371-0.545-0.586-1.036-0.656-1.469c-0.116-0.717,0.06-1.382,0.53-1.987c0.47-0.61,1.114-0.981,1.928-1.114    c0.857-0.137,1.545,0,2.067,0.414c0.521,0.412,1.34,1.271,2.459,2.577l7.282,8.445l4.325-10.317    c0.256-0.631,0.477-1.166,0.65-1.597c0.179-0.433,0.379-0.845,0.612-1.233c0.231-0.391,0.51-0.706,0.829-0.943    c0.324-0.242,0.74-0.401,1.242-0.481c0.789-0.128,1.482,0.024,2.096,0.45c0.608,0.43,0.966,0.977,1.073,1.653    c0.089,0.547,0.048,1.118-0.133,1.708c-0.179,0.588-0.512,1.422-1.003,2.496l-5.819,13.105l1.577,9.797    c0.208,1.28,0.066,2.284-0.421,3.008c-0.488,0.729-1.187,1.166-2.1,1.314c-0.93,0.15-1.731-0.044-2.407-0.576    C139.897,201.588,139.455,200.678,139.247,199.386z" fill="#DC4610"/>
</g>
</g>
</svg>
