<?xml version="1.0" encoding="UTF-8"?>
<!DOCTYPE svg PUBLIC "-//W3C//DTD SVG 1.1 Tiny//EN" "http://www.w3.org/Graphics/SVG/1.1/DTD/svg11-tiny.dtd">
<svg baseProfile="tiny" xmlns="http://www.w3.org/2000/svg" width="32" height="32" viewBox="0 0 32 32">
<defs/>
<metadata/>
<g>
<path style="fill:#800000;fill-opacity:1" d="M 0.91637873,31.208322 C 1.155004,31.090021 1.4091152,31.026426 1.6674893,30.969454 C 1.9798796,30.876177 2.3025193,30.854023 2.6255188,30.832932 C 3.0481171,30.779033 3.4734089,30.765664 3.8986394,30.752463 C 4.5821891,30.745064 5.2658439,30.751127 5.9494108,30.755091 C 6.8368104,30.76062 7.7242266,30.759361 8.611639,30.759509 C 9.5186078,30.761839 10.425569,30.760637 11.332538,30.759271 C 12.214872,30.757454 13.097211,30.760225 13.979548,30.759737 C 14.930516,30.77763 15.879826,30.834011 16.829751,30.877794 C 17.836213,30.927103 18.840011,31.025559 19.844925,31.101526 C 20.857433,31.176998 21.872923,31.197035 22.887858,31.204782 C 23.661326,31.204355 24.434768,31.197891 25.208239,31.198853 C 25.883236,31.196816 26.558234,31.195388 27.233228,31.192533 C 27.811489,31.192085 28.38974,31.188829 28.968,31.18757 C 29.400339,31.185508 29.832667,31.182516 30.264976,31.177153 C 30.499113,31.172984 30.733275,31.171351 30.967437,31.169624 C 31.170238,31.171554 31.373052,31.170358 31.575857,31.169858 C 31.759504,31.16932 31.943151,31.169258 32.126798,31.169118 L 31.068729,31.93785 C 30.885762,31.93771 30.702794,31.937649 30.519827,31.937109 C 30.316807,31.936606 30.113778,31.935421 29.910762,31.937343 C 29.683511,31.935632 29.456259,31.934041 29.229035,31.929807 C 28.806294,31.924369 28.383534,31.921427 27.960762,31.919374 C 27.386909,31.917665 26.813063,31.91524 26.239208,31.914785 C 25.56884,31.912397 24.89847,31.911843 24.228099,31.911064 C 23.465288,31.912993 22.702478,31.908462 21.939824,31.8917 C 20.927147,31.873214 19.914242,31.850037 18.903875,31.774184 C 17.895485,31.69416 16.887025,31.606515 15.876276,31.563262 C 14.926018,31.511715 13.975603,31.461184 13.023695,31.454206 C 12.140937,31.453721 11.258178,31.456503 10.375423,31.454651 C 9.4689042,31.453228 8.5623919,31.451963 7.655872,31.453878 C 6.7648885,31.453585 5.8738985,31.45143 4.9829282,31.457415 C 4.2850902,31.462634 3.587103,31.465367 2.8896226,31.490807 C 2.4574353,31.513402 2.0259237,31.540443 1.595903,31.591233 C 1.2756738,31.621452 0.9573804,31.659151 0.64611319,31.745273 C 0.38352383,31.819535 0.12237829,31.897589 -0.11649516,32.034523 L 0.91637873,31.208322 z "/>
<path style="fill:#800000;fill-opacity:1" d="M 31.291212,31.811398 C 31.337495,31.312301 31.330624,30.811426 31.312378,30.311248 C 31.256001,29.24957 31.090987,28.201912 30.911378,27.155672 C 30.689892,25.930924 30.494259,24.701823 30.332166,23.467812 C 30.169744,22.31157 30.097853,21.14669 30.052518,19.980944 C 30.019653,18.878906 30.028529,17.776856 30.052206,16.674849 C 30.096435,15.529953 30.232411,14.391301 30.356261,13.252998 C 30.483238,12.195567 30.551433,11.13346 30.616128,10.070954 C 30.668578,9.3226504 30.690837,8.5729467 30.700245,7.8230319 C 30.709031,7.3303576 30.699555,6.8377778 30.690362,6.3452165 C 30.690047,6.0506202 30.683011,5.7560816 30.677517,5.4615486 C 30.688202,5.2721087 30.653861,5.087286 30.624251,4.9013574 C 30.607181,4.7188849 30.535465,4.5483638 30.476005,4.3765223 C 30.422024,4.1976913 30.418848,4.0115628 30.407278,3.8270188 C 30.4017,3.6439612 30.404869,3.4608327 30.406223,3.2777631 C 30.408905,3.0581609 30.40878,2.8385776 30.408496,2.618966 C 30.407016,2.4258513 30.406475,2.2327325 30.405836,2.0396141 C 30.383583,1.8358837 30.46069,1.6621612 30.525317,1.4768352 C 30.553933,1.41554 30.586536,1.3562705 30.617145,1.2959881 L 31.805689,0.75899446 C 31.774561,0.81757279 31.750165,0.8797324 31.712304,0.93472943 C 31.638189,1.1019756 31.556177,1.2558095 31.570632,1.4461208 C 31.569981,1.640196 31.569462,1.8342718 31.567811,2.0283421 C 31.567194,2.2475515 31.566912,2.4667336 31.568419,2.6859408 C 31.569096,2.8671835 31.569392,3.0484503 31.570899,3.229697 C 31.581212,3.4038545 31.576154,3.5802555 31.623001,3.7503234 C 31.68311,3.9276596 31.759127,4.1036743 31.780417,4.2904732 C 31.81098,4.4832767 31.851117,4.6752416 31.835162,4.8715523 C 31.830407,5.1700963 31.824213,5.4686489 31.824565,5.7672425 C 31.815247,6.2673431 31.806123,6.7674441 31.796489,7.2675357 C 31.772282,8.028366 31.728323,8.7883872 31.663081,9.546857 C 31.575986,10.614172 31.499825,11.682133 31.378658,12.746437 C 31.246412,13.879996 31.111528,15.015205 31.075759,16.156838 C 31.039329,17.256648 31.044874,18.356934 31.072674,19.456983 C 31.102869,20.623322 31.165261,21.789506 31.323985,22.946411 C 31.478372,24.179498 31.678875,25.405447 31.905543,26.627215 C 32.091302,27.667457 32.28843,28.705112 32.377916,29.75966 C 32.422823,30.242817 32.440701,30.726151 32.471302,31.210112 L 31.291212,31.811398 z "/>
<path style="fill:#800000;fill-opacity:1" d="M 30.736981,1.0918462 C 30.235101,0.97312155 29.719986,0.91487812 29.208072,0.8563975 C 28.548206,0.78389792 27.884615,0.76561462 27.221472,0.75386397 C 26.630892,0.74766361 26.04027,0.74829176 25.449666,0.74663947 C 24.824146,0.74612369 24.198599,0.74554558 23.573088,0.74978172 C 23.063866,0.75507061 22.554608,0.75400713 22.045367,0.75520265 C 21.579168,0.75325295 21.11298,0.75614578 20.64679,0.75865381 C 20.244855,0.74631734 19.845381,0.7740089 19.444899,0.80280003 C 19.060725,0.83370633 18.675622,0.84167993 18.290475,0.84815725 C 17.933247,0.85466267 17.575931,0.85134563 17.218661,0.85103376 C 16.805967,0.84842404 16.393264,0.8480418 15.980564,0.84724321 C 15.571747,0.84670529 15.162948,0.84777799 14.754142,0.85079835 C 14.443602,0.85314022 14.133099,0.85474563 13.82255,0.85396179 C 13.541265,0.8561503 13.259979,0.85485108 12.97869,0.8549423 C 12.726207,0.84082295 12.477951,0.86674809 12.227767,0.88802616 C 11.892258,0.92763359 11.557388,0.97538165 11.221692,1.0155282 C 10.88848,1.0559795 10.559676,1.1218397 10.228348,1.1748764 C 9.9492534,1.2085439 9.6680593,1.2104828 9.3874148,1.2115375 C 9.0402659,1.2107219 8.6931145,1.2096699 8.3459728,1.2085676 C 8.0163545,1.2067413 7.6867219,1.2099757 7.3571144,1.2127737 C 7.0722283,1.2139962 6.7873536,1.2118647 6.502476,1.2098204 C 6.1642607,1.2088278 5.8260732,1.2087753 5.4878596,1.2100471 C 5.2460191,1.2128423 5.0041729,1.2148071 4.7623243,1.216648 C 4.580684,1.2176515 4.3990407,1.2174703 4.2173987,1.2176348 C 4.0395884,1.2176394 3.861778,1.2176127 3.6839676,1.2175941 C 3.4784455,1.2155285 3.2728977,1.2158762 3.0673693,1.2155936 C 2.8576726,1.2095408 2.6489312,1.1719982 2.4404006,1.1460938 C 2.2596843,1.1294347 2.0781398,1.1302212 1.8968807,1.1278125 C 1.7103334,1.137949 1.524932,1.1212222 1.3402743,1.1099215 C 1.0945181,1.0607938 0.84855659,1.01476 0.60112391,0.97378892 C 0.46935676,0.95583967 0.33633533,0.95620143 0.20383016,0.95010413 L 1.2637211,0.18664283 C 1.3971916,0.19767935 1.531597,0.2009167 1.6636674,0.22594668 C 1.9079716,0.27371969 2.1516544,0.33020872 2.3994696,0.35569787 C 2.5849189,0.3577149 2.7704013,0.36012584 2.9559046,0.36023896 C 3.139209,0.36543576 3.3229479,0.36678061 3.5051241,0.39081274 C 3.7090712,0.41949432 3.913324,0.4576779 4.1200933,0.45074486 C 4.3274575,0.45046076 4.5348403,0.45079166 4.7421986,0.44874432 C 4.9200463,0.44872577 5.097894,0.4486991 5.2757417,0.44870365 C 5.4564782,0.44886781 5.637216,0.44868319 5.8179506,0.44969052 C 6.0537434,0.45152344 6.2895336,0.45347814 6.5253178,0.45628892 C 6.8633295,0.45757 7.2013154,0.45748462 7.5393291,0.45650195 C 7.82689,0.45447892 8.1144488,0.45230724 8.4020176,0.45365584 C 8.7272258,0.45672442 9.0524537,0.46025824 9.3776773,0.45916875 C 9.727316,0.45882283 10.076991,0.45990432 10.426608,0.45462674 C 10.705106,0.44627447 10.984648,0.44322533 11.260751,0.40129223 C 11.586977,0.35015257 11.912191,0.29279265 12.24029,0.25423371 C 12.582803,0.2108052 12.924113,0.15990286 13.266356,0.11474188 C 13.517976,0.10125713 13.769233,0.084394247 14.021949,0.096970153 C 14.302339,0.097060784 14.582727,0.095754616 14.863114,0.097947677 C 15.170764,0.097173797 15.478366,0.098713401 15.786007,0.1011066 C 16.191486,0.10417969 16.596959,0.10520701 17.002449,0.10483449 C 17.41818,0.10424805 17.833912,0.10412421 18.249639,0.10203248 C 18.606396,0.10175267 18.963133,0.10000016 19.319884,0.097854234 C 19.701377,0.089740292 20.083005,0.080777813 20.463608,0.051388342 C 20.865695,0.022639717 21.267405,0.00038723226 21.670812,0.014659514 C 22.133826,0.017195426 22.596838,0.020088493 23.059861,0.018126899 C 23.564282,0.019290843 24.068718,0.01819734 24.573123,0.023153902 C 25.196938,0.026958693 25.820789,0.025426264 26.444609,0.023663337 C 27.036719,0.021183999 27.628925,0.018484696 28.220951,0.030992351 C 28.880248,0.047796172 29.539419,0.081981661 30.195048,0.15586964 C 30.739168,0.21463236 31.286702,0.25688204 31.825707,0.35315695 L 30.736981,1.0918462 z "/>
<path style="fill:#800000;fill-opacity:1" d="M 1.0394974,0.65030579 C 1.0887946,1.0276594 1.1735665,1.4004403 1.2497871,1.7734538 C 1.4580741,2.7190062 1.7131126,3.6531735 1.9320666,4.5961702 C 2.2233719,5.7989344 2.4033275,7.0232425 2.5241089,8.2536341 C 2.6299507,9.4139534 2.6405602,10.579443 2.654975,11.743547 C 2.6631367,12.748765 2.6630547,13.753975 2.6702579,14.759212 C 2.6648784,15.566084 2.6800193,16.372894 2.6848023,17.179736 C 2.6945876,17.74832 2.6965464,18.316945 2.6990567,18.885587 C 2.7078729,19.380632 2.701268,19.875018 2.6787518,20.369448 C 2.6455277,20.798953 2.6350207,21.229336 2.6285187,21.65986 C 2.6197747,21.980843 2.6255398,22.301911 2.628587,22.622914 C 2.6309132,22.888822 2.6296539,23.154746 2.6289782,23.420656 C 2.63429,23.670301 2.6314712,23.919888 2.6290826,24.169534 C 2.6147024,24.487327 2.5502641,24.799681 2.5017858,25.113428 C 2.4567722,25.445773 2.4543531,25.781333 2.4472122,26.115944 C 2.4353704,26.459259 2.3877826,26.797334 2.3276916,27.134724 C 2.2660803,27.36826 2.2351859,27.606597 2.2038405,27.8452 C 2.202878,28.030688 2.1781462,28.212165 2.1530651,28.395223 C 2.1142768,28.592716 2.1119127,28.794066 2.1030421,28.994287 C 2.1027155,29.176385 2.0978274,29.358553 2.0950157,29.540468 C 2.0853366,29.717179 2.004803,29.866224 1.9329023,30.022543 C 1.8375395,30.147384 1.7991402,30.296907 1.7447718,30.440775 C 1.6736332,30.593044 1.6155419,30.75068 1.553791,30.906782 C 1.4933815,31.071513 1.3999737,31.222386 1.3176845,31.377091 L 0.12372521,31.907042 C 0.20394352,31.758042 0.28607558,31.610336 0.37023481,31.463582 C 0.42654237,31.305701 0.47381645,31.143078 0.55344315,30.994661 C 0.60544415,30.843785 0.64950434,30.68723 0.73490837,30.551056 C 0.80920088,30.411462 0.90673933,30.286352 0.91878495,30.120164 C 0.92749588,29.943384 0.94596685,29.762942 0.93859443,29.583574 C 0.94687435,29.37851 0.95168991,29.173089 0.97809277,28.969232 C 1.0030645,28.788017 1.0436287,28.61107 1.0362069,28.426279 C 1.0687591,28.179215 1.0995069,27.932327 1.1730476,27.692654 C 1.2359823,27.362856 1.2984762,27.033439 1.3051495,26.695864 C 1.3102633,26.356895 1.3158517,26.017381 1.3523449,25.679994 C 1.3958681,25.371982 1.4580848,25.066354 1.4788697,24.755602 C 1.476421,24.505986 1.4736629,24.256432 1.4787103,24.006815 C 1.4777513,23.740907 1.4760666,23.474984 1.4780968,23.209076 C 1.4817462,22.884753 1.4875467,22.560446 1.4909841,22.236108 C 1.5078976,21.801274 1.5259357,21.366444 1.5569423,20.932339 C 1.5861812,20.438954 1.5922697,19.946349 1.5874481,19.451983 C 1.5899566,18.878446 1.5919177,18.304926 1.6019235,17.73145 C 1.6071875,16.918965 1.6232103,16.106546 1.6202344,15.294026 C 1.6304561,14.283791 1.6361561,13.273606 1.6366156,12.263316 C 1.6348782,11.098934 1.6221311,9.9332349 1.5308719,8.7718442 C 1.4140817,7.5475137 1.2393241,6.3281814 0.93416819,5.1349659 C 0.69759869,4.2036187 0.43672753,3.2800379 0.16238555,2.3591084 C 0.068623347,1.9986487 -0.028207254,1.6396069 -0.12510059,1.2800968 L 1.0394974,0.65030579 z "/>
</g>
</svg>
