<?xml version="1.0" encoding="UTF-8"?>
<!DOCTYPE svg PUBLIC "-//W3C//DTD SVG 1.1 Tiny//EN" "http://www.w3.org/Graphics/SVG/1.1/DTD/svg11-tiny.dtd">
<svg baseProfile="tiny" xmlns="http://www.w3.org/2000/svg" width="32" height="32" viewBox="0 0 32 32">
<defs/>
<metadata/>
<g>
<path style="fill:#800000;fill-opacity:1" d="M 0.91637873,31.208322 C 1.155004,31.090021 1.4091152,31.026426 1.6674893,30.969454 C 1.9798796,30.876177 2.3025193,30.854023 2.6255188,30.832932 C 3.0481171,30.779033 3.4734089,30.765664 3.8986394,30.752463 C 4.5821891,30.745064 5.2658439,30.751127 5.9494108,30.755091 C 6.8368104,30.76062 7.7242266,30.759361 8.611639,30.759509 C 9.5186078,30.761839 10.425569,30.760637 11.332538,30.759271 C 12.214872,30.757454 13.097211,30.760225 13.979548,30.759737 C 14.930516,30.77763 15.879826,30.834011 16.829751,30.877794 C 17.836213,30.927103 18.840011,31.025559 19.844925,31.101526 C 20.857433,31.176998 21.872923,31.197035 22.887858,31.204782 C 23.661326,31.204355 24.434768,31.197891 25.208239,31.198853 C 25.883236,31.196816 26.558234,31.195388 27.233228,31.192533 C 27.811489,31.192085 28.38974,31.188829 28.968,31.18757 C 29.400339,31.185508 29.832667,31.182516 30.264976,31.177153 C 30.499113,31.172984 30.733275,31.171351 30.967437,31.169624 C 31.170238,31.171554 31.373052,31.170358 31.575857,31.169858 C 31.759504,31.16932 31.943151,31.169258 32.126798,31.169118 L 31.068729,31.93785 C 30.885762,31.93771 30.702794,31.937649 30.519827,31.937109 C 30.316807,31.936606 30.113778,31.935421 29.910762,31.937343 C 29.683511,31.935632 29.456259,31.934041 29.229035,31.929807 C 28.806294,31.924369 28.383534,31.921427 27.960762,31.919374 C 27.386909,31.917665 26.813063,31.91524 26.239208,31.914785 C 25.56884,31.912397 24.89847,31.911843 24.228099,31.911064 C 23.465288,31.912993 22.702478,31.908462 21.939824,31.8917 C 20.927147,31.873214 19.914242,31.850037 18.903875,31.774184 C 17.895485,31.69416 16.887025,31.606515 15.876276,31.563262 C 14.926018,31.511715 13.975603,31.461184 13.023695,31.454206 C 12.140937,31.453721 11.258178,31.456503 10.375423,31.454651 C 9.4689042,31.453228 8.5623919,31.451963 7.655872,31.453878 C 6.7648885,31.453585 5.8738985,31.45143 4.9829282,31.457415 C 4.2850902,31.462634 3.587103,31.465367 2.8896226,31.490807 C 2.4574353,31.513402 2.0259237,31.540443 1.595903,31.591233 C 1.2756738,31.621452 0.9573804,31.659151 0.64611319,31.745273 C 0.38352383,31.819535 0.12237829,31.897589 -0.11649516,32.034523 L 0.91637873,31.208322 z "/>
<path style="fill:#800000;fill-opacity:1" d="M 31.291212,31.811398 C 31.337495,31.312301 31.330624,30.811426 31.312378,30.311248 C 31.256001,29.24957 31.090987,28.201912 30.911378,27.155672 C 30.689892,25.930924 30.494259,24.701823 30.332166,23.467812 C 30.169744,22.31157 30.097853,21.14669 30.052518,19.980944 C 30.019653,18.878906 30.028529,17.776856 30.052206,16.674849 C 30.096435,15.529953 30.232411,14.391301 30.356261,13.252998 C 30.483238,12.195567 30.551433,11.13346 30.616128,10.070954 C 30.668578,9.3226504 30.690837,8.5729467 30.700245,7.8230319 C 30.709031,7.3303576 30.699555,6.8377778 30.690362,6.3452165 C 30.690047,6.0506202 30.683011,5.7560816 30.677517,5.4615486 C 30.688202,5.2721087 30.653861,5.087286 30.624251,4.9013574 C 30.607181,4.7188849 30.535465,4.5483638 30.476005,4.3765223 C 30.422024,4.1976913 30.418848,4.0115628 30.407278,3.8270188 C 30.4017,3.6439612 30.404869,3.4608327 30.406223,3.2777631 C 30.408905,3.0581609 30.40878,2.8385776 30.408496,2.618966 C 30.407016,2.4258513 30.406475,2.2327325 30.405836,2.0396141 C 30.383583,1.8358837 30.46069,1.6621612 30.525317,1.4768352 C 30.553933,1.41554 30.586536,1.3562705 30.617145,1.2959881 L 31.805689,0.75899446 C 31.774561,0.81757279 31.750165,0.8797324 31.712304,0.93472943 C 31.638189,1.1019756 31.556177,1.2558095 31.570632,1.4461208 C 31.569981,1.640196 31.569462,1.8342718 31.567811,2.0283421 C 31.567194,2.2475515 31.566912,2.4667336 31.568419,2.6859408 C 31.569096,2.8671835 31.569392,3.0484503 31.570899,3.229697 C 31.581212,3.4038545 31.576154,3.5802555 31.623001,3.7503234 C 31.68311,3.9276596 31.759127,4.1036743 31.780417,4.2904732 C 31.81098,4.4832767 31.851117,4.6752416 31.835162,4.8715523 C 31.830407,5.1700963 31.824213,5.4686489 31.824565,5.7672425 C 31.815247,6.2673431 31.806123,6.7674441 31.796489,7.2675357 C 31.772282,8.028366 31.728323,8.7883872 31.663081,9.546857 C 31.575986,10.614172 31.499825,11.682133 31.378658,12.746437 C 31.246412,13.879996 31.111528,15.015205 31.075759,16.156838 C 31.039329,17.256648 31.044874,18.356934 31.072674,19.456983 C 31.102869,20.623322 31.165261,21.789506 31.323985,22.946411 C 31.478372,24.179498 31.678875,25.405447 31.905543,26.627215 C 32.091302,27.667457 32.28843,28.705112 32.377916,29.75966 C 32.422823,30.242817 32.440701,30.726151 32.471302,31.210112 L 31.291212,31.811398 z "/>
<path style="fill:#800000;fill-opacity:1" d="M 30.736981,1.0918462 C 30.235101,0.97312155 29.719986,0.91487812 29.208072,0.8563975 C 28.548206,0.78389792 27.884615,0.76561462 27.221472,0.75386397 C 26.630892,0.74766361 26.04027,0.74829176 25.449666,0.74663947 C 24.824146,0.74612369 24.198599,0.74554558 23.573088,0.74978172 C 23.063866,0.75507061 22.554608,0.75400713 22.045367,0.75520265 C 21.579168,0.75325295 21.11298,0.75614578 20.64679,0.75865381 C 20.244855,0.74631734 19.845381,0.7740089 19.444899,0.80280003 C 19.060725,0.83370633 18.675622,0.84167993 18.290475,0.84815725 C 17.933247,0.85466267 17.575931,0.85134563 17.218661,0.85103376 C 16.805967,0.84842404 16.393264,0.8480418 15.980564,0.84724321 C 15.571747,0.84670529 15.162948,0.84777799 14.754142,0.85079835 C 14.443602,0.85314022 14.133099,0.85474563 13.82255,0.85396179 C 13.541265,0.8561503 13.259979,0.85485108 12.97869,0.8549423 C 12.726207,0.84082295 12.477951,0.86674809 12.227767,0.88802616 C 11.892258,0.92763359 11.557388,0.97538165 11.221692,1.0155282 C 10.88848,1.0559795 10.559676,1.1218397 10.228348,1.1748764 C 9.9492534,1.2085439 9.6680593,1.2104828 9.3874148,1.2115375 C 9.0402659,1.2107219 8.6931145,1.2096699 8.3459728,1.2085676 C 8.0163545,1.2067413 7.6867219,1.2099757 7.3571144,1.2127737 C 7.0722283,1.2139962 6.7873536,1.2118647 6.502476,1.2098204 C 6.1642607,1.2088278 5.8260732,1.2087753 5.4878596,1.2100471 C 5.2460191,1.2128423 5.0041729,1.2148071 4.7623243,1.216648 C 4.580684,1.2176515 4.3990407,1.2174703 4.2173987,1.2176348 C 4.0395884,1.2176394 3.861778,1.2176127 3.6839676,1.2175941 C 3.4784455,1.2155285 3.2728977,1.2158762 3.0673693,1.2155936 C 2.8576726,1.2095408 2.6489312,1.1719982 2.4404006,1.1460938 C 2.2596843,1.1294347 2.0781398,1.1302212 1.8968807,1.1278125 C 1.7103334,1.137949 1.524932,1.1212222 1.3402743,1.1099215 C 1.0945181,1.0607938 0.84855659,1.01476 0.60112391,0.97378892 C 0.46935676,0.95583967 0.33633533,0.95620143 0.20383016,0.95010413 L 1.2637211,0.18664283 C 1.3971916,0.19767935 1.531597,0.2009167 1.6636674,0.22594668 C 1.9079716,0.27371969 2.1516544,0.33020872 2.3994696,0.35569787 C 2.5849189,0.3577149 2.7704013,0.36012584 2.9559046,0.36023896 C 3.139209,0.36543576 3.3229479,0.36678061 3.5051241,0.39081274 C 3.7090712,0.41949432 3.913324,0.4576779 4.1200933,0.45074486 C 4.3274575,0.45046076 4.5348403,0.45079166 4.7421986,0.44874432 C 4.9200463,0.44872577 5.097894,0.4486991 5.2757417,0.44870365 C 5.4564782,0.44886781 5.637216,0.44868319 5.8179506,0.44969052 C 6.0537434,0.45152344 6.2895336,0.45347814 6.5253178,0.45628892 C 6.8633295,0.45757 7.2013154,0.45748462 7.5393291,0.45650195 C 7.82689,0.45447892 8.1144488,0.45230724 8.4020176,0.45365584 C 8.7272258,0.45672442 9.0524537,0.46025824 9.3776773,0.45916875 C 9.727316,0.45882283 10.076991,0.45990432 10.426608,0.45462674 C 10.705106,0.44627447 10.984648,0.44322533 11.260751,0.40129223 C 11.586977,0.35015257 11.912191,0.29279265 12.24029,0.25423371 C 12.582803,0.2108052 12.924113,0.15990286 13.266356,0.11474188 C 13.517976,0.10125713 13.769233,0.084394247 14.021949,0.096970153 C 14.302339,0.097060784 14.582727,0.095754616 14.863114,0.097947677 C 15.170764,0.097173797 15.478366,0.098713401 15.786007,0.1011066 C 16.191486,0.10417969 16.596959,0.10520701 17.002449,0.10483449 C 17.41818,0.10424805 17.833912,0.10412421 18.249639,0.10203248 C 18.606396,0.10175267 18.963133,0.10000016 19.319884,0.097854234 C 19.701377,0.089740292 20.083005,0.080777813 20.463608,0.051388342 C 20.865695,0.022639717 21.267405,0.00038723226 21.670812,0.014659514 C 22.133826,0.017195426 22.596838,0.020088493 23.059861,0.018126899 C 23.564282,0.019290843 24.068718,0.01819734 24.573123,0.023153902 C 25.196938,0.026958693 25.820789,0.025426264 26.444609,0.023663337 C 27.036719,0.021183999 27.628925,0.018484696 28.220951,0.030992351 C 28.880248,0.047796172 29.539419,0.081981661 30.195048,0.15586964 C 30.739168,0.21463236 31.286702,0.25688204 31.825707,0.35315695 L 30.736981,1.0918462 z "/>
<path style="fill:#800000;fill-opacity:1" d="M 1.0394974,0.65030579 C 1.0887946,1.0276594 1.1735665,1.4004403 1.2497871,1.7734538 C 1.4580741,2.7190062 1.7131126,3.6531735 1.9320666,4.5961702 C 2.2233719,5.7989344 2.4033275,7.0232425 2.5241089,8.2536341 C 2.6299507,9.4139534 2.6405602,10.579443 2.654975,11.743547 C 2.6631367,12.748765 2.6630547,13.753975 2.6702579,14.759212 C 2.6648784,15.566084 2.6800193,16.372894 2.6848023,17.179736 C 2.6945876,17.74832 2.6965464,18.316945 2.6990567,18.885587 C 2.7078729,19.380632 2.701268,19.875018 2.6787518,20.369448 C 2.6455277,20.798953 2.6350207,21.229336 2.6285187,21.65986 C 2.6197747,21.980843 2.6255398,22.301911 2.628587,22.622914 C 2.6309132,22.888822 2.6296539,23.154746 2.6289782,23.420656 C 2.63429,23.670301 2.6314712,23.919888 2.6290826,24.169534 C 2.6147024,24.487327 2.5502641,24.799681 2.5017858,25.113428 C 2.4567722,25.445773 2.4543531,25.781333 2.4472122,26.115944 C 2.4353704,26.459259 2.3877826,26.797334 2.3276916,27.134724 C 2.2660803,27.36826 2.2351859,27.606597 2.2038405,27.8452 C 2.202878,28.030688 2.1781462,28.212165 2.1530651,28.395223 C 2.1142768,28.592716 2.1119127,28.794066 2.1030421,28.994287 C 2.1027155,29.176385 2.0978274,29.358553 2.0950157,29.540468 C 2.0853366,29.717179 2.004803,29.866224 1.9329023,30.022543 C 1.8375395,30.147384 1.7991402,30.296907 1.7447718,30.440775 C 1.6736332,30.593044 1.6155419,30.75068 1.553791,30.906782 C 1.4933815,31.071513 1.3999737,31.222386 1.3176845,31.377091 L 0.12372521,31.907042 C 0.20394352,31.758042 0.28607558,31.610336 0.37023481,31.463582 C 0.42654237,31.305701 0.47381645,31.143078 0.55344315,30.994661 C 0.60544415,30.843785 0.64950434,30.68723 0.73490837,30.551056 C 0.80920088,30.411462 0.90673933,30.286352 0.91878495,30.120164 C 0.92749588,29.943384 0.94596685,29.762942 0.93859443,29.583574 C 0.94687435,29.37851 0.95168991,29.173089 0.97809277,28.969232 C 1.0030645,28.788017 1.0436287,28.61107 1.0362069,28.426279 C 1.0687591,28.179215 1.0995069,27.932327 1.1730476,27.692654 C 1.2359823,27.362856 1.2984762,27.033439 1.3051495,26.695864 C 1.3102633,26.356895 1.3158517,26.017381 1.3523449,25.679994 C 1.3958681,25.371982 1.4580848,25.066354 1.4788697,24.755602 C 1.476421,24.505986 1.4736629,24.256432 1.4787103,24.006815 C 1.4777513,23.740907 1.4760666,23.474984 1.4780968,23.209076 C 1.4817462,22.884753 1.4875467,22.560446 1.4909841,22.236108 C 1.5078976,21.801274 1.5259357,21.366444 1.5569423,20.932339 C 1.5861812,20.438954 1.5922697,19.946349 1.5874481,19.451983 C 1.5899566,18.878446 1.5919177,18.304926 1.6019235,17.73145 C 1.6071875,16.918965 1.6232103,16.106546 1.6202344,15.294026 C 1.6304561,14.283791 1.6361561,13.273606 1.6366156,12.263316 C 1.6348782,11.098934 1.6221311,9.9332349 1.5308719,8.7718442 C 1.4140817,7.5475137 1.2393241,6.3281814 0.93416819,5.1349659 C 0.69759869,4.2036187 0.43672753,3.2800379 0.16238555,2.3591084 C 0.068623347,1.9986487 -0.028207254,1.6396069 -0.12510059,1.2800968 L 1.0394974,0.65030579 z "/>
<path style="fill:#008000;fill-opacity:1" d="M 5.0585263,1.9588931 C 5.1569418,2.1695421 5.3427258,2.3152007 5.5097505,2.4703583 C 5.7907197,2.7005357 6.0491635,2.9562807 6.3061526,3.2123964 C 6.6745797,3.6292472 7.0600346,4.0224967 7.4839222,4.3831014 C 8.0965181,4.8891685 8.7293684,5.3720688 9.3721412,5.8392349 C 10.004496,6.295156 10.642077,6.7458296 11.227704,7.261611 C 11.703066,7.7180623 12.050911,8.2871636 12.391588,8.8464274 C 12.846764,9.6389408 13.348046,10.402421 13.874983,11.148627 C 14.629277,12.217873 15.513416,13.184984 16.41193,14.13292 C 17.135356,14.836415 17.842017,15.555736 18.493675,16.326596 C 18.814799,16.689028 19.036822,17.116779 19.25756,17.543379 C 19.459647,17.955156 19.734114,18.322363 20.002147,18.69201 C 20.339054,19.175062 20.728521,19.615317 21.13221,20.042806 C 21.588074,20.527497 22.085746,20.970033 22.580746,21.413782 C 23.058891,21.83023 23.558748,22.220499 24.038472,22.635366 C 24.384088,22.970844 24.696282,23.33614 25.000723,23.708543 C 25.23265,23.986908 25.433957,24.285171 25.630474,24.588718 C 25.782472,24.870797 25.927039,25.157567 26.077601,25.440485 C 26.243758,25.740133 26.325757,26.069894 26.403865,26.400122 C 26.457621,26.74776 26.558745,27.081994 26.672421,27.413481 C 26.812377,27.750388 26.961923,28.083284 27.110837,28.41636 C 27.224683,28.697951 27.366834,28.966876 27.496111,29.241627 C 27.526086,29.425613 27.640107,29.528807 27.741899,29.661171 C 27.873636,29.781482 28.039124,29.782324 28.201055,29.819787 C 28.377579,29.835439 28.554914,29.830537 28.731868,29.831686 C 28.910755,29.830712 29.089644,29.830296 29.268532,29.829821 C 29.447183,29.82952 29.625835,29.829549 29.804486,29.829513 C 30.487082,29.832056 30.374785,29.631582 29.011282,30.605719 C 28.998946,30.604962 28.986609,30.604205 28.974273,30.603448 L 30.046512,29.824413 C 30.060928,29.823654 30.075345,29.822896 30.089762,29.822137 C 29.078872,30.569225 29.417933,30.618577 28.746316,30.598344 C 28.567725,30.598449 28.389133,30.598399 28.210541,30.598867 C 28.0316,30.599438 27.852659,30.600216 27.673717,30.600323 C 27.492643,30.597539 27.310655,30.600821 27.131134,30.572521 C 26.951458,30.52306 26.774473,30.488559 26.629934,30.357909 C 26.523019,30.203642 26.390885,30.085268 26.366941,29.879369 C 26.246391,29.599564 26.115456,29.324652 25.998507,29.043604 C 25.851788,28.706417 25.703277,28.370293 25.555853,28.033458 C 25.43764,27.696852 25.337174,27.356472 25.273404,27.004448 C 25.204467,26.682139 25.12379,26.365287 24.963541,26.073265 C 24.813283,25.795065 24.665683,25.515599 24.526066,25.232069 C 24.333073,24.932858 24.13328,24.63902 23.913494,24.358468 C 23.620689,23.987743 23.32411,23.62034 22.98455,23.290377 C 22.513928,22.86758 22.023755,22.468376 21.542174,22.058253 C 21.043171,21.6136 20.550543,21.160721 20.085292,20.680557 C 19.675739,20.250623 19.274688,19.813926 18.929057,19.329493 C 18.651056,18.958235 18.36279,18.59071 18.158147,18.171766 C 17.947258,17.750927 17.735525,17.327026 17.450122,16.950287 C 16.847476,16.15247 16.185028,15.406408 15.471637,14.705315 C 14.573823,13.747419 13.680064,12.78175 12.890535,11.730751 C 12.342101,10.994996 11.812069,10.246385 11.342458,9.457183 C 10.993648,8.9154339 10.653601,8.3571299 10.185376,7.9079051 C 9.6176776,7.3854155 9.0020993,6.9220592 8.3762947,6.4715536 C 7.7247368,6.0030776 7.068901,5.5380981 6.4460847,5.0317196 C 6.0127345,4.6740202 5.615012,4.2797928 5.2259729,3.8747647 C 4.9638582,3.6245063 4.699555,3.3760867 4.4189133,3.1464591 C 4.2396669,2.9856128 4.0449617,2.834814 3.9145265,2.6292422 L 5.0585263,1.9588931 z "/>
<path style="fill:#008000;fill-opacity:1" d="M 5.126375,28.355992 C 3.9316571,29.05141 4.1688665,28.982628 4.8790101,28.237323 C 5.3461131,27.736683 5.7113231,27.154159 6.0769691,26.578412 C 6.4445567,26.009247 6.7925925,25.427808 7.161086,24.859264 C 7.4728391,24.379657 7.792186,23.90504 8.1099456,23.429405 C 8.4342223,22.938458 8.7698439,22.454892 9.1371697,21.995076 C 9.5342345,21.504624 9.9332437,21.015797 10.330892,20.525819 C 10.707306,20.056397 11.102738,19.602755 11.516393,19.165923 C 11.984393,18.68674 12.436414,18.193141 12.879769,17.691192 C 13.318921,17.189817 13.759899,16.689943 14.205939,16.194671 C 14.639819,15.704677 15.064048,15.206354 15.489642,14.709169 C 15.869456,14.243857 16.294849,13.820853 16.732408,13.410634 C 17.224688,12.973606 17.758122,12.58928 18.29184,12.205567 C 18.816937,11.829508 19.337427,11.44735 19.867572,11.078365 C 20.752493,10.476434 21.734201,10.049832 22.667035,9.5346716 C 24.094273,8.7163303 21.794353,10.126334 23.315309,9.1318334 C 23.664366,8.9320426 23.978013,8.6838389 24.284039,8.4252787 C 24.493494,8.2394302 24.668519,8.0228075 24.846639,7.808478 C 24.998429,7.6435649 25.107412,7.4503679 25.222305,7.2604323 C 25.329258,7.0572563 25.485915,6.8921928 25.633522,6.7199365 C 25.794145,6.5605214 25.949781,6.3963493 26.106109,6.2327676 C 26.250136,6.0961323 26.344358,5.9277603 26.443816,5.759604 C 26.539402,5.6255318 26.577748,5.4703051 26.634102,5.3199593 C 26.727575,5.1223227 26.870578,4.952281 26.999246,4.7764791 C 27.130442,4.6214446 27.198428,4.436358 27.273061,4.251462 C 27.371509,4.0313753 27.491368,3.8213692 27.606809,3.6098592 C 27.687147,3.4550925 27.762897,3.2978324 27.84075,3.1421963 C 28.000735,3.009328 27.763618,2.9649171 27.748116,2.9292876 L 28.838858,2.193114 C 28.967013,2.3355697 29.087784,2.3488238 29.028929,2.5868695 C 28.951584,2.7485081 28.891934,2.920018 28.793655,3.0732856 C 28.676483,3.2791623 28.564727,3.4881394 28.45639,3.6992399 C 28.385409,3.8940797 28.324206,4.0938423 28.19166,4.258056 C 28.068853,4.4262777 27.948343,4.5963742 27.823489,4.7631916 C 27.77193,4.9206679 27.739962,5.0867545 27.632858,5.2206547 C 27.540551,5.400894 27.45543,5.5823138 27.308462,5.7271001 C 27.148907,5.8914169 26.996987,6.0635681 26.830603,6.2218229 C 26.6783,6.3824441 26.526352,6.5393273 26.411022,6.7303096 C 26.297904,6.928381 26.193144,7.1303999 26.038984,7.3022995 C 25.85707,7.5233842 25.676765,7.7451651 25.468152,7.9428631 C 25.158023,8.2143532 24.84025,8.4782914 24.477011,8.6779269 C 23.585496,9.2590875 22.668319,9.8020706 21.724558,10.29444 C 21.321692,10.513763 19.477427,11.536769 21.272157,10.476415 C 21.35858,10.425355 21.098733,10.577549 21.012021,10.628116 C 20.476997,10.998231 19.950655,11.380193 19.421589,11.758626 C 18.895269,12.140655 18.365273,12.516445 17.873142,12.942914 C 17.432814,13.349718 17.003707,13.769273 16.619685,14.230578 C 16.193453,14.731955 15.761136,15.228219 15.327502,15.723199 C 14.882888,16.21725 14.445917,16.718138 14.006658,17.21694 C 13.559596,17.712299 13.119745,18.213775 12.653727,18.691683 C 12.237133,19.125147 11.841613,19.578113 11.461132,20.043634 C 11.064233,20.536294 10.661736,21.024421 10.262135,21.514879 C 9.8956114,21.966258 9.5740378,22.450987 9.2464784,22.930903 C 8.9357779,23.417067 8.5958788,23.883891 8.2817816,24.367959 C 7.9053744,24.934389 7.5593992,25.520397 7.1874401,26.089778 C 6.8222237,26.661563 6.4723068,27.248596 6.0211766,27.758742 C 5.4560708,28.39393 4.962261,28.840638 4.0893776,29.171446 L 5.126375,28.355992 z "/>
</g>
</svg>
