<?xml version="1.0" encoding="UTF-8"?>
<!DOCTYPE svg PUBLIC "-//W3C//DTD SVG 1.1 Tiny//EN" "http://www.w3.org/Graphics/SVG/1.1/DTD/svg11-tiny.dtd">
<svg baseProfile="tiny" width="128" height="128" viewBox="0 0 128 128" xmlns="http://www.w3.org/2000/svg" xmlns:sodipodi="http://sodipodi.sourceforge.net/DTD/sodipodi-0.dtd" xmlns:xlink="http://www.w3.org/1999/xlink">
<defs>
<linearGradient id="linearGradient168">
<stop offset="0.000000" style="stop-color:#cdffff;stop-opacity:1;"/>
<stop offset="1.000000" style="stop-color:#0c5d7d;stop-opacity:0.905882;"/>
</linearGradient>
<linearGradient>
<stop offset="0.000000" style="stop-color:#cdffff;stop-opacity:1;"/>
<stop offset="1.000000" style="stop-color:#006b97;stop-opacity:0.905882;"/>
</linearGradient>
<linearGradient id="linearGradient67">
<stop offset="0.000000" style="stop-color:#d7ffff;stop-opacity:0.898039;"/>
<stop offset="1.000000" style="stop-color:#2ea6b9;stop-opacity:0.952941;"/>
</linearGradient>
<linearGradient id="linearGradient57">
<stop offset="0.000000" style="stop-color:#ffffff;stop-opacity:1;"/>
<stop offset="1.000000" style="stop-color:#797979;stop-opacity:1;"/>
</linearGradient>
<defs>
<radialGradient cx="869.603027" cy="1973.579956" r="2106.649902" fx="869.603027" fy="1973.579956" gradientUnits="userSpaceOnUse" xlink:href="#linearGradient67"/>
</defs>
<defs>
<linearGradient id="2" x1="255.848" y1="119.147" x2="375.686" y2="34.1009" gradientUnits="userSpaceOnUse">
<stop offset="0" style="stop-color:#ffffff"/>
<stop style="stop-color:#000000"/>
</linearGradient>
</defs>
<defs>
<linearGradient x1="275.053009" y1="109.384003" x2="356.480988" y2="30.864300" gradientUnits="userSpaceOnUse" xlink:href="#linearGradient57"/>
</defs>
<radialGradient cx="3.03981e-14" cy="1.05578e-10" r="0.773346" fx="3.03981e-14" fy="1.05578e-10" xlink:href="#linearGradient168" id="radialGradient88" gradientUnits="objectBoundingBox" gradientTransform="matrix(0.945877,0,0,1.05722,0.264368,0.249996)"/>
<linearGradient x1="2.69643" y1="1.14655" x2="3.85147" y2="0.623116" xlink:href="#linearGradient67" id="linearGradient89" gradientUnits="objectBoundingBox" gradientTransform="translate(-2.65767,-0.201241)"/>
</defs>
<path style="font-size:12;fill:url(#radialGradient88);stroke:#0c5d7d;stroke-opacity:0.99;stroke-width:4.03585;" d="M 35.399 39.1321L 277.219 39.1321L 377.219 137.984L 377.219 548.198L 35.399 548.198L 35.399 39.1321z" transform="matrix(0.278752,0,0,0.284891,29.8322,1.63322)"/>
<path style="font-size:12;fill:#ffffff;fill-opacity:0.699301;stroke:#2ea6b9;stroke-width:8.96855;stroke-opacity:0.82;" d="M 23.9471 20.1241L 265.767 20.1241L 365.767 120.124L 365.767 535.103L 23.9471 535.103L 23.9471 20.1241z" transform="matrix(0.278752,0,0,0.278752,29.8322,3.74844)"/>
<path style="font-size:12;fill:url(#2);" d="M 276.767 133.124L 365.767 120.124L 265.767 20.1241" transform="matrix(0.278752,0,0,0.278752,29.8322,3.74844)"/>
<path style="font-size:12;fill:url(#linearGradient89);stroke:#2ea6b9;stroke-width:6.72641;stroke-opacity:0.91;" d="M 265.767 120.124L 365.767 120.124L 265.767 20.1241L 265.767 120.124" transform="matrix(0.278752,0,0,0.278752,29.8322,3.74844)"/>
</svg>
