<?xml version="1.0" encoding="UTF-8"?>
<!DOCTYPE svg PUBLIC "-//W3C//DTD SVG 1.1 Tiny//EN" "http://www.w3.org/Graphics/SVG/1.1/DTD/svg11-tiny.dtd">
<svg baseProfile="tiny" xmlns="http://www.w3.org/2000/svg" xmlns:xlink="http://www.w3.org/1999/xlink" height="48" width="48" viewBox="0 0 48 48">
<defs>
<linearGradient id="linearGradient5699">
<stop offset="0" style="stop-color:#f57900;stop-opacity:1;"/>
<stop offset="1.0000000" style="stop-color:#ffa34a;stop-opacity:1.0000000;"/>
</linearGradient>
<linearGradient id="linearGradient2681">
<stop style="stop-color:#000000;stop-opacity:0.47524753;" offset="0.0000000"/>
<stop style="stop-color:#000000;stop-opacity:0;" offset="1"/>
</linearGradient>
<linearGradient id="linearGradient2673">
<stop style="stop-color:#ffffff;stop-opacity:1;" offset="0"/>
<stop style="stop-color:#6f6f6f;stop-opacity:1.0000000;" offset="1.0000000"/>
</linearGradient>
<linearGradient id="linearGradient4264">
<stop offset="0" style="stop-color:#000000;stop-opacity:1;"/>
<stop offset="1" style="stop-color:#000000;stop-opacity:0;"/>
</linearGradient>
<linearGradient id="linearGradient4254">
<stop offset="0.0000000" style="stop-color:#ffffff;stop-opacity:0.49704143;"/>
<stop offset="1.0000000" style="stop-color:#858585;stop-opacity:1.0000000;"/>
</linearGradient>
<linearGradient id="linearGradient4244">
<stop offset="0.0000000" style="stop-color:#e4e4e4;stop-opacity:1.0000000;"/>
<stop offset="1.0000000" style="stop-color:#d3d3d3;stop-opacity:1.0000000;"/>
</linearGradient>
<linearGradient id="linearGradient4228">
<stop offset="0.0000000" style="stop-color:#bbbbbb;stop-opacity:1.0000000;"/>
<stop offset="1.0000000" style="stop-color:#9f9f9f;stop-opacity:1.0000000;"/>
</linearGradient>
<linearGradient gradientUnits="userSpaceOnUse" y2="40.943935" x2="36.183067" y1="28.481176" x1="7.6046205" id="linearGradient4234" xlink:href="#linearGradient4228" gradientTransform="translate(0.000000,5.546300e-2)"/>
<radialGradient gradientUnits="userSpaceOnUse" gradientTransform="matrix(1.286242,0.781698,-0.710782,1.169552,-2.354348,-4.821398)" r="20.935817" fy="2.9585190" fx="15.571491" cy="2.9585190" cx="15.571491" id="radialGradient4250" xlink:href="#linearGradient4244"/>
<linearGradient gradientUnits="userSpaceOnUse" y2="38.950550" x2="26.064877" y1="26.883776" x1="26.520493" id="linearGradient4260" xlink:href="#linearGradient4254" gradientTransform="matrix(-1.000000,0.000000,0.000000,1.000000,48.34946,5.546300e-2)"/>
<radialGradient gradientUnits="userSpaceOnUse" gradientTransform="matrix(1.000000,0.000000,0.000000,0.651032,-1.049129e-15,9.455693)" r="23.555494" fy="27.096155" fx="23.201941" cy="27.096155" cx="23.201941" xlink:href="#linearGradient4264"/>
<radialGradient xlink:href="#linearGradient2673" id="radialGradient2679" cx="40.796875" cy="33.734375" fx="40.796875" fy="33.734375" r="0.98437500" gradientUnits="userSpaceOnUse" gradientTransform="matrix(1.253968,-7.218212e-15,7.218212e-15,1.253968,-10.36111,-8.567460)"/>
<linearGradient xlink:href="#linearGradient2681" id="linearGradient2687" x1="25.785229" y1="32.363384" x2="25.785229" y2="35.670216" gradientUnits="userSpaceOnUse"/>
<linearGradient gradientUnits="userSpaceOnUse" y2="10.596288" x2="16.127340" y1="22.705490" x1="34.420757" id="linearGradient5705" xlink:href="#linearGradient5699"/>
</defs>
<metadata/>
<g>
<rect style="opacity:0.2;color:black;fill:black;fill-opacity:1;fill-rule:evenodd;stroke:none;stroke-width:1;stroke-linecap:round;stroke-linejoin:round;marker:none;marker-start:none;marker-mid:none;marker-end:none;stroke-miterlimit:4;stroke-dasharray:none;stroke-dashoffset:0;stroke-opacity:1;visibility:visible;display:inline;overflow:visible" width="48.083263" height="6.7175117" x="0.17677665" y="36.15596" rx="3.4214847" ry="3.3587558"/>
<path d="M 11.285690,8.0180850 C 10.660690,8.0180850 10.254441,8.3082650 10.004442,8.8618380 C 10.004441,8.8618380 3.5356915,25.965402 3.5356915,25.965402 C 3.5356915,25.965402 3.2856915,26.636961 3.2856915,27.746652 C 3.2856915,27.746652 3.2856915,37.396620 3.2856915,37.396620 C 3.2856915,38.479233 3.9434770,39.021622 4.9419415,39.021620 L 43.504440,39.021620 C 44.489293,39.021620 45.098190,38.303440 45.098190,37.177870 L 45.098190,27.527902 C 45.098190,27.527902 45.204153,26.757479 45.004440,26.215402 L 38.285690,9.0180890 C 38.101165,8.5061820 37.648785,8.0299910 37.160690,8.0180850 L 11.285690,8.0180850 z " style="fill:none;fill-opacity:1.0000000;fill-rule:evenodd;stroke:#000000;stroke-width:4.0000000;stroke-linecap:round;stroke-linejoin:round;stroke-miterlimit:4.0000000;stroke-dasharray:none;stroke-opacity:1.0000000"/>
<path d="M 3.2735915,27.052276 L 4.0381936,26.360061 L 41.647883,26.422561 L 45.110290,26.739859 L 45.110290,37.178391 C 45.110290,38.303960 44.503272,39.021722 43.518419,39.021722 L 4.9354314,39.021722 C 3.9369667,39.021722 3.2735915,38.479671 3.2735915,37.397058 L 3.2735915,27.052276 z " style="fill:url(#linearGradient4234);fill-opacity:1.0000000;fill-rule:evenodd;stroke:none;stroke-width:1.0204430px;stroke-linecap:butt;stroke-linejoin:miter;stroke-opacity:1.0000000"/>
<path d="M 3.5490842,25.969868 C 2.8347985,27.434154 3.5484686,28.362725 4.5847985,28.362725 C 4.5847985,28.362725 43.584797,28.362725 43.584797,28.362725 C 44.703844,28.338915 45.430035,27.350820 45.013368,26.219867 L 38.299082,9.0091620 C 38.114558,8.4972550 37.644320,8.0210630 37.156225,8.0091580 L 11.299083,8.0091580 C 10.674083,8.0091580 10.263369,8.3127310 10.013370,8.8663040 C 10.013370,8.8663040 3.5490842,25.969868 3.5490842,25.969868 z " style="fill:url(#radialGradient4250);fill-opacity:1.0000000;fill-rule:evenodd;stroke:none;stroke-width:1.0000000px;stroke-linecap:butt;stroke-linejoin:miter;stroke-opacity:1.0000000"/>
<path d="M 43.562434,27.674347 C 43.562434,27.674347 5.4437179,27.674346 5.4437180,27.674347 C 4.1544861,27.674347 3.5317878,27.437788 3.3154731,26.894679 C 3.4072345,27.839011 4.1854847,28.455597 5.4437180,28.455597 C 5.4437179,28.455596 43.562434,28.455597 43.562434,28.455597 C 44.638441,28.422526 45.301832,27.596846 45.047181,26.300495 C 44.913133,27.142077 44.470547,27.646437 43.562434,27.674347 z " style="opacity:1.0000000;fill:#ffffff;fill-opacity:1.0000000;fill-rule:evenodd;stroke:none;stroke-width:1.0000000px;stroke-linecap:butt;stroke-linejoin:miter;stroke-opacity:1.0000000"/>
<path d="M 38.344670,9.2120874 C 38.344670,9.2120874 44.500000,24.750000 44.500000,24.750000 C 43.881282,24.352252 43.618718,24.036612 43.000000,24.125000 L 5.2500000,24.125000 C 4.5428932,24.125000 3.8383883,24.875000 3.8383883,24.875000 L 10.125000,8.8750000 C 10.258882,8.3753463 10.748699,8.0732233 11.411612,8.0732233 L 36.830806,7.9848350 C 38.156631,8.1616117 38.123699,8.5933690 38.344670,9.2120874 z " style="opacity:1.0000000;color:#000000;fill:url(#linearGradient5705);fill-opacity:1.0;fill-rule:nonzero;stroke:none;stroke-width:1.0000000;stroke-linecap:butt;stroke-linejoin:miter;marker:none;marker-start:none;marker-mid:none;marker-end:none;stroke-miterlimit:4.0000000;stroke-dasharray:none;stroke-dashoffset:0.0000000;stroke-opacity:1.0000000;visibility:visible;display:inline;overflow:visible"/>
<path style="stroke-opacity:1.0000000;stroke-linejoin:miter;stroke-linecap:butt;stroke-width:1.0000000px;stroke:none;fill-rule:evenodd;fill-opacity:1.0000000;fill:#d06700" d="M 44.707773,25.362009 C 44.373548,25.128501 44.072800,25.167489 43.518240,25.139579 C 43.518240,25.139579 4.7366112,24.874414 4.7366112,24.874414 C 4.1620870,24.918608 3.4957121,25.684093 3.4957121,25.684093 C 3.4957121,25.684093 4.0667741,24.284062 4.0667741,24.284062 C 4.0667741,24.284062 4.4064556,23.120892 5.6646889,23.120892 C 5.6646888,23.120893 42.855327,23.120892 42.855327,23.120892 C 43.577781,23.153963 44.022560,23.550547 44.207491,24.016460 L 44.707773,25.362009 z "/>
<path style="fill:none;fill-opacity:1.0000000;fill-rule:evenodd;stroke:url(#linearGradient4260);stroke-width:1.0000002;stroke-linecap:round;stroke-linejoin:round;stroke-miterlimit:4.0000000;stroke-dasharray:none;stroke-opacity:1.0000000" d="M 36.706942,8.4711800 C 37.308634,8.4711800 37.699733,8.7505390 37.940408,9.2834670 C 37.940409,9.2834670 44.355423,25.874196 44.355423,25.874196 C 44.355423,25.874196 44.596100,26.520711 44.596100,27.589019 C 44.596100,27.589019 44.596100,36.879115 44.596100,36.879115 C 44.596100,38.233855 44.152044,38.506014 43.001616,38.506014 L 5.3147112,38.506014 C 3.9915852,38.506014 3.7803952,38.189617 3.7803952,36.668522 L 3.7803952,27.378426 C 3.7803952,27.378426 3.6783852,26.636735 3.8706502,26.114873 L 10.463841,9.3088910 C 10.641484,8.8160750 11.014493,8.4826410 11.484386,8.4711800 L 36.706942,8.4711800 z "/>
<g transform="matrix(0.828197,0.000000,0.000000,0.610240,4.176000,11.16143)" style="fill:url(#linearGradient2687);fill-opacity:1.0000000">
<rect y="32.363384" x="5.3414402" height="3.8650389" width="37.930714" style="opacity:1.0000000;color:#000000;fill:url(#linearGradient2687);fill-opacity:1.0000000;fill-rule:evenodd;stroke:none;stroke-width:1.0000000;stroke-linecap:square;stroke-linejoin:round;marker:none;marker-start:none;marker-mid:none;marker-end:none;stroke-miterlimit:4.0000000;stroke-dasharray:none;stroke-dashoffset:0.0000000;stroke-opacity:0.42372879;visibility:visible;display:inline;overflow:visible"/>
</g>
<path style="opacity:0.71428573;fill:#ffffff;fill-opacity:1.0000000;fill-rule:evenodd;stroke:none;stroke-width:1.0000000px;stroke-linecap:butt;stroke-linejoin:miter;stroke-opacity:1.0000000" d="M 8.6250000,33.250000 C 8.6250000,33.250000 9.0696486,34.066942 9.8651437,34.022748 C 9.8651437,34.022748 40.715385,34.000000 40.715385,34.000000 C 40.671191,31.569320 40.027885,30.881430 40.027885,30.881430 L 40.062500,33.312500 L 8.6250000,33.250000 z "/>
<path style="opacity:1.0000000;color:#000000;fill:url(#radialGradient2679);fill-opacity:1.0000000;fill-rule:evenodd;stroke:none;stroke-width:1.0204430px;stroke-linecap:butt;stroke-linejoin:miter;marker:none;marker-start:none;marker-mid:none;marker-end:none;stroke-miterlimit:4.0000000;stroke-dasharray:none;stroke-dashoffset:0.0000000;stroke-opacity:1.0000000;visibility:visible;display:inline;overflow:visible;font-family:Bitstream Vera Sans" d="M 42.000000 33.984375 A 0.98437500 0.98437500 0 1 1  40.031250,33.984375 A 0.98437500 0.98437500 0 1 1  42.000000 33.984375 z" transform="matrix(1.380952,0.000000,0.000000,1.380952,-15.62500,-10.94643)"/>
</g>
</svg>
