<?xml version="1.0" encoding="UTF-8" standalone="no"?>
<!-- Created with Inkscape (http://www.inkscape.org/) -->
<svg
   xmlns:dc="http://purl.org/dc/elements/1.1/"
   xmlns:cc="http://web.resource.org/cc/"
   xmlns:rdf="http://www.w3.org/1999/02/22-rdf-syntax-ns#"
   xmlns:svg="http://www.w3.org/2000/svg"
   xmlns="http://www.w3.org/2000/svg"
   xmlns:sodipodi="http://sodipodi.sourceforge.net/DTD/sodipodi-0.dtd"
   xmlns:inkscape="http://www.inkscape.org/namespaces/inkscape"
   width="32px"
   height="32px"
   id="svg2160"
   sodipodi:version="0.32"
   inkscape:version="0.45"
   sodipodi:docbase="C:\Symbian_projects_91\Tools\YBrowser\FileBrowser\data\icon_mbm\org"
   sodipodi:docname="box.svg"
   inkscape:output_extension="org.inkscape.output.svg.inkscape"
   sodipodi:modified="true">
  <defs
     id="defs2162" />
  <sodipodi:namedview
     id="base"
     pagecolor="#ffffff"
     bordercolor="#666666"
     borderopacity="1.0"
     inkscape:pageopacity="0.0"
     inkscape:pageshadow="2"
     inkscape:zoom="6.0007535"
     inkscape:cx="16"
     inkscape:cy="16"
     inkscape:current-layer="layer1"
     showgrid="true"
     inkscape:grid-bbox="true"
     inkscape:document-units="px"
     inkscape:window-width="744"
     inkscape:window-height="573"
     inkscape:window-x="22"
     inkscape:window-y="29" />
  <metadata
     id="metadata2165">
    <rdf:RDF>
      <cc:Work
         rdf:about="">
        <dc:format>image/svg+xml</dc:format>
        <dc:type
           rdf:resource="http://purl.org/dc/dcmitype/StillImage" />
      </cc:Work>
    </rdf:RDF>
  </metadata>
  <g
     id="layer1"
     inkscape:label="Layer 1"
     inkscape:groupmode="layer">
    <path
       style="fill:#2b1100;fill-opacity:1"
       id="path2174"
       d="M 2.4273157,0.8832262 C 2.2964912,1.2443476 2.3466645,1.6197589 2.360173,1.9939897 C 2.3643594,2.5950078 2.505128,3.1819288 2.6063993,3.7714764 C 2.6589846,4.4688794 2.7745134,5.1569557 2.887539,5.8466019 C 3.0014983,6.5804392 3.0259333,7.322184 3.0479478,8.0628858 C 3.1030085,8.8231981 3.1591035,9.5831452 3.226633,10.342429 C 3.2857408,11.343774 3.3547858,12.344005 3.4277444,13.344457 C 3.4638326,14.27369 3.5575754,15.198352 3.6424356,16.123967 C 3.7113607,16.781504 3.7189114,17.44263 3.728205,18.102947 C 3.7334483,18.693715 3.7337283,19.284482 3.7395488,19.875242 C 3.7463366,20.367246 3.7401328,20.859364 3.7389804,21.35135 C 3.7376457,21.806207 3.7445018,22.261043 3.7494197,22.715865 C 3.7460617,23.133814 3.7477493,23.551771 3.7467868,23.969723 C 3.7401062,24.443018 3.7421057,24.916343 3.7427747,25.389666 C 3.7427823,25.825679 3.7454219,26.261667 3.7488366,26.697675 C 3.775201,27.074361 3.730595,27.443809 3.6882436,27.815893 C 3.6490067,28.156868 3.5087149,28.471643 3.3869808,28.789105 C 3.3087423,29.110401 3.2047641,29.424524 3.1093168,29.740343 C 2.9797164,30.011958 2.9764931,30.309104 2.9342798,30.599235 C 2.8226287,31.17501 3.0185596,30.67283 3.03675,30.688714 C -2.3034997,34.449631 1.4338555,31.588503 1.8789534,31.212271 C 2.1417193,30.877664 2.4353189,30.604164 2.7638549,30.33988 C 4.4298408,29.159707 5.8495561,28.779363 7.7534104,28.589197 C 8.8228673,28.498233 9.8969326,28.493086 10.969392,28.478263 C 11.916045,28.469147 12.862772,28.475344 13.809372,28.486847 C 15.104288,28.440746 16.386618,28.585306 17.669396,28.737045 C 18.695737,28.861769 19.728346,28.906876 20.756471,29.010546 C 21.230882,29.041158 21.694827,29.140727 22.160683,29.228702 C 22.628216,29.332437 23.09042,29.45701 23.554991,29.573153 C 24.098203,29.762424 24.649234,29.919242 25.206834,30.059339 C 25.725628,30.189055 26.231717,30.364179 26.742934,30.519245 C 27.128676,30.677229 27.537946,30.714556 27.945558,30.766971 C 28.330395,30.79259 28.716229,30.786832 29.101627,30.786948 C 29.441695,30.784847 29.781768,30.784111 30.121841,30.783214 C 30.453457,30.76041 30.785723,30.798592 31.112947,30.81415 C 31.386289,30.919682 31.67606,30.888455 31.952163,30.901259 C 30.958123,30.861635 29.853305,32.976635 30.23321,31.364399 C 30.294029,30.625316 30.284111,29.882684 30.290124,29.141765 C 30.295079,28.230969 30.290227,27.320203 30.285231,26.40943 C 30.278504,25.603879 30.278777,24.798299 30.278031,23.992732 C 30.278834,23.158031 30.281758,22.323332 30.285097,21.488632 C 30.288275,20.59864 30.2845,19.708652 30.285994,18.818653 C 30.283075,17.951604 30.28068,17.084657 30.286993,16.21763 C 30.289806,15.39684 30.278035,14.576145 30.273316,13.755399 C 30.270212,13.148782 30.260226,12.542303 30.259159,11.935691 C 30.255716,11.409598 30.25667,10.883491 30.257255,10.357396 C 30.257484,9.8301565 30.259449,9.3029496 30.255179,8.7756823 C 30.272384,8.36411 30.208526,7.9587975 30.154377,7.552441 C 30.088057,7.0908065 29.93059,6.651676 29.795722,6.2072375 C 29.683634,5.7497354 29.558385,5.2959621 29.435802,4.8414165 C 29.315672,4.4901119 29.291033,4.1228274 29.254026,3.7573426 C 29.236027,3.4229007 29.24133,3.0879003 29.239837,2.7531575 C 29.240877,2.4202558 29.241232,2.0873528 29.241816,1.7544502 C 29.222371,1.3635164 28.979054,1.5163117 28.711798,1.4001338 C 28.224966,1.3536186 27.737019,1.3747517 27.251081,1.3972736 C 26.536123,1.4470465 25.824992,1.5001795 25.114458,1.5906046 C 24.149273,1.74099 23.173691,1.7846597 22.199498,1.8298755 C 21.137204,1.8836324 20.075629,1.9500733 19.013212,2.0028172 C 18.329235,2.06866 17.657394,2.2163614 16.977581,2.3142778 C 16.475146,2.3817894 15.973065,2.451755 15.469265,2.5114492 C 14.924943,2.5914381 14.388339,2.7084011 13.845205,2.7961069 C 13.311796,2.8681101 12.783026,2.9556595 12.246865,3.0064407 C 11.682804,3.0121925 11.125634,3.0650327 10.565971,3.1301172 C 10.083625,3.1860853 9.5979421,3.1965766 9.1132425,3.2146188 C 8.6955692,3.2191964 8.2779065,3.2180077 7.8602277,3.2174379 C 7.4108221,3.2168111 6.9614158,3.214969 6.5120111,3.2131662 C 6.0537433,3.2134567 5.5954936,3.2146228 5.1372293,3.2165154 C 4.7127775,3.2157694 4.2883333,3.2164067 3.8638823,3.216204 C 3.4374386,3.2125709 3.0109747,3.2163697 2.584532,3.2185218 C 2.2363614,3.2203633 1.8881861,3.2205195 1.540012,3.2209492 C 1.2072349,3.2211325 0.87445778,3.2210627 0.54168066,3.2210665 C 0.48876624,3.210577 0.43585182,3.2000875 0.3829374,3.189598 L 2.3822379,1.7779432 C 2.4269617,1.7807429 2.4716855,1.7835425 2.5164093,1.7863421 C 2.8490788,1.7863459 3.1817482,1.7862761 3.5144177,1.7864595 C 3.8603644,1.7868879 4.2063125,1.7870374 4.5522557,1.7888867 C 4.9765735,1.7910573 5.400912,1.794845 5.8252309,1.7911991 C 6.2499758,1.7909911 6.6747135,1.791615 7.0994591,1.7908767 C 7.5545578,1.7928133 8.0096421,1.793946 8.4647438,1.7945297 C 8.9172276,1.7931912 9.3697151,1.7916841 9.8221991,1.7921891 C 10.239189,1.7913816 10.65628,1.7935844 11.073173,1.7833808 C 11.547581,1.7669666 12.022481,1.7561579 12.494256,1.6972255 C 13.055515,1.63982 13.617029,1.6065633 14.180185,1.5744032 C 14.710535,1.509493 15.23819,1.4283199 15.767305,1.353641 C 16.314095,1.2567307 16.857785,1.1396033 17.4095,1.0728474 C 17.9069,1.007868 18.403243,0.93553651 18.901476,0.87711925 C 19.568133,0.77936784 20.23232,0.64635805 20.906575,0.61648165 C 21.964217,0.58325798 23.021381,0.53782847 24.076519,0.45444489 C 25.0543,0.40540203 26.033027,0.35285342 26.998796,0.17940216 C 27.725892,0.095851157 28.454472,0.038305032 29.183589,-0.028903621 C 29.689206,-0.043005946 30.1969,-0.061002581 30.700576,0.0020954718 C 31.112292,0.16159863 31.324626,0.16334634 31.416697,0.64656505 C 31.416229,0.97950671 31.416067,1.312449 31.414937,1.6453895 C 31.415212,1.9760884 31.411126,2.3068955 31.42202,2.6374862 C 31.447947,2.9884355 31.461581,3.3412145 31.565655,3.681023 C 31.680999,4.138674 31.802736,4.5945107 31.909623,5.0544096 C 32.050229,5.5086431 32.223653,5.9532471 32.30366,6.4240044 C 32.361292,6.8414953 32.436021,7.2577198 32.403618,7.6809978 C 32.399378,8.2089706 32.401295,8.7368823 32.401543,9.2648263 C 32.402129,9.7915686 32.403073,10.318321 32.399639,10.845062 C 32.398565,11.456482 32.388571,12.067772 32.385482,12.679197 C 32.380764,13.504589 32.369031,14.32993 32.371805,15.155365 C 32.378162,16.022052 32.375677,16.888661 32.372804,17.755371 C 32.374297,18.645069 32.370516,19.534757 32.37368,20.424449 C 32.377001,21.256757 32.37989,22.089065 32.380679,22.921375 C 32.379993,23.72913 32.380206,24.536896 32.374586,25.344643 C 32.37134,26.255486 32.368415,27.16632 32.378437,28.077146 C 32.386941,28.812397 32.397057,29.547714 32.399865,30.282999 C 32.279129,31.611224 31.863968,31.818522 29.977685,32.354773 C 29.68924,32.316171 29.398155,32.294169 29.1137,32.225837 C 28.791954,32.221735 28.469646,32.211639 28.147517,32.218189 C 27.808409,32.218802 27.469299,32.219988 27.130192,32.218681 C 26.742438,32.212514 26.353988,32.21314 25.967669,32.173698 C 25.556937,32.10253 25.144603,32.043274 24.753047,31.887959 C 24.251322,31.718523 23.7511,31.539176 23.234985,31.416265 C 22.676822,31.271719 22.125592,31.108568 21.574343,30.939783 C 21.108324,30.82871 20.645222,30.702352 20.172129,30.624021 C 19.723965,30.52975 19.275817,30.434822 18.820284,30.381335 C 17.823697,30.253868 16.822152,30.173054 15.825528,30.04347 C 14.535361,29.887696 13.242928,29.787146 11.941879,29.843266 C 10.990303,29.851896 10.038712,29.851776 9.0871067,29.847674 C 8.0254848,29.85351 6.9620262,29.854854 5.9046256,29.96367 C 4.800218,30.096771 1.2857314,31.241519 4.9963372,29.478569 C 4.6681558,29.718694 4.3410733,29.90856 4.1283506,30.282427 C 3.2522644,31.111464 2.2742273,31.764387 1.1118926,32.221143 C 0.9363682,32.047392 0.6357154,32.181454 0.75058646,31.695637 C 0.78031061,31.384866 0.77216048,31.067282 0.88990784,30.771149 C 0.99366397,30.460346 1.1263922,30.157671 1.1811135,29.830649 C 1.2916626,29.518213 1.4311462,29.211517 1.4934884,28.886816 C 1.5605785,28.524861 1.6153446,28.171532 1.5838271,27.800803 C 1.5872308,27.362735 1.5898748,26.924688 1.589889,26.486616 C 1.5905546,26.014657 1.5925842,25.542695 1.5858729,25.070765 C 1.584905,24.65371 1.5865967,24.236651 1.5832214,23.819599 C 1.5881372,23.361176 1.5949559,22.902742 1.5938421,22.444285 C 1.593078,21.952097 1.5870797,21.459756 1.5951948,20.967561 C 1.602086,20.374569 1.6049688,19.781521 1.6027114,19.188492 C 1.5950424,18.528725 1.5866159,17.868853 1.5500417,17.209881 C 1.4863274,16.277353 1.4102311,15.345805 1.3695512,14.41187 C 1.2988098,13.417405 1.2277655,12.42292 1.1448714,11.429565 C 1.0600982,10.668786 0.99116785,9.9068952 0.9394763,9.1430656 C 0.91879658,8.412622 0.90469651,7.6798986 0.79311707,6.9561213 C 0.67711882,6.2686451 0.54531386,5.5846026 0.49558843,4.8879774 C 0.39642281,4.2944663 0.253801,3.7056864 0.21112566,3.1050601 C 0.18605373,2.7207566 0.12877373,2.3325627 0.19914869,1.9506117 L 2.4273157,0.8832262 z " />
    <path
       style="fill:#008000;fill-opacity:1"
       id="path2194"
       d="M 4.7628204,3.9886294 C 5.0626299,4.0777083 5.3537184,4.1980238 5.6485367,4.3045857 C 6.0287189,4.5029937 6.3805029,4.7505545 6.7375403,4.9848205 C 7.2257125,5.325432 7.6846565,5.7063223 8.1497619,6.0770473 C 8.693175,6.4512491 9.1201415,6.9539788 9.5631059,7.4358068 C 10.110715,8.0497057 10.644663,8.6744385 11.197166,9.2841582 C 12.030981,10.106226 12.91503,10.876114 13.792444,11.651112 C 14.767899,12.536287 15.830753,13.317747 16.902899,14.080534 C 17.568857,14.552501 18.23874,15.017408 18.891678,15.507436 C 19.215443,15.721666 19.510647,15.972809 19.81579,16.211584 C 20.220608,16.636326 20.563256,17.113229 20.927179,17.572377 C 21.475832,18.284228 22.088076,18.942617 22.702377,19.597348 C 23.421611,20.320349 24.213031,20.965672 24.927722,21.692665 C 25.563248,22.31844 26.203178,22.93936 26.82774,23.575968 C 27.247693,23.960304 27.610409,24.392515 27.974855,24.82691 C 28.257002,25.21386 28.54331,25.597385 28.834279,25.977882 C 29.069505,26.261137 29.288052,26.555757 29.510277,26.849265 C 29.53478,26.894196 29.559283,26.939126 29.583786,26.984057 L 27.457797,28.201938 C 27.438314,28.164366 27.41883,28.126794 27.399347,28.089221 C 27.18791,27.792569 26.982097,27.493505 26.753736,27.209199 C 26.466331,26.828253 26.181967,26.444801 25.896335,26.062344 C 25.549327,25.631764 25.20063,25.20503 24.813864,24.807671 C 24.203133,24.161849 23.576841,23.53194 22.946167,22.905505 C 22.213891,22.196463 21.453324,21.518189 20.727175,20.802248 C 20.09054,20.154243 19.459215,19.499204 18.893939,18.786793 C 18.529395,18.345194 18.180215,17.88732 17.744404,17.511647 C 17.45288,17.266229 17.166286,17.014602 16.863503,16.782808 C 16.23901,16.281677 15.612241,15.783575 14.968123,15.307657 C 13.912874,14.515986 12.862557,13.714316 11.865231,12.850497 C 10.967994,12.080504 10.067189,11.312918 9.2139645,10.493887 C 8.6291398,9.9055683 8.0924994,9.2759595 7.5301693,8.6667941 C 7.0880945,8.2004513 6.6549363,7.722729 6.1366639,7.3379371 C 5.6644426,6.977097 5.1905121,6.6183332 4.7005241,6.2811539 C 4.3503727,6.0639192 4.0074827,5.8301805 3.6264004,5.6678344 C 3.3310655,5.565019 3.0392144,5.4421193 2.7290617,5.3914357 L 4.7628204,3.9886294 z " />
    <path
       style="fill:#008000;fill-opacity:1"
       id="path2196"
       d="M 3.9108679,28.10503 C 4.0767773,27.544167 4.3228424,27.01275 4.5646497,26.481965 C 4.8969433,25.810939 5.2185647,25.135522 5.5239864,24.451992 C 5.8365111,23.71334 6.2598479,23.036099 6.6876437,22.361941 C 7.2331486,21.613303 7.7933726,20.875905 8.3604969,20.143458 C 8.9313411,19.400747 9.5212839,18.673519 10.114492,17.948696 C 10.68047,17.248374 11.337815,16.631771 11.993962,16.018185 C 12.536848,15.501266 13.143491,15.060455 13.744437,14.615143 C 14.368789,14.152093 15.027922,13.738523 15.673406,13.305872 C 16.242638,12.8868 16.79998,12.452602 17.372454,12.038121 C 17.874387,11.714076 18.385015,11.403935 18.891182,11.086605 C 26.276705,6.8557534 15.582529,12.973335 22.568924,8.9900118 C 23.172921,8.6998243 23.793342,8.4477227 24.409144,8.1846803 C 25.318957,7.7891319 27.400498,6.5377519 23.641409,8.6870837 C 23.925121,8.5067461 24.160741,8.2690293 24.409382,8.0461418 C 24.666132,7.8338539 24.861848,7.5668068 25.080753,7.3224886 C 25.30251,7.0325774 25.446536,6.6985935 25.603506,6.3721713 C 25.741411,6.0302129 25.939501,5.7203705 26.127808,5.405693 C 26.29534,5.2029568 26.460774,4.9918466 26.630439,4.7947727 C 26.747146,4.5167586 26.724791,4.2147974 26.744893,3.9212375 C 26.735804,3.6354998 26.794493,3.3547414 26.83755,3.0738357 L 29.027287,1.9974759 C 28.983997,2.268581 28.924108,2.5413551 28.922149,2.815753 C 28.912095,3.1327202 28.928187,3.4533477 28.856871,3.7651183 C 28.709766,4.0176366 28.647641,4.2669829 28.362729,4.4240378 C 28.167681,4.7294156 27.948948,5.0227521 27.820287,5.3659595 C 27.662927,5.6972914 27.528411,6.0440465 27.31405,6.3439661 C 27.122359,6.6254581 26.949557,6.9023735 26.663379,7.1036925 C 26.421327,7.3458104 26.191006,7.6056733 25.899957,7.7936981 C 24.797651,8.4480203 23.726689,9.1743711 22.538027,9.6662281 C 21.920592,9.9225424 21.302426,10.177847 20.708186,10.485653 C 25.128168,7.9045007 16.403501,12.975589 21.127482,10.221223 C 20.617117,10.538045 20.109714,10.858337 19.592478,11.162708 C 19.002437,11.568872 18.434806,12.004575 17.86985,12.445358 C 17.230376,12.880541 16.571743,13.288309 15.946971,13.743526 C 15.345365,14.186581 14.730059,14.615123 14.178828,15.121759 C 13.510028,15.727658 12.838272,16.336746 12.26267,17.034603 C 11.669988,17.762621 11.071632,18.485875 10.494971,19.226802 C 9.9445548,19.958392 9.3812783,20.679155 8.8472989,21.423126 C 8.4153669,22.07965 7.9758272,22.737377 7.6821584,23.472512 C 7.3726666,24.150611 7.0523368,24.824835 6.7307655,25.497993 C 6.495021,25.995214 6.2591267,26.492392 6.1277438,27.030055 L 3.9108679,28.10503 z " />
  </g>
</svg>
