<?xml version="1.0" encoding="UTF-8" standalone="no"?>
<!-- Created with Inkscape (http://www.inkscape.org/) -->
<svg
   xmlns:dc="http://purl.org/dc/elements/1.1/"
   xmlns:cc="http://web.resource.org/cc/"
   xmlns:rdf="http://www.w3.org/1999/02/22-rdf-syntax-ns#"
   xmlns:svg="http://www.w3.org/2000/svg"
   xmlns="http://www.w3.org/2000/svg"
   xmlns:sodipodi="http://sodipodi.sourceforge.net/DTD/sodipodi-0.dtd"
   xmlns:inkscape="http://www.inkscape.org/namespaces/inkscape"
   width="48"
   height="48"
   viewBox="0 0 48 48"
   id="svg2160"
   sodipodi:version="0.32"
   inkscape:version="0.45"
   sodipodi:docbase="C:\Symbian_projects_91\Tools\YBrowser\FileBrowser\data\icon_mbm\tango"
   sodipodi:docname="BoxEmpty.svg"
   inkscape:output_extension="org.inkscape.output.svg.inkscape"
   sodipodi:modified="true">
  <defs
     id="defs2162" />
  <sodipodi:namedview
     id="base"
     pagecolor="#ffffff"
     bordercolor="#666666"
     borderopacity="1.0"
     inkscape:pageopacity="0.0"
     inkscape:pageshadow="2"
     inkscape:zoom="3.046927"
     inkscape:cx="24"
     inkscape:cy="24"
     inkscape:current-layer="layer1"
     showgrid="true"
     inkscape:grid-bbox="true"
     inkscape:document-units="px"
     inkscape:window-width="744"
     inkscape:window-height="573"
     inkscape:window-x="66"
     inkscape:window-y="87" />
  <metadata
     id="metadata2165">
    <rdf:RDF>
      <cc:Work
         rdf:about="">
        <dc:format>image/svg+xml</dc:format>
        <dc:type
           rdf:resource="http://purl.org/dc/dcmitype/StillImage" />
      </cc:Work>
    </rdf:RDF>
  </metadata>
  <g
     id="layer1"
     inkscape:label="Layer 1"
     inkscape:groupmode="layer">
    <rect
       style="fill:#0000ff;fill-opacity:1;opacity:0.61"
       id="rect2176"
       width="48.90173"
       height="48.245331"
       x="0"
       y="0.41106814" />
    <rect
       style="opacity:0.61000001;fill:#e3dbdb;fill-opacity:1"
       id="rect2180"
       width="41.353142"
       height="40.040344"
       x="3.6101949"
       y="4.3494625" />
    <path
       style="opacity:0.61000001;fill:#000080;fill-opacity:1"
       id="path2206"
       d="M 11.093161,7.2441146 C 11.876429,8.2969161 12.812291,9.2234061 13.731698,10.153655 C 15.087461,11.319429 16.267993,12.669847 17.469512,13.988921 C 18.566675,15.140709 19.505022,16.421905 20.44676,17.698905 C 21.418668,19.013111 22.478301,20.257664 23.541459,21.496232 C 24.770169,22.930493 26.336343,24.012413 27.838723,25.136716 C 29.286632,26.21291 30.77626,27.224775 32.213936,28.314404 C 33.614835,29.45477 35.101899,30.479673 36.56205,31.540808 C 37.613061,32.185711 38.598018,32.913864 39.581906,33.654211 C 40.198144,34.130678 40.712935,34.703506 41.246514,35.263306 C 41.722448,35.856478 42.234568,36.41766 42.747169,36.978994 C 43.069683,37.396308 43.422333,37.788455 43.76285,38.190619 L 39.676376,40.660427 C 39.32931,40.258982 38.970458,39.867464 38.641054,39.450865 C 38.130745,38.892187 37.632641,38.324631 37.147887,37.743902 C 36.631825,37.212612 36.129149,36.667632 35.569626,36.180314 C 34.617305,35.42546 33.635529,34.720081 32.642176,34.020761 C 31.197711,32.943631 29.753767,31.86634 28.320794,30.773955 C 26.879282,29.695693 25.391493,28.684842 23.958434,27.594847 C 22.442306,26.438518 20.863339,25.329035 19.59988,23.886665 C 18.509889,22.650504 17.427342,21.405126 16.454273,20.072459 C 15.523044,18.804153 14.581206,17.545935 13.509327,16.39072 C 12.339204,15.060995 11.168376,13.718792 9.8046965,12.580905 C 8.8388284,11.641793 7.8737066,10.700256 6.9436804,9.7241825 L 11.093161,7.2441146 z " />
    <path
       style="opacity:0.61000001;fill:#000080;fill-opacity:1"
       id="path2212"
       d="M 41.979521,10.330311 C 40.92672,11.11358 40.00023,12.049442 39.06998,12.968849 C 37.904206,14.324612 36.553788,15.505144 35.234714,16.706663 C 34.082926,17.803826 32.80173,18.742173 31.52473,19.683911 C 30.210524,20.655819 28.965971,21.715452 27.727402,22.77861 C 26.293141,24.00732 25.211221,25.573494 24.086918,27.075873 C 23.010724,28.523782 21.998859,30.01341 20.90923,31.451086 C 19.768864,32.851985 18.743961,34.339049 17.682826,35.7992 C 17.037923,36.850211 16.30977,37.835168 15.569423,38.819056 C 15.092956,39.435294 14.520128,39.950085 13.960328,40.483664 C 13.367156,40.959598 12.805974,41.471718 12.24464,41.984319 C 11.827326,42.306833 11.435179,42.659483 11.033015,43 L 8.5632069,38.913526 C 8.9646519,38.56646 9.3561699,38.207608 9.7727689,37.878204 C 10.331447,37.367895 10.899003,36.869791 11.479732,36.385037 C 12.011022,35.868975 12.556002,35.366299 13.04332,34.806776 C 13.798174,33.854455 14.503553,32.872679 15.202873,31.879326 C 16.280003,30.434861 17.357294,28.990917 18.449679,27.557944 C 19.527941,26.116433 20.538792,24.628644 21.628787,23.195585 C 22.785116,21.679457 23.894599,20.10049 25.336969,18.837031 C 26.57313,17.74704 27.818509,16.664493 29.151176,15.691424 C 30.419482,14.760195 31.6777,13.818357 32.832915,12.746478 C 34.16264,11.576355 35.504843,10.405526 36.64273,9.041847 C 37.581842,8.075979 38.523379,7.110857 39.499453,6.180831 L 41.979521,10.330311 z " />
  </g>
</svg>
