<?xml version="1.0" encoding="UTF-8" standalone="no"?>
<!-- Created with Inkscape (http://www.inkscape.org/) -->
<svg
   xmlns:dc="http://purl.org/dc/elements/1.1/"
   xmlns:cc="http://web.resource.org/cc/"
   xmlns:rdf="http://www.w3.org/1999/02/22-rdf-syntax-ns#"
   xmlns:svg="http://www.w3.org/2000/svg"
   xmlns="http://www.w3.org/2000/svg"
   xmlns:sodipodi="http://sodipodi.sourceforge.net/DTD/sodipodi-0.dtd"
   xmlns:inkscape="http://www.inkscape.org/namespaces/inkscape"
   width="48"
   height="48"
   viewBox="0 0 48 48"
   id="svg2214"
   sodipodi:version="0.32"
   inkscape:version="0.45"
   sodipodi:modified="true">
  <defs
     id="defs2216" />
  <sodipodi:namedview
     id="base"
     pagecolor="#ffffff"
     bordercolor="#666666"
     borderopacity="1.0"
     inkscape:pageopacity="0.0"
     inkscape:pageshadow="2"
     inkscape:zoom="7"
     inkscape:cx="24"
     inkscape:cy="24"
     inkscape:current-layer="layer1"
     showgrid="true"
     inkscape:grid-bbox="true"
     inkscape:document-units="px"
     inkscape:window-width="744"
     inkscape:window-height="573"
     inkscape:window-x="101"
     inkscape:window-y="79" />
  <metadata
     id="metadata2219">
    <rdf:RDF>
      <cc:Work
         rdf:about="">
        <dc:format>image/svg+xml</dc:format>
        <dc:type
           rdf:resource="http://purl.org/dc/dcmitype/StillImage" />
      </cc:Work>
    </rdf:RDF>
  </metadata>
  <g
     id="layer1"
     inkscape:label="Layer 1"
     inkscape:groupmode="layer">
    <flowRoot
       xml:space="preserve"
       id="flowRoot2222"><flowRegion
         id="flowRegion2224"><rect
           id="rect2226"
           width="34"
           height="23.571428"
           x="10.571428"
           y="15.428572" /></flowRegion><flowPara
         id="flowPara2228" /></flowRoot>    <path
       style="opacity:1;fill:#0000ff;fill-opacity:1"
       id="path2268"
       d="M 10.577064,17.710658 C 11.629015,18.985525 12.53341,20.441156 13.438056,21.881703 C 14.626833,23.821752 15.91204,25.662462 17.143032,27.559372 C 17.779413,28.512901 18.365276,29.513096 18.943651,30.521088 C 19.45185,31.470032 19.733102,32.551815 20.047516,33.615024 C 20.349502,34.556468 20.72786,35.45668 21.076208,36.370852 C 21.359281,37.280357 21.953513,37.781602 22.469462,38.410457 C 23.476323,38.071487 20.761431,39.928322 19.847757,40.561178 C 20.477048,39.736837 20.655359,38.636101 20.933612,37.585372 C 21.133297,36.514039 21.461325,35.520587 21.781278,34.507497 C 22.232154,33.402805 22.702502,32.31282 23.178339,31.22558 C 23.743295,30.01994 24.415975,28.920431 25.115364,27.838553 C 25.902092,26.654463 26.713559,25.496968 27.50936,24.322497 C 28.258646,23.256606 28.974002,22.154683 29.679684,21.042966 C 30.336078,19.97911 30.848804,18.791056 31.410053,17.647199 C 31.891776,16.592471 32.488708,15.643716 33.067207,14.677079 C 33.595063,13.869975 34.141309,13.083795 34.678683,12.287131 C 35.183133,11.495377 35.663039,10.679981 36.148224,9.8696413 C 37.710259,7.3226883 39.21109,6.9610933 41.921939,5.0506311 C 42.202002,4.8620578 42.494217,5.0748525 42.771313,5.0865817 L 38.617036,8.7933933 C 38.403489,8.8565903 38.148641,8.8011233 37.955865,8.9890613 C 45.260313,3.6364663 42.082527,5.3761023 40.765585,7.3788303 C 40.271057,8.1820093 39.790499,9.0058933 39.269645,9.7848143 C 38.754207,10.629249 38.215619,11.43205 37.652781,12.226626 C 37.042121,13.160149 36.441505,14.085332 35.955143,15.133825 C 35.369644,16.271757 34.855856,17.463999 34.237428,18.575444 C 33.543499,19.712307 32.824432,20.825102 32.051535,21.878628 C 31.262103,23.064911 30.452179,24.230119 29.65851,25.411072 C 28.959506,26.454998 28.291102,27.516685 27.72228,28.683799 C 27.237287,29.746569 26.768584,30.817824 26.328008,31.909873 C 25.968129,32.892704 25.634353,33.844091 25.440978,34.911312 C 25.17689,35.99624 24.989528,37.154608 24.481185,38.105783 C 22.559301,39.629877 20.610382,42.867522 18.230263,41.831425 C 17.653705,41.128598 17.08197,40.471579 16.730962,39.522532 C 16.372963,38.576579 15.98445,37.644638 15.672908,36.670685 C 15.381506,35.652873 15.120621,34.622566 14.628629,33.721735 C 14.071228,32.716128 13.516168,31.708349 12.942509,30.717778 C 11.793294,28.75368 10.563542,26.87655 9.3372404,24.988858 C 8.4219809,23.643688 7.5191622,22.206017 6.3274312,21.242819 L 10.577064,17.710658 z " />
  </g>
</svg>
