<?xml version="1.0" encoding="UTF-8"?>
<!DOCTYPE svg PUBLIC "-//W3C//DTD SVG 1.1 Tiny//EN" "http://www.w3.org/Graphics/SVG/1.1/DTD/svg11-tiny.dtd">
<svg baseProfile="tiny" xmlns="http://www.w3.org/2000/svg" width="64px" height="64px">
<defs/>
<metadata/>
<g>
<path style="opacity:1;fill:#0000ff;fill-opacity:1" d="M 34.363636 14.181818 A 16.90909 6.3636365 0 1 1  0.54545593,14.181818 A 16.90909 6.3636365 0 1 1  34.363636 14.181818 z" transform="translate(7.2727273,11.181818)"/>
<path style="opacity:1;fill:#000000;fill-opacity:1" d="M 21.454545 53.272728 A 6.7272725 6.5454545 0 1 1  8.0000005,53.272728 A 6.7272725 6.5454545 0 1 1  21.454545 53.272728 z" transform="translate(-3.0000005,-12)"/>
<path style="opacity:1;fill:#ff0000;fill-opacity:1" d="M 18 32.454544 A 5.181818 7.7272725 0 1 1  7.636364,32.454544 A 5.181818 7.7272725 0 1 1  18 32.454544 z" transform="matrix(1.0408163,0,0,1.0233918,-5.8571425,-0.2147793)"/>
<rect style="opacity:1;fill:#ff0000;fill-opacity:1" width="37.090912" height="15.816055" x="7.7680898" y="25.090908"/>
<path style="opacity:1;fill:#ffffff;fill-opacity:1" d="M 17.818182 53.909092 A 2.6363637 2.6363637 0 1 1  12.545454,53.909092 A 2.6363637 2.6363637 0 1 1  17.818182 53.909092 z" transform="translate(-3.545455,-12.545455)"/>
<path style="opacity:1;fill:#000000;fill-opacity:1" d="M 21.454545 53.272728 A 6.7272725 6.5454545 0 1 1  8.0000005,53.272728 A 6.7272725 6.5454545 0 1 1  21.454545 53.272728 z" transform="translate(34,-12.000001)"/>
<path style="opacity:1;fill:#ff0000;fill-opacity:1" d="M 18 32.454544 A 5.181818 7.7272725 0 1 1  7.636364,32.454544 A 5.181818 7.7272725 0 1 1  18 32.454544 z" transform="matrix(3.8163267,0,0,1.0233918,-6.3302437,-0.1217427)"/>
<path style="opacity:1;fill:#ffffff;fill-opacity:1" d="M 17.818182 53.909092 A 2.6363637 2.6363637 0 1 1  12.545454,53.909092 A 2.6363637 2.6363637 0 1 1  17.818182 53.909092 z" transform="translate(33.454545,-12.545455)"/>
<path style="fill:none;fill-rule:evenodd;stroke:#000000;stroke-width:1.03347886px;stroke-linecap:butt;stroke-linejoin:miter;stroke-opacity:1" d="M 2.5792914,30.909091 C 60.838121,30.909091 61.420709,30.909091 61.420709,30.909091 L 2.5792914,30.909091 z "/>
<path style="fill:none;fill-rule:evenodd;stroke:#000000;stroke-width:1px;stroke-linecap:butt;stroke-linejoin:miter;stroke-opacity:1" d="M 60,30.545455 C 56.181818,27.454545 60.545455,30 60,30.545455 z "/>
<path style="fill:none;fill-rule:evenodd;stroke:#000000;stroke-width:1px;stroke-linecap:butt;stroke-linejoin:miter;stroke-opacity:1" d="M 25,19 C 25.094809,18.004505 25,21 25,22 C 25,23.151515 25,24.30303 25,25.454545"/>
<rect style="opacity:1;fill:#28170b;fill-opacity:1" width="63.636364" height="5" x="0.5454542" y="47.545456"/>
</g>
</svg>
