<?xml version="1.0" encoding="UTF-8"?>
<!DOCTYPE svg PUBLIC "-//W3C//DTD SVG 1.1 Tiny//EN" "http://www.w3.org/Graphics/SVG/1.1/DTD/svg11-tiny.dtd">
<svg baseProfile="tiny" version="1.1" xmlns="http://www.w3.org/2000/svg" xmlns:xlink="http://www.w3.org/1999/xlink" x="0px" y="0px" width="25.6px" height="26.8px" viewBox="0 0 25.6 26.8">
<linearGradient id="SVGID_1_" gradientUnits="userSpaceOnUse" x1="3574.9172" y1="-3416.5308" x2="3646.7759" y2="-3497.0579" gradientTransform="matrix(8.133983e-012 0.1812 -0.1769 7.940316e-012 -602.5494 -641.3896)">
<stop offset="0" style="stop-color:#EFEEEF"/>
<stop offset="1" style="stop-color:#CCCCCB"/>
</linearGradient>
<polygon fill="url(#SVGID_1_)" stroke="#979696" stroke-width="1.0173" stroke-linecap="round" stroke-linejoin="round" points="  20.5,2.9 22.3,20.9 21.8,26.3 1.1,26.3 0.5,20.9 1.9,2.9 "/>
<g>
<polygon fill-opacity="0.412" points="1.4,25.9 21.6,25.9 22,21.1 0.8,21.1  "/>
</g>
<path fill="#8F8E8D" stroke="#C0BFC0" stroke-width="1.5894" stroke-linecap="round" stroke-linejoin="round" d="M11.7,18.1  c-4.1,0-7.4-2.5-7.4-5.6c0-3.1,3.3-5.6,7.4-5.6c4.1,0,7.4,2.5,7.4,5.6C19.1,15.6,15.8,18.1,11.7,18.1L11.7,18.1z"/>
<linearGradient id="SVGID_2_" gradientUnits="userSpaceOnUse" x1="3499.4612" y1="-3310.3901" x2="3516.1558" y2="-3400.2231" gradientTransform="matrix(8.349369e-012 0.186 -0.181 8.127181e-012 -600.811 -640.3931)">
<stop offset="0" style="stop-color:#FFFFFF"/>
<stop offset="1" style="stop-color:#FFFFFF"/>
</linearGradient>
<path fill="url(#SVGID_2_)" fill-opacity="0.21" d="M0.8,21.1H14c-8.8-7.3-3.4-14.9-0.4-17.9H2.4L0.8,21.1z"/>
<polygon fill="#60605F" points="1.9,25.2 4.1,25.2 4.2,25.2 6.4,25.2 6.4,23.9 5.6,22.5 4.2,22.5 4.1,22.5 2.7,22.5 1.9,23.9 "/>
<g>
<polygon fill-opacity="0.696" points="6.4,23.9 5.7,22.5 3.6,22.5 3.6,23.9  "/>
</g>
<g>
<path fill-opacity="0.38" d="M8.9,22.5h11.9c0.1,0,0.2,0.1,0.2,0.3v2.2c0,0.2-0.1,0.3-0.2,0.3H8.9c-0.1,0-0.2-0.1-0.2-0.3v-2.2   C8.6,22.6,8.7,22.5,8.9,22.5z"/>
</g>
<g>
<path fill-opacity="0.388" d="M9.4,22.5H8.8c-0.1,0-0.1,0.2-0.1,0.3v2.4l0.1,0.2l0.7-1.5L9.4,22.5L9.4,22.5z"/>
</g>
<g>
<path fill-opacity="0.388" d="M20.3,22.5h0.4c0.2,0,0.2,0.2,0.2,0.3v2.4l-0.1,0.1l-0.5-1.5L20.3,22.5L20.3,22.5z"/>
</g>
<polygon fill="#3C3C3C" points="3.6,22.5 2.6,22.5 1.9,23.9 1.9,25.2 3.6,23.9 "/>
<rect x="9.4" y="22.5" fill="#1D1D1C" width="11" height="1.4"/>
<g>
<linearGradient id="SVGID_3_" gradientUnits="userSpaceOnUse" x1="-250.2332" y1="417.9146" x2="-250.2332" y2="339.4006">
<stop offset="0" style="stop-color:#FFFFFF"/>
<stop offset="1" style="stop-color:#FFFFFF"/>
</linearGradient>
<polygon fill="none" stroke="url(#SVGID_3_)" stroke-width="1.029" stroke-opacity="0.7124" points="21.8,20.8 1,20.8 2.4,3.6    20.2,3.6  "/>
</g>
</svg>
