<?xml version="1.0" encoding="UTF-8"?>
<!DOCTYPE svg PUBLIC "-//W3C//DTD SVG 1.1 Tiny//EN" "http://www.w3.org/Graphics/SVG/1.1/DTD/svg11-tiny.dtd">
<svg baseProfile="tiny" xmlns="http://www.w3.org/2000/svg" xmlns:xlink="http://www.w3.org/1999/xlink" width="48" height="48" viewBox="0 0 48 48">
<defs>
<linearGradient id="linearGradient4251">
<stop offset="0" style="stop-color:#efefef;stop-opacity:1"/>
<stop offset="1.0000000" style="stop-color:#cccccc;stop-opacity:1"/>
</linearGradient>
<linearGradient id="linearGradient4241">
<stop style="stop-color:#ffffff;stop-opacity:1;" offset="0"/>
<stop style="stop-color:#ffffff;stop-opacity:0;" offset="1"/>
</linearGradient>
<linearGradient id="linearGradient4231">
<stop style="stop-color:#ffffff;stop-opacity:1;" offset="0"/>
<stop style="stop-color:#ffffff;stop-opacity:0.29411766" offset="1"/>
</linearGradient>
<linearGradient id="linearGradient10903">
<stop style="stop-color:#000000;stop-opacity:0.16666669;" offset="0.0000000"/>
<stop style="stop-color:#000000;stop-opacity:0;" offset="1"/>
</linearGradient>
<linearGradient id="linearGradient10893">
<stop style="stop-color:#000000;stop-opacity:1;" offset="0"/>
<stop style="stop-color:#000000;stop-opacity:0;" offset="1"/>
</linearGradient>
<linearGradient id="linearGradient4963">
<stop style="stop-color:#ffffff;stop-opacity:0.82291675;" offset="0.0000000"/>
<stop style="stop-color:#ffffff;stop-opacity:0;" offset="1"/>
</linearGradient>
<linearGradient id="linearGradient4953">
<stop style="stop-color:#c9c9c9;stop-opacity:1;" offset="0"/>
<stop offset="0.5" style="stop-color:#f0f0f0;stop-opacity:1;"/>
<stop style="stop-color:#a8a8a8;stop-opacity:1;" offset="1"/>
</linearGradient>
<radialGradient xlink:href="#linearGradient10903" id="radialGradient10935" gradientUnits="userSpaceOnUse" gradientTransform="matrix(1,0,0,0.272085,7.64449e-15,81.72076)" cx="54.977551" cy="112.26688" fx="54.977551" fy="112.26688" r="50.027805"/>
<radialGradient xlink:href="#linearGradient10903" id="radialGradient10937" gradientUnits="userSpaceOnUse" gradientTransform="matrix(1,0,0,0.272085,-1.298007e-15,81.72076)" cx="54.977551" cy="112.26688" fx="54.977551" fy="112.26688" r="50.027805"/>
<linearGradient xlink:href="#linearGradient10893" id="linearGradient10963" gradientUnits="userSpaceOnUse" gradientTransform="matrix(0.353553,0,0,0.378666,3.125008,0.107108)" x1="80.963722" y1="136.13171" x2="106.41957" y2="107.4939"/>
<linearGradient xlink:href="#linearGradient4963" id="linearGradient10983" gradientUnits="userSpaceOnUse" x1="42.745388" y1="17.003687" x2="52.664207" y2="70.376381" gradientTransform="matrix(0.495917,0,0,0.48272,-9.117113,-2.120034)"/>
<linearGradient xlink:href="#linearGradient4953" id="linearGradient10986" gradientUnits="userSpaceOnUse" x1="41.841553" y1="70.063629" x2="46.39151" y2="77.22789" gradientTransform="matrix(0.472221,0,0,0.508383,-7.006608,-4.538102)"/>
<linearGradient xlink:href="#linearGradient4251" id="linearGradient10991" gradientUnits="userSpaceOnUse" x1="27.267529" y1="40.856087" x2="67.308113" y2="85.726936" gradientTransform="matrix(0.483124,0,0,0.471621,-8.449997,-1.733399)"/>
<linearGradient xlink:href="#linearGradient4231" id="linearGradient4237" x1="9.5" y1="35" x2="9.5" y2="113.51402" gradientUnits="userSpaceOnUse" gradientTransform="matrix(0.3714,0,0,0.359175,0.980196,2.56592)"/>
<linearGradient xlink:href="#linearGradient4241" id="linearGradient4247" x1="21.193907" y1="77.509567" x2="26.805424" y2="98.452034" gradientUnits="userSpaceOnUse" gradientTransform="matrix(0.326269,0,0,0.338468,3.386269,4.311194)"/>
</defs>
<metadata/>
<g>
<path style="opacity:1;color:black;fill:url(#radialGradient10935);fill-opacity:1;fill-rule:evenodd;stroke:none;stroke-width:0.5;stroke-linecap:round;stroke-linejoin:round;marker:none;marker-start:none;marker-mid:none;marker-end:none;stroke-miterlimit:4;stroke-dasharray:none;stroke-dashoffset:0;stroke-opacity:1;visibility:visible;display:inline;overflow:visible" d="M 105.00536 112.26688 A 50.027805 13.611806 0 1 1  4.9497452,112.26688 A 50.027805 13.611806 0 1 1  105.00536 112.26688 z" transform="matrix(0.297883,0,0,0.330595,-1.474444,3.385193)"/>
<path style="opacity:1;color:black;fill:url(#radialGradient10937);fill-opacity:1;fill-rule:evenodd;stroke:none;stroke-width:0.5;stroke-linecap:round;stroke-linejoin:round;marker:none;marker-start:none;marker-mid:none;marker-end:none;stroke-miterlimit:4;stroke-dasharray:none;stroke-dashoffset:0;stroke-opacity:1;visibility:visible;display:inline;overflow:visible" d="M 105.00536 112.26688 A 50.027805 13.611806 0 1 1  4.9497452,112.26688 A 50.027805 13.611806 0 1 1  105.00536 112.26688 z" transform="matrix(0.3598,0,0,0.367326,1.219082,1.761409)"/>
<path style="fill:url(#linearGradient10963);fill-opacity:1;fill-rule:evenodd;stroke:none;stroke-width:0.25pt;stroke-linecap:butt;stroke-linejoin:miter;stroke-opacity:1" d="M 37.624999,45 L 48,41.748609 L 35,38 L 37.624999,45 z "/>
<path style="fill:url(#linearGradient10991);fill-opacity:1;fill-rule:evenodd;stroke:#969696;stroke-width:1.01731706;stroke-linecap:round;stroke-linejoin:round;stroke-miterlimit:4;stroke-dasharray:none;stroke-opacity:1" d="M 3.5086585,14.378289 L 29.625871,6.5086585 L 37.491341,7.6681338 L 37.491341,44.51025 L 29.625871,45.491342 L 3.5086585,39.581289 L 3.5086585,14.378289 z "/>
<path style="fill:black;fill-opacity:0.41201716;fill-rule:evenodd;stroke:none;stroke-width:0.25pt;stroke-linecap:butt;stroke-linejoin:miter;stroke-opacity:1" d="M 30.014171,7 L 30,45 L 37,44.105475 L 37,8.087509 L 30.014171,7 z "/>
<path style="opacity:1;color:black;fill:#8d8d8d;fill-opacity:1;fill-rule:evenodd;stroke:silver;stroke-width:1.58935583;stroke-linecap:round;stroke-linejoin:round;marker:none;marker-start:none;marker-mid:none;marker-end:none;stroke-miterlimit:4;stroke-dasharray:none;stroke-dashoffset:0;stroke-opacity:1;visibility:visible;display:inline;overflow:visible" d="M 66.833946 57.623615 A 18.656826 28.339483 0 1 1  29.520294,57.623615 A 18.656826 28.339483 0 1 1  66.833946 57.623615 z" transform="matrix(0.436435,0,0,0.463752,-3.526156,-0.223068)"/>
<path style="fill:url(#linearGradient10986);fill-opacity:1;fill-rule:evenodd;stroke:#999;stroke-width:1.04423511;stroke-linecap:butt;stroke-linejoin:miter;stroke-miterlimit:4;stroke-dasharray:none;stroke-opacity:1" d="M 8.9408523,31.120005 C 6.5059846,32.580744 7.4446169,37.503239 9.944538,38.443712 C 12.688845,39.097181 20.185852,31.240065 19.423793,29.919388 C 18.494455,28.458649 13.550373,31.440163 10.613662,32.200551 C 10.056059,31.840368 10.111819,30.639752 8.9408523,31.120005 z "/>
<path style="fill:url(#linearGradient10983);fill-opacity:1;fill-rule:evenodd;stroke:none;stroke-width:0.25pt;stroke-linecap:butt;stroke-linejoin:miter;stroke-opacity:1" d="M 4,15.094029 L 4,30.142078 C 8.3333329,24.632061 19.45946,14.904028 30,30.712078 L 30,7 L 4,15.094029 z "/>
<path style="fill:#5f5f5f;fill-opacity:1;fill-rule:evenodd;stroke:none;stroke-width:0.235;stroke-linecap:round;stroke-linejoin:round;stroke-miterlimit:4;stroke-dasharray:none;stroke-opacity:1" d="M 33.986511,9 L 32,10.438202 L 32,12.835207 L 32,13.164794 L 32,15.561799 L 33.986511,17 L 36,17 L 36,13.164794 L 36,12.835207 L 36,9 L 33.986511,9 z "/>
<path style="fill:black;fill-opacity:0.69599998;fill-rule:evenodd;stroke:none;stroke-width:0.25pt;stroke-linecap:butt;stroke-linejoin:miter;stroke-opacity:1" d="M 33.989637,12 L 32.010364,12 L 32,15.732911 L 34,17 L 33.989637,12 z "/>
<rect style="opacity:1;color:black;fill:black;fill-opacity:0.37999998;fill-rule:evenodd;stroke:none;stroke-width:0.27272975;stroke-linecap:round;stroke-linejoin:round;marker:none;marker-start:none;marker-mid:none;marker-end:none;stroke-miterlimit:4;stroke-dasharray:none;stroke-dashoffset:0;stroke-opacity:1;visibility:visible;display:inline;overflow:visible" width="4" height="22" x="32" y="21" rx="0.39435238" ry="0.3509084"/>
<path style="fill:black;fill-opacity:0.38800007;fill-rule:evenodd;stroke:none;stroke-width:0.25pt;stroke-linecap:butt;stroke-linejoin:miter;stroke-opacity:1" d="M 33.90291,22.424788 L 36,21.100692 L 35.738066,21 L 32.36279,21.013111 C 32.274422,21.010346 32.077872,21.05347 32.016551,21.240819 L 32,22.424788 L 33.90291,22.424788 z "/>
<path style="fill:black;fill-opacity:0.38800007;fill-rule:evenodd;stroke:none;stroke-width:0.25pt;stroke-linecap:butt;stroke-linejoin:miter;stroke-opacity:1" d="M 33.929697,42 L 36,42.912925 L 35.821715,42.995861 L 32.361143,43 C 32.268189,42.984797 32.051809,42.928127 32,42.668281 L 32,42 L 33.929697,42 z "/>
<path style="fill:#3b3b3b;fill-opacity:1;fill-rule:evenodd;stroke:none;stroke-width:0.25pt;stroke-linecap:butt;stroke-linejoin:miter;stroke-opacity:1" d="M 33.965384,12 L 36.022709,9 L 33.956155,9 L 32,10.320913 L 32.007776,11.977139 L 33.965384,12 z "/>
<rect style="opacity:1;color:black;fill:#1d1d1d;fill-opacity:1;fill-rule:evenodd;stroke:none;stroke-width:0.5;stroke-linecap:round;stroke-linejoin:round;marker:none;marker-start:none;marker-mid:none;marker-end:none;stroke-miterlimit:4;stroke-dasharray:none;stroke-dashoffset:0;stroke-opacity:1;visibility:visible;display:inline;overflow:visible" width="2" height="19.638262" x="32" y="22.361738"/>
<path style="fill:none;fill-opacity:1;fill-rule:evenodd;stroke:url(#linearGradient4237);stroke-width:1.02900898;stroke-linecap:butt;stroke-linejoin:miter;stroke-miterlimit:4;stroke-dasharray:none;stroke-opacity:0.71244632" d="M 4.5145045,38.864901 L 4.5145045,15.133527 L 29.485496,7.5145045 L 29.485496,44.485496 L 4.5145045,38.864901 z "/>
<path style="fill:none;fill-opacity:1;fill-rule:evenodd;stroke:url(#linearGradient4247);stroke-width:0.9362492;stroke-linecap:butt;stroke-linejoin:miter;stroke-miterlimit:4;stroke-dasharray:none;stroke-opacity:1" d="M 9.5918506,31.927136 C 7.6139332,33.029256 8.4579803,36.785548 10.488743,37.495134 C 12.822691,38.090783 18.889642,31.256172 18.5153,30.598204 C 18.112551,29.874545 13.091602,32.380244 10.706023,32.953942 C 10.253065,32.682188 10.135226,31.649412 9.5918506,31.927136 z "/>
</g>
</svg>
